<svg xmlns="http://www.w3.org/2000/svg" viewBox="0 0 195.65 67.48"><defs><style>.cls-1{fill:#314d9b;}.cls-2{fill:#08b5cc;}.cls-3{fill:#0eb4c2;}</style></defs><g id="Layer_2" data-name="Layer 2"><g id="Layer_1-2" data-name="Layer 1"><path class="cls-1" d="M176.24,10.14V67.21c9.4-.59,19.41-5.71,19.41-16.08V13.76S182,10.35,176.24,10.14Zm12.94,41c0,2.85-1.58,6-6.47,8.06V17.25a62,62,0,0,1,6.47,1.35Z"/><path class="cls-1" d="M158.44,51.13c0,2.85,1.59,6,6.47,8.06V32h-3.23V25.55h9.7V67.21C162,66.62,152,61.5,152,51.13V13.76s13.69-3.41,19.41-3.62v6.48a60.18,60.18,0,0,0-12.94,2Z"/><path class="cls-2" d="M1.32,39.79c-.29,0-.42-.12-.42-.42V36c0-.29.13-.42.42-.42h.92c2.34,0,3.3-1.17,3.3-3.55V14.42c0-.29.13-.42.42-.42H9.84c.3,0,.42.13.42.42V32.14q0,7.65-7.4,7.65Z"/><path class="cls-2" d="M18.66,39.79c-.29,0-.41-.12-.41-.42V36c0-.29.12-.42.41-.42h4.89c2.51,0,3.81-.79,3.81-4.26H23.14c-5.19,0-8.24-2.22-8.24-8.57,0-6.86,4.06-9.53,8.57-9.53,5,0,8.53,2.47,8.53,9.24v4.72h2.88c1.13,0,1.67.54,1.67,2,0,1.79-.5,2.13-1.67,2.13H32v.92c0,5.22-2.64,7.52-7.69,7.52Zm.84-17.14c0,3.51,1.46,4.56,4.14,4.56h3.72V22.45c0-3.35-1.17-5-3.85-5C21,17.43,19.5,19.48,19.5,22.65Z"/><path class="cls-2" d="M34.88,31.35c-1.13,0-1.46-.46-1.46-2,0-1.67.29-2.17,1.46-2.17h5c1.13,0,1.67.54,1.67,2.05,0,1.71-.5,2.09-1.67,2.09Z"/><path class="cls-2" d="M39.9,31.35c-1.13,0-1.47-.46-1.47-2,0-1.67.3-2.17,1.47-2.17h5c1.13,0,1.67.54,1.67,2.05,0,1.71-.5,2.09-1.67,2.09Z"/><path class="cls-2" d="M44.91,31.35c-1.13,0-1.46-.46-1.46-2,0-1.67.29-2.17,1.46-2.17h5c1.13,0,1.67.54,1.67,2.05,0,1.71-.5,2.09-1.67,2.09Z"/><path class="cls-2" d="M60.17,24.62c0,1.8.88,2.59,2.88,2.59,2.84,0,3-.63,3-4.14V17.72c0-.29.13-.42.42-.42h3.89c.29,0,.41.13.41.42v7c0,1.72,1.17,2.51,2.89,2.51,2.59,0,2.92-.59,2.92-4.1V14.42c0-.29.13-.42.42-.42h3.89c.29,0,.42.13.42.42v10.2c0,1.67,1.33,2.59,3.47,2.59h.71c1.12,0,1.67.54,1.67,2,0,1.63-.55,2.13-1.67,2.13-2.18,0-3.77-.34-4.73-2.13-.79,1.54-2.17,2.13-4.68,2.13h-1.8a4.22,4.22,0,0,1-4-2.18c-.79,1.63-2.17,2.18-4.68,2.18H63.68a4.12,4.12,0,0,1-4.06-2.22c-.79,1.63-2.17,2.22-4.68,2.22H50.43c-1.3,0-2-.09-2-1.88s.51-2.26,1.68-2.26h3.34c2,0,2-1.17,2-4.14V17.72c0-.29.12-.42.41-.42h3.89c.29,0,.42.13.42.42Zm3.72-14.8c-.29,0-.42-.12-.42-.42V5.81c0-.29.13-.42.42-.42H67.4c.29,0,.42.13.42.42V9.4c0,.3-.13.42-.42.42Zm2.67-5.39c-.29,0-.41-.13-.41-.42V.42c0-.3.12-.42.41-.42h3.51c.3,0,.42.12.42.42V4c0,.29-.12.42-.42.42Zm2.76,5.39c-.29,0-.42-.12-.42-.42V5.81c0-.29.13-.42.42-.42h3.51c.3,0,.42.13.42.42V9.4c0,.3-.12.42-.42.42Z"/><path class="cls-2" d="M85.45,31.35c-1.12,0-1.67-.29-1.67-1.46,0-1.38.5-2.68,1.67-2.68h2c1.38,0,2-.54,2-2.21V14.42c0-.29.13-.42.42-.42h3.88c.3,0,.42.13.42.42V26.08c0,3.68-1.38,5.27-4.89,5.27ZM89.93,9.82c-.29,0-.42-.12-.42-.42V5.81c0-.29.13-.42.42-.42h4c.29,0,.42.13.42.42V9.4c0,.3-.13.42-.42.42Z"/><path class="cls-2" d="M102.17,39.79c-.29,0-.41-.12-.41-.42V36c0-.29.12-.42.41-.42h4.89c2.51,0,3.81-.79,3.81-4.26h-4.22c-5.19,0-8.24-2.22-8.24-8.57,0-6.86,4.06-9.53,8.57-9.53,5,0,8.53,2.47,8.53,9.24v4.72h2.88c1.13,0,1.67.54,1.67,2,0,1.79-.5,2.13-1.67,2.13h-2.88v.92c0,5.22-2.64,7.52-7.69,7.52ZM103,22.65c0,3.51,1.46,4.56,4.14,4.56h3.72V22.45c0-3.35-1.17-5-3.85-5C104.51,17.43,103,19.48,103,22.65Z"/><path class="cls-2" d="M118.39,31.35c-1.13,0-1.67-.59-1.67-2.09s.5-2.05,1.67-2.05h11.12c2.88,0,3.43-.84,3.43-3.55,0-3.6-1.22-6.23-5-6.23a6.12,6.12,0,0,0-4.51,2,.38.38,0,0,1-.59,0l-2.17-2.26c-.21-.21-.25-.42-.08-.58a9.29,9.29,0,0,1,7.48-3.39c7.48,0,9.78,4.89,9.78,10.53,0,6-2.22,7.57-6.56,7.57Zm8.32,7.94c-.29,0-.42-.13-.42-.42V35.28c0-.3.13-.42.42-.42h4c.29,0,.42.12.42.42v3.59c0,.29-.13.42-.42.42Z"/><path class="cls-3" d="M15.21,53a4.8,4.8,0,0,0-1.93-2,5.88,5.88,0,0,0-2.87-.67,6.25,6.25,0,0,0-3.22.82A5.67,5.67,0,0,0,5,53.53a8.23,8.23,0,0,0,0,7.08A5.6,5.6,0,0,0,7.25,63a6.59,6.59,0,0,0,3.34.82,5.78,5.78,0,0,0,3.83-1.24,6,6,0,0,0,2-3.47h-7V55.93H20.41V59.5a9.53,9.53,0,0,1-1.75,4,9.87,9.87,0,0,1-3.47,2.91,10.17,10.17,0,0,1-4.75,1.1A10.85,10.85,0,0,1,5.1,66.13a9.71,9.71,0,0,1-3.74-3.7,11.36,11.36,0,0,1,0-10.78A9.69,9.69,0,0,1,5.1,47.93a10.79,10.79,0,0,1,5.31-1.33,10.58,10.58,0,0,1,6,1.69A8.63,8.63,0,0,1,19.92,53Z"/><path class="cls-3" d="M27.67,66.14a10.1,10.1,0,0,1-3.81-3.73,11,11,0,0,1,0-10.76,10.1,10.1,0,0,1,3.81-3.73,11,11,0,0,1,10.54,0A9.93,9.93,0,0,1,42,51.65a11.11,11.11,0,0,1,0,10.76,9.91,9.91,0,0,1-3.79,3.73,11,11,0,0,1-10.52,0ZM36.18,63a5.77,5.77,0,0,0,2.19-2.39,8.55,8.55,0,0,0,0-7.18,5.66,5.66,0,0,0-2.19-2.35,6.87,6.87,0,0,0-6.51,0,5.58,5.58,0,0,0-2.21,2.35,8.55,8.55,0,0,0,0,7.18A5.69,5.69,0,0,0,29.67,63a6.8,6.8,0,0,0,6.51,0Z"/><path class="cls-3" d="M63.87,67.28H59.78l-9.27-14v14h-4.1V46.84h4.1l9.27,14v-14h4.09Z"/><path class="cls-3" d="M71.11,66.75a6.36,6.36,0,0,1-2.71-2.1,5.58,5.58,0,0,1-1-3.25h4.39a2.83,2.83,0,0,0,.89,2,3.15,3.15,0,0,0,2.21.73,3.4,3.4,0,0,0,2.25-.69,2.2,2.2,0,0,0,.82-1.79,2.07,2.07,0,0,0-.56-1.49A3.82,3.82,0,0,0,76,59.22a23.29,23.29,0,0,0-2.29-.74,23.85,23.85,0,0,1-3.23-1.16,5.69,5.69,0,0,1-2.14-1.72,5,5,0,0,1-.89-3.09,5.49,5.49,0,0,1,.91-3.16,5.8,5.8,0,0,1,2.54-2.06,9.21,9.21,0,0,1,3.74-.71,8.16,8.16,0,0,1,5.14,1.53A5.71,5.71,0,0,1,82,52.39H77.44a2.37,2.37,0,0,0-.89-1.74A3.41,3.41,0,0,0,74.34,50a2.81,2.81,0,0,0-1.91.61,2.23,2.23,0,0,0-.72,1.79,1.83,1.83,0,0,0,.54,1.35,3.9,3.9,0,0,0,1.35.88c.53.23,1.29.48,2.26.78a23.75,23.75,0,0,1,3.25,1.17,5.76,5.76,0,0,1,2.16,1.75,4.85,4.85,0,0,1,.91,3.07,5.7,5.7,0,0,1-.85,3,5.89,5.89,0,0,1-2.48,2.24,8.45,8.45,0,0,1-3.89.83A9.65,9.65,0,0,1,71.11,66.75Z"/><path class="cls-3" d="M89.75,46.87V59.5a4.28,4.28,0,0,0,1.09,3.17,4.07,4.07,0,0,0,3,1.1A4.13,4.13,0,0,0,97,62.67,4.32,4.32,0,0,0,98,59.5V46.87h4.12v12.6a8.13,8.13,0,0,1-1.12,4.4,7.22,7.22,0,0,1-3,2.71,9.64,9.64,0,0,1-4.2.9,9.38,9.38,0,0,1-4.14-.9,6.93,6.93,0,0,1-2.94-2.71,8.39,8.39,0,0,1-1.08-4.4V46.87Z"/><path class="cls-3" d="M116.63,67.28l-4.5-8H110.2v8h-4.1V46.87h7.66a8.9,8.9,0,0,1,4,.83A5.91,5.91,0,0,1,120.3,50a6.36,6.36,0,0,1-.34,6.82A6,6,0,0,1,116.48,59l4.89,8.28Zm-6.43-11h3.42a3.38,3.38,0,0,0,2.48-.81,3,3,0,0,0,.82-2.24A2.86,2.86,0,0,0,116.1,51a3.51,3.51,0,0,0-2.48-.77H110.2Z"/><path class="cls-3" d="M128.94,50.17v5.12h6.87v3.25h-6.87V64h7.75v3.33H124.85V46.84h11.84v3.33Z"/></g></g></svg>