<?xml version="1.0" encoding="UTF-8" standalone="no"?>
<!-- Creator: CorelDRAW 2019 (64-Bit) -->

<svg
   xmlns:dc="http://purl.org/dc/elements/1.1/"
   xmlns:cc="http://creativecommons.org/ns#"
   xmlns:rdf="http://www.w3.org/1999/02/22-rdf-syntax-ns#"
   xmlns:svg="http://www.w3.org/2000/svg"
   xmlns="http://www.w3.org/2000/svg"
   xmlns:sodipodi="http://sodipodi.sourceforge.net/DTD/sodipodi-0.dtd"
   xmlns:inkscape="http://www.inkscape.org/namespaces/inkscape"
   xml:space="preserve"
   width="200.26001"
   height="133.16885"
   version="1.1"
   style="clip-rule:evenodd;fill-rule:evenodd;image-rendering:optimizeQuality;shape-rendering:geometricPrecision;text-rendering:geometricPrecision"
   viewBox="0 0 55.513253 36.916352"
   id="svg59"
   sodipodi:docname="tadarab-less-wide.svg"
   inkscape:version="0.92.3 (2405546, 2018-03-11)"><metadata
   id="metadata63"><rdf:RDF><cc:Work
       rdf:about=""><dc:format>image/svg+xml</dc:format><dc:type
         rdf:resource="http://purl.org/dc/dcmitype/StillImage" /><dc:title></dc:title></cc:Work></rdf:RDF></metadata><sodipodi:namedview
   pagecolor="#ffffff"
   bordercolor="#666666"
   borderopacity="1"
   objecttolerance="10"
   gridtolerance="10"
   guidetolerance="10"
   inkscape:pageopacity="0"
   inkscape:pageshadow="2"
   inkscape:window-width="2503"
   inkscape:window-height="1385"
   id="namedview61"
   showgrid="false"
   fit-margin-top="0"
   fit-margin-left="0"
   fit-margin-right="0"
   fit-margin-bottom="0"
   inkscape:zoom="3.0479854"
   inkscape:cx="87.126828"
   inkscape:cy="85.672686"
   inkscape:window-x="57"
   inkscape:window-y="27"
   inkscape:window-maximized="1"
   inkscape:current-layer="svg59" />
 <defs
   id="defs4">
  <style
   type="text/css"
   id="style2">
   <![CDATA[
    .fil0 {fill:none}
    .fil2 {fill:#785D92;fill-rule:nonzero}
    .fil3 {fill:#5D61A6;fill-rule:nonzero}
    .fil4 {fill:#229ECB;fill-rule:nonzero}
    .fil1 {fill:#3B448E;fill-rule:nonzero}
   ]]>
  </style>
 
  
  
  
 
   
   
   
   
   
   
   
   
   
   
   
   
   
   
   
   
   
   
   
   
   
  
    
    
    
   </defs>
 <g
   id="g946"
   transform="translate(-0.51589041,-11.893648)"><path
     style="fill:#3b448e;fill-rule:nonzero"
     inkscape:connector-curvature="0"
     id="path9"
     d="m 27.04,36.12 c -0.7,0 -1.27,-0.57 -1.27,-1.27 0,-0.34 0.13,-0.66 0.37,-0.9 0.24,-0.24 0.56,-0.37 0.9,-0.37 h 0.17 c 1.07,0 1.5,-0.21 1.68,-0.38 0.17,-0.17 0.38,-0.6 0.38,-1.68 V 21.4 c 0,-0.73 0.6,-1.33 1.33,-1.33 0.36,0 0.69,0.14 0.94,0.4 0.25,0.24 0.39,0.58 0.39,0.93 v 10.54 c 0,2.73 -1.61,4.18 -4.65,4.18 z"
     class="fil1" /><path
     style="fill:#3b448e;fill-rule:nonzero"
     inkscape:connector-curvature="0"
     id="path11"
     d="m 32.18,14.17 c -0.2,0 -0.36,0.17 -0.36,0.37 0.01,1.39 -0.15,2.09 -0.5,2.09 -0.45,0 -0.69,-0.52 -0.71,-1.57 0,-0.2 -0.17,-0.35 -0.36,-0.35 -0.2,0 -0.36,0.16 -0.36,0.35 0,1.4 -0.24,2.1 -0.72,2.1 -0.36,0 -0.52,-0.52 -0.5,-1.56 v -0.01 c 0,-0.19 -0.16,-0.35 -0.35,-0.35 -0.2,0 -0.36,0.16 -0.36,0.36 0,0.19 0,0.41 0.01,0.57 0.01,0.33 0.07,0.61 0.14,0.82 0.21,0.59 0.57,0.89 1.1,0.89 0.51,0 0.88,-0.38 1.12,-1.14 0.26,0.4 0.57,0.6 0.92,0.6 0.34,0 0.6,-0.13 0.78,-0.37 0.31,-0.59 0.5,-0.97 0.51,-2 v -0.43 c 0,-0.2 -0.16,-0.37 -0.36,-0.37 z"
     class="fil1" /><path
     style="fill:#3b448e;fill-rule:nonzero"
     inkscape:connector-curvature="0"
     id="path13"
     d="m 33.01,12.16 c -0.06,-0.2 -0.27,-0.31 -0.47,-0.25 l -4.33,1.23 C 28,13.2 27.89,13.42 27.96,13.62 l 0.01,0.02 c 0.06,0.19 0.26,0.3 0.46,0.24 l 4.32,-1.26 c 0.2,-0.05 0.31,-0.26 0.26,-0.46 z"
     class="fil1" /><path
     style="fill:#3b448e;fill-rule:nonzero"
     inkscape:connector-curvature="0"
     id="path15"
     d="m 49.75,16.97 c -0.48,0 -0.9,0.18 -1.25,0.53 -0.35,0.35 -0.52,0.76 -0.52,1.25 0,0.48 0.17,0.89 0.52,1.23 0.35,0.33 0.76,0.49 1.24,0.49 0.48,0 0.88,-0.16 1.22,-0.49 0.33,-0.34 0.49,-0.75 0.49,-1.23 0,-0.49 -0.16,-0.9 -0.48,-1.25 -0.33,-0.35 -0.73,-0.53 -1.22,-0.53 z"
     class="fil1" /><path
     style="fill:#3b448e;fill-rule:nonzero"
     inkscape:connector-curvature="0"
     id="path17"
     d="m 13.4,35.49 c -0.49,0 -0.91,0.17 -1.26,0.52 -0.34,0.35 -0.52,0.77 -0.52,1.25 0,0.49 0.18,0.9 0.52,1.23 0.35,0.33 0.76,0.5 1.24,0.5 0.48,0 0.89,-0.17 1.22,-0.5 0.33,-0.33 0.5,-0.74 0.5,-1.23 0,-0.48 -0.17,-0.9 -0.49,-1.25 -0.32,-0.35 -0.73,-0.52 -1.21,-0.52 z"
     class="fil1" /><path
     style="fill:#3b448e;fill-rule:nonzero"
     inkscape:connector-curvature="0"
     id="path19"
     d="m 54.33,16.97 c -0.48,0 -0.9,0.18 -1.25,0.53 -0.35,0.35 -0.52,0.76 -0.52,1.25 0,0.48 0.17,0.89 0.52,1.23 0.35,0.33 0.76,0.49 1.24,0.49 0.48,0 0.88,-0.16 1.21,-0.49 0.34,-0.34 0.5,-0.75 0.5,-1.23 0,-0.49 -0.16,-0.9 -0.48,-1.25 -0.33,-0.35 -0.73,-0.53 -1.22,-0.53 z"
     class="fil1" /><path
     class="fil1"
     d="M 44.82,31.78 H 38.4 c -0.72,0 -1.41,-0.28 -1.91,-0.79 -0.52,-0.51 -1.35,-0.5 -1.86,0.03 -0.49,0.51 -0.43,1.34 0.07,1.85 l 0.72,0.71 c 0.5,0.51 1.19,0.8 1.91,0.8 h 1.3 6.19 c 0.71,0 1.29,-0.58 1.29,-1.3 0,-0.72 -0.58,-1.3 -1.29,-1.3 z"
     id="path21"
     inkscape:connector-curvature="0"
     style="fill:#3b448e;fill-rule:nonzero" /><path
     class="fil1"
     d="m 38.56,21.89 c 0,0.62 0.42,1.16 1.03,1.28 1.23,0.26 2.41,0.97 3.59,2.09 1.67,1.58 2.16,4.11 2.49,5.45 0.49,2.01 1.09,2.71 2.34,3.39 0.86,0.31 1.84,0.26 2.98,0.26 1.33,-0.07 2.44,-0.57 3.43,-1.52 1.07,-1.03 1.61,-2.22 1.61,-3.59 v 0.01 -0.02 -6.43 c 0,-0.27 -0.08,-0.51 -0.22,-0.71 -0.04,-0.07 -0.09,-0.13 -0.15,-0.19 -0.25,-0.25 -0.59,-0.39 -0.98,-0.37 -0.68,0.04 -1.2,0.63 -1.2,1.31 v 6.31 c 0,0.81 -0.31,1.6 -0.91,2.15 -0.51,0.47 -1.12,0.7 -1.81,0.7 -0.73,0 -1.4,-0.24 -1.89,-0.8 -0.52,-0.6 -0.6,-0.85 -0.79,-1.53 l 0.01,0.03 C 47.61,27.18 46.5,25.02 44.78,23.23 43.35,21.8 41.86,20.92 40.11,20.61 39.3,20.46 38.56,21.07 38.56,21.89 Z"
     id="path23"
     inkscape:connector-curvature="0"
     style="fill:#3b448e;fill-rule:nonzero" /><path
     class="fil1"
     d="m 3.15,30.98 c 0.5,0.5 1.19,0.79 1.91,0.79 h 11.1 c 0,0 -0.35,0.02 2.64,0.02 1.31,0 2.36,-1.07 2.33,-2.38 l -0.12,-5.12 c 0,-0.7 0.57,-1.27 1.27,-1.27 0.35,0 0.67,0.14 0.9,0.37 0.06,0.06 0.11,0.12 0.16,0.19 0.14,0.2 0.22,0.45 0.22,0.71 v 4.95 0.02 -0.01 c -0.01,1.37 -0.54,2.56 -1.61,3.59 -0.99,0.95 -2.11,1.45 -3.44,1.52 H 3.99 c -0.72,0 -1.41,-0.29 -1.91,-0.79 L 1.36,32.85 C 0.86,32.35 0.8,31.52 1.29,31 1.8,30.47 2.63,30.46 3.15,30.98 Z"
     id="path25"
     inkscape:connector-curvature="0"
     style="fill:#3b448e;fill-rule:nonzero" /><path
     style="fill:#3b448e;fill-rule:nonzero"
     inkscape:connector-curvature="0"
     id="path29"
     d="M 5.84,19.11 8.67,16.28 6.84,14.44 c -0.78,-0.79 -2.06,-0.8 -2.85,-0.01 -0.78,0.78 -0.78,2.05 0,2.83 z"
     class="fil1" /><path
     style="fill:#785d92;fill-rule:nonzero"
     inkscape:connector-curvature="0"
     id="path31"
     d="M 12.38,19.23 9.55,16.4 11.51,14.41 c 0.79,-0.79 2.06,-0.79 2.85,0 0.78,0.78 0.78,2.04 0,2.83 z"
     class="fil2" /><polygon
     style="fill:#3b448e;fill-rule:nonzero"
     id="polygon33"
     points="9.22,28.1 12.06,25.26 9.27,22.44 6.43,25.28 6.44,25.28 "
     class="fil1" /><polygon
     style="fill:#5d61a6;fill-rule:nonzero"
     id="polygon35"
     points="9.06,16.67 6.23,19.5 9.16,22.44 12,19.6 "
     class="fil3" /><path
     style="fill:#229ecb;fill-rule:nonzero"
     inkscape:connector-curvature="0"
     id="path37"
     d="M 1.1,20.06 6.33,25.28 9.16,22.44 3.94,17.22 C 3.16,16.44 1.89,16.44 1.1,17.22 0.32,18 0.32,19.27 1.1,20.06 Z"
     class="fil4" /><polygon
     style="fill:#3b448e;fill-rule:nonzero"
     id="polygon39"
     points="9.22,28.1 6.38,25.26 9.16,22.44 12,25.28 "
     class="fil1" /><path
     style="fill:#5d61a6;fill-rule:nonzero"
     inkscape:connector-curvature="0"
     id="path41"
     d="M 17.22,20.06 12,25.28 9.16,22.44 14.38,17.22 c 0.79,-0.78 2.06,-0.78 2.84,0 0.78,0.78 0.78,2.05 0,2.84 z"
     class="fil3" /><path
     style="fill:#229ecb;fill-rule:nonzero"
     inkscape:connector-curvature="0"
     id="path43"
     d="m 11.12,41.44 c -1.07,0 -1.96,0.34 -2.65,1.03 -0.64,0.68 -0.96,1.53 -0.96,2.55 0,1.02 0.33,1.9 0.98,2.63 0.67,0.72 1.5,1.08 2.47,1.08 0.59,0 1.16,-0.16 1.69,-0.49 0.19,-0.13 0.31,-0.35 0.31,-0.59 v -0.06 c 0,-0.25 -0.13,-0.47 -0.34,-0.6 -0.22,-0.13 -0.49,-0.13 -0.72,0 -0.25,0.13 -0.52,0.2 -0.79,0.2 -0.58,0 -1.05,-0.2 -1.43,-0.61 -0.37,-0.41 -0.56,-0.9 -0.56,-1.5 0,-0.59 0.18,-1.06 0.56,-1.47 0.34,-0.42 0.79,-0.63 1.37,-0.63 0.59,0 1.06,0.15 1.41,0.45 0.4,0.3 0.59,0.71 0.59,1.24 v 3.12 c 0,0.22 0.09,0.43 0.24,0.57 0.15,0.16 0.35,0.24 0.57,0.24 0.45,0 0.81,-0.36 0.81,-0.81 v -3 c 0,-1.02 -0.33,-1.84 -0.98,-2.44 -0.64,-0.61 -1.51,-0.91 -2.57,-0.91 z"
     class="fil4" /><path
     style="fill:#229ecb;fill-rule:nonzero"
     inkscape:connector-curvature="0"
     id="path45"
     d="m 27.63,41.44 c -1.06,0 -1.95,0.34 -2.64,1.03 -0.64,0.68 -0.97,1.53 -0.97,2.55 0,1.02 0.34,1.9 0.99,2.63 0.67,0.72 1.5,1.08 2.47,1.08 0.59,0 1.16,-0.16 1.68,-0.49 0.2,-0.13 0.32,-0.35 0.32,-0.59 v -0.06 c 0,-0.25 -0.13,-0.47 -0.34,-0.6 -0.22,-0.13 -0.49,-0.13 -0.72,0 -0.25,0.13 -0.52,0.2 -0.8,0.2 -0.57,0 -1.04,-0.2 -1.42,-0.61 -0.38,-0.41 -0.56,-0.9 -0.56,-1.5 0,-0.59 0.18,-1.06 0.56,-1.47 0.34,-0.42 0.79,-0.63 1.37,-0.63 0.58,0 1.05,0.15 1.41,0.45 0.4,0.3 0.59,0.71 0.59,1.24 v 3.12 c 0,0.22 0.09,0.43 0.24,0.57 0.15,0.16 0.35,0.24 0.57,0.24 0.45,0 0.81,-0.36 0.81,-0.81 v -3 c 0,-1.02 -0.33,-1.84 -0.98,-2.44 -0.65,-0.61 -1.51,-0.91 -2.58,-0.91 z"
     class="fil4" /><path
     style="fill:#229ecb;fill-rule:nonzero"
     inkscape:connector-curvature="0"
     id="path47"
     d="m 21.99,38.13 c -0.22,0 -0.42,0.08 -0.57,0.23 -0.15,0.15 -0.24,0.36 -0.24,0.58 v 6.56 c 0,0.53 -0.19,0.94 -0.6,1.25 -0.34,0.29 -0.82,0.44 -1.4,0.44 -0.58,0 -1.03,-0.21 -1.38,-0.64 -0.37,-0.4 -0.55,-0.87 -0.55,-1.46 0,-0.6 0.18,-1.09 0.56,-1.5 0.38,-0.41 0.85,-0.61 1.43,-0.61 0.27,0 0.54,0.07 0.79,0.2 0.23,0.13 0.5,0.13 0.72,0 0.21,-0.12 0.34,-0.35 0.34,-0.59 v -0.07 c 0,-0.24 -0.12,-0.46 -0.32,-0.59 -0.52,-0.33 -1.09,-0.49 -1.68,-0.49 -0.97,0 -1.8,0.36 -2.47,1.08 -0.65,0.73 -0.98,1.62 -0.98,2.63 0,1.02 0.32,1.88 0.96,2.56 0.69,0.68 1.58,1.02 2.64,1.02 1.07,0 1.93,-0.3 2.58,-0.91 0.65,-0.6 0.98,-1.42 0.98,-2.44 v -6.44 c 0,-0.45 -0.36,-0.81 -0.81,-0.81 z"
     class="fil4" /><path
     style="fill:#229ecb;fill-rule:nonzero"
     inkscape:connector-curvature="0"
     id="path49"
     d="m 40.79,41.44 c -1.07,0 -1.96,0.34 -2.65,1.03 -0.64,0.68 -0.96,1.53 -0.96,2.55 0,1.02 0.33,1.9 0.98,2.63 0.67,0.72 1.5,1.08 2.48,1.08 0.58,0 1.15,-0.16 1.68,-0.49 0.19,-0.13 0.31,-0.35 0.31,-0.59 v -0.06 c 0,-0.25 -0.12,-0.47 -0.33,-0.6 -0.23,-0.13 -0.5,-0.13 -0.73,0 -0.25,0.13 -0.51,0.2 -0.79,0.2 -0.58,0 -1.05,-0.2 -1.43,-0.61 -0.37,-0.41 -0.55,-0.9 -0.55,-1.5 0,-0.59 0.17,-1.06 0.55,-1.47 0.34,-0.42 0.79,-0.63 1.37,-0.63 0.59,0 1.06,0.15 1.41,0.45 0.4,0.3 0.59,0.71 0.59,1.24 v 3.12 c 0,0.22 0.09,0.43 0.24,0.57 0.15,0.16 0.36,0.24 0.57,0.24 0.45,0 0.81,-0.36 0.81,-0.81 v -3 c 0,-1.02 -0.33,-1.84 -0.98,-2.44 -0.64,-0.61 -1.51,-0.91 -2.57,-0.91 z"
     class="fil4" /><path
     style="fill:#229ecb;fill-rule:nonzero"
     inkscape:connector-curvature="0"
     id="path51"
     d="m 51.49,42.52 c -0.67,-0.72 -1.5,-1.08 -2.48,-1.08 -0.58,0 -1.15,0.16 -1.68,0.49 -0.19,0.13 -0.31,0.35 -0.31,0.59 v 0.07 c 0,0.24 0.13,0.47 0.34,0.59 0.22,0.13 0.49,0.13 0.72,0 0.25,-0.13 0.52,-0.2 0.79,-0.2 0.58,0 1.05,0.2 1.43,0.61 0.37,0.41 0.56,0.9 0.56,1.5 0,0.59 -0.18,1.06 -0.56,1.47 -0.34,0.42 -0.79,0.63 -1.37,0.63 -0.59,0 -1.06,-0.15 -1.41,-0.45 -0.4,-0.3 -0.59,-0.71 -0.59,-1.24 v -6.56 c 0,-0.22 -0.09,-0.43 -0.24,-0.57 -0.15,-0.16 -0.35,-0.24 -0.57,-0.24 -0.45,0 -0.81,0.36 -0.81,0.81 v 6.44 c 0,1.02 0.33,1.84 0.98,2.44 0.64,0.61 1.51,0.91 2.57,0.91 1.07,0 1.96,-0.34 2.65,-1.03 0.64,-0.67 0.96,-1.53 0.96,-2.55 0,-1.01 -0.33,-1.9 -0.98,-2.63 z"
     class="fil4" /><path
     style="fill:#229ecb;fill-rule:nonzero"
     inkscape:connector-curvature="0"
     id="path53"
     d="M 9.29,39.82 C 9.44,39.67 9.53,39.46 9.53,39.24 9.53,38.8 9.17,38.43 8.72,38.43 H 1.76 c -0.44,0 -0.81,0.37 -0.81,0.81 0,0.45 0.37,0.81 0.81,0.81 h 2.67 v 7.96 c 0,0.44 0.36,0.8 0.81,0.8 0.45,0 0.81,-0.36 0.81,-0.8 v -7.96 h 2.67 c 0.22,0 0.42,-0.08 0.57,-0.23 z"
     class="fil4" /><path
     style="fill:#229ecb;fill-rule:nonzero"
     inkscape:connector-curvature="0"
     id="path55"
     d="m 35.77,41.35 h -0.15 c -1.89,0 -2.88,0.9 -2.88,2.59 v 4.04 c 0,0.21 0.08,0.42 0.23,0.57 0.15,0.15 0.36,0.24 0.58,0.24 0.44,0 0.81,-0.37 0.81,-0.81 v -3.77 c 0,-0.68 0.13,-0.96 0.24,-1.07 0.11,-0.11 0.39,-0.24 1.06,-0.24 h 0.11 c 0.21,0 0.4,-0.08 0.55,-0.23 0.14,-0.14 0.22,-0.34 0.22,-0.54 0,-0.43 -0.34,-0.78 -0.77,-0.78 z"
     class="fil4" /></g>
</svg>