<?xml version="1.0" encoding="utf-8"?>
<!-- Generator: Adobe Illustrator 24.1.3, SVG Export Plug-In . SVG Version: 6.00 Build 0)  -->
<svg version="1.1" id="Layer_1" xmlns="http://www.w3.org/2000/svg" xmlns:xlink="http://www.w3.org/1999/xlink" x="0px" y="0px"
	 viewBox="0 0 288.19 95.6" style="enable-background:new 0 0 288.19 95.6;" xml:space="preserve">
<style type="text/css">
	.st0{fill:#324D9C;}
	.st1{fill:#FFFFFF;}
	.st2{fill:#07B6CD;}
	.st3{fill:#0EB5C3;}
	.st4{fill:#253F91;}
	.st5{fill:#14B5C3;}
	.st6{fill:#FCBE34;}
	.st7{fill:#13AE8C;}
	.st8{fill:#EBEDF8;}
	.st9{fill:#324D9C;stroke:#FEFFFF;stroke-miterlimit:10;}
	.st10{opacity:0.5;}
	.st11{fill:none;stroke:#0EB5C3;stroke-miterlimit:10;}
</style>
<g>
	<path class="st1" d="M50.06,20.69l0,48.74c8.03-0.51,16.57-4.88,16.57-13.73V23.79C66.63,23.79,54.95,20.88,50.06,20.69z
		 M61.11,55.7c0,2.44-1.35,5.17-5.52,6.88V26.77c1.85,0.28,3.69,0.67,5.52,1.15V55.7z"/>
	<path class="st1" d="M34.86,55.7c0,2.44,1.35,5.17,5.52,6.88v-23.2h-2.76v-5.52h8.29v35.57c-8.03-0.51-16.57-4.88-16.57-13.73
		V23.79c0,0,11.69-2.91,16.57-3.09v5.54c-3.69,0.15-7.38,0.72-11.05,1.69V55.7z"/>
</g>
<g>
	<path class="st3" d="M103.1,41.96H98.2c-0.98-1.8-2.74-2.74-5-2.74c-3.81,0-6.46,2.71-6.46,6.95c0,4.33,2.68,7.01,6.65,7.01
		c3.29,0,5.4-1.89,6.04-4.91H92.1v-3.26h11.52v3.72c-0.85,4.33-4.73,8.29-10.4,8.29c-6.19,0-10.88-4.48-10.88-10.85
		c0-6.37,4.7-10.88,10.85-10.88C97.95,35.28,101.73,37.69,103.1,41.96z"/>
	<path class="st3" d="M116.67,57.05c-6.01,0-10.91-4.51-10.91-10.91c0-6.37,4.91-10.88,10.91-10.88c6.07,0,10.88,4.51,10.88,10.88
		C127.55,52.54,122.7,57.05,116.67,57.05z M116.67,53.24c3.84,0,6.49-2.77,6.49-7.1c0-4.33-2.65-7.04-6.49-7.04
		c-3.87,0-6.52,2.71-6.52,7.04C110.14,50.46,112.79,53.24,116.67,53.24z"/>
	<path class="st3" d="M148.92,35.52v21.31h-4.27l-9.66-14.6v14.6h-4.27V35.52h4.27l9.66,14.63V35.52H148.92z"/>
	<path class="st3" d="M160.47,57.05c-4.42,0-7.83-2.32-7.9-6.34h4.57c0.12,1.71,1.25,2.84,3.23,2.84c2.01,0,3.2-1.07,3.2-2.59
		c0-4.6-10.97-1.83-10.94-9.54c0-3.84,3.11-6.16,7.5-6.16c4.36,0,7.35,2.23,7.62,6.07h-4.69c-0.09-1.4-1.22-2.5-3.05-2.53
		c-1.68-0.06-2.93,0.76-2.93,2.5c0,4.27,10.91,1.89,10.91,9.39C168,54.03,165.32,57.05,160.47,57.05z"/>
	<path class="st3" d="M171.62,35.55h4.27v13.17c0,2.93,1.58,4.45,4.3,4.45c2.74,0,4.33-1.52,4.33-4.45V35.55h4.3v13.14
		c0,5.61-4.02,8.35-8.69,8.35c-4.67,0-8.51-2.74-8.51-8.35V35.55z"/>
	<path class="st3" d="M200.92,35.55c5.12,0,7.68,2.96,7.68,6.52c0,2.59-1.43,5.21-4.85,6.13l5.09,8.63h-4.94l-4.7-8.29h-2.01v8.29
		h-4.27V35.55H200.92z M200.77,39.09h-3.57v6.25h3.57c2.38,0,3.44-1.25,3.44-3.17C204.21,40.28,203.14,39.09,200.77,39.09z"/>
	<path class="st3" d="M224.82,39h-8.08v5.34h7.16v3.38h-7.16v5.64h8.08v3.48h-12.35V35.52h12.35V39z"/>
</g>
</svg>
