<?xml version="1.0" encoding="utf-8"?>
<!-- Generator: Adobe Illustrator 24.1.3, SVG Export Plug-In . SVG Version: 6.00 Build 0)  -->
<svg version="1.1" id="Layer_1" xmlns="http://www.w3.org/2000/svg" xmlns:xlink="http://www.w3.org/1999/xlink" x="0px" y="0px"
	 viewBox="0 0 180 180" style="enable-background:new 0 0 180 180;" xml:space="preserve">
<style type="text/css">
	.st0{fill:#324D9C;}
	.st1{fill:#FFFFFF;}
	.st2{fill:#07B6CD;}
	.st3{fill:#0EB5C3;}
	.st4{fill:#253F91;}
	.st5{fill:#14B5C3;}
	.st6{fill:#FCBE34;}
	.st7{fill:#13AE8C;}
	.st8{fill:#EBEDF8;}
	.st9{fill:#324D9C;stroke:#FEFFFF;stroke-miterlimit:10;}
	.st10{opacity:0.5;}
	.st11{fill:none;stroke:#0EB5C3;stroke-miterlimit:10;}
</style>
<g>
	<path class="st0" d="M164.41,180H15.59C6.98,180,0,173.02,0,164.41V15.59C0,6.98,6.98,0,15.59,0l148.81,0
		C173.02,0,180,6.98,180,15.59v148.81C180,173.02,173.02,180,164.41,180z"/>
	<g>
		<g>
			<path class="st3" d="M96.13,17.97l0,144.05c23.74-1.5,48.99-14.42,48.99-40.59V27.12C145.11,27.12,110.57,18.51,96.13,17.97z
				 M128.78,121.43c0,7.21-3.99,15.29-16.33,20.35V35.92c5.45,0.83,10.9,1.97,16.33,3.4V121.43z"/>
			<path class="st3" d="M51.22,121.43c0,7.21,3.99,15.28,16.33,20.35V73.21h-8.16V56.88h24.49v105.14
				c-23.73-1.49-48.99-14.42-48.99-40.59V27.12c0,0,34.54-8.61,48.99-9.14v16.36c-10.91,0.45-21.81,2.11-32.66,4.99V121.43z"/>
		</g>
	</g>
</g>
</svg>
