<svg xmlns="http://www.w3.org/2000/svg" xmlns:xlink="http://www.w3.org/1999/xlink" viewBox="0 0 105.65 126.04"><defs><style>.cls-1{fill:none;}.cls-2{clip-path:url(#clip-path);}.cls-3{fill:#65a8db;}.cls-4{fill:#64a7da;}.cls-5{fill:#63a7da;}.cls-6{fill:#62a6d9;}.cls-7{fill:#61a5d9;}.cls-8{fill:#60a4d8;}.cls-9{fill:#5fa4d8;}.cls-10{fill:#5ea3d7;}.cls-11{fill:#5da2d7;}.cls-12{fill:#5ca2d6;}.cls-13{fill:#5ba1d5;}.cls-14{fill:#5aa0d5;}.cls-15{fill:#59a0d4;}.cls-16{fill:#589fd4;}.cls-17{fill:#579ed3;}.cls-18{fill:#569dd3;}.cls-19{fill:#559dd2;}.cls-20{fill:#549cd2;}.cls-21{fill:#539bd1;}.cls-22{fill:#529bd0;}.cls-23{fill:#519ad0;}.cls-24{fill:#5099cf;}.cls-25{fill:#4f99cf;}.cls-26{fill:#4e98ce;}.cls-27{fill:#4d97ce;}.cls-28{fill:#4c96cd;}.cls-29{fill:#4b96cc;}.cls-30{fill:#4a95cc;}.cls-31{fill:#4994cb;}.cls-32{fill:#4894cb;}.cls-33{fill:#4793ca;}.cls-34{fill:#4692ca;}.cls-35{fill:#4592c9;}.cls-36{fill:#4491c9;}.cls-37{fill:#4390c8;}.cls-38{fill:#428fc7;}.cls-39{fill:#418fc7;}.cls-40{fill:#408ec6;}.cls-41{fill:#3f8dc6;}.cls-42{fill:#3d8dc5;}.cls-43{fill:#3c8cc5;}.cls-44{fill:#3b8bc4;}.cls-45{fill:#3a8bc4;}.cls-46{fill:#398ac3;}.cls-47{fill:#3889c2;}.cls-48{fill:#3788c2;}.cls-49{fill:#3688c1;}.cls-50{fill:#3587c1;}.cls-51{fill:#3486c0;}.cls-52{fill:#3386c0;}.cls-53{fill:#3285bf;}.cls-54{fill:#3184bf;}.cls-55{fill:#3084be;}.cls-56{fill:#2f83bd;}.cls-57{fill:#2e82bd;}.cls-58{fill:#2d81bc;}.cls-59{fill:#2c81bc;}.cls-60{fill:#2b80bb;}.cls-61{fill:#2a7fbb;}.cls-62{fill:#297fba;}.cls-63{fill:#287eb9;}.cls-64{fill:#277db9;}.cls-65{fill:#267db8;}.cls-66{fill:#257cb8;}.cls-67{fill:#247bb7;}.cls-68{fill:#237ab7;}.cls-69{fill:#227ab6;}.cls-70{fill:#2179b6;}.cls-71{fill:#2078b5;}.cls-72{fill:#1f78b4;}.cls-73{fill:#1e77b4;}.cls-74{fill:#1d76b3;}.cls-75{fill:#1c76b3;}.cls-76{fill:#1b75b2;}.cls-77{fill:#1a74b2;}.cls-78{fill:#1973b1;}.cls-79{fill:#1873b1;}.cls-80{fill:#1772b0;}.cls-81{opacity:0.5;}.cls-82{fill:#3d5791;}.cls-83{clip-path:url(#clip-path-2);}.cls-84{fill:#78b7e4;}.cls-85{fill:#77b6e4;}.cls-86{fill:#77b7e5;}.cls-87{fill:#76b9e7;}.cls-88{fill:#76bae8;}.cls-89{clip-path:url(#clip-path-3);}.cls-90{fill:#066fad;}.cls-91{fill:#056eac;}.cls-92{fill:#056dac;}.cls-93{fill:#046cab;}.cls-94{fill:#046baa;}.cls-95{fill:#036aa9;}.cls-96{fill:#0369a8;}.cls-97{fill:#0268a7;}.cls-98{fill:#0267a6;}.cls-99{fill:#148ec7;}.cls-100{fill:#148dc6;}.cls-101{fill:#138cc5;}.cls-102{fill:#138bc4;}.cls-103{fill:#128ac4;}.cls-104{fill:#1289c3;}.cls-105{fill:#1188c2;}.cls-106{fill:#1187c1;}.cls-107{fill:#1086c0;}.cls-108{fill:#1085bf;}.cls-109{fill:#0f84be;}.cls-110{fill:#0f83be;}.cls-111{fill:#0e82bd;}.cls-112{fill:#0e81bc;}.cls-113{fill:#0d80bb;}.cls-114{fill:#0d7fba;}.cls-115{fill:#0c7eb9;}.cls-116{fill:#0c7db8;}.cls-117{fill:#0b7cb8;}.cls-118{fill:#0b7bb7;}.cls-119{fill:#0a7ab6;}.cls-120{fill:#0a79b5;}.cls-121{fill:#0a77b4;}.cls-122{fill:#0976b3;}.cls-123{fill:#0975b2;}.cls-124{fill:#0874b2;}.cls-125{fill:#0873b1;}.cls-126{fill:#0772b0;}.cls-127{fill:#0771af;}.cls-128{fill:#0670ae;}.cls-129{fill:#0166a6;}.cls-130{fill:#0165a5;}.cls-131{fill:#0064a4;}.cls-132{fill:#0063a3;}.cls-133{fill:#3b3d41;}</style><clipPath id="clip-path"><path class="cls-1" d="M26.78,31.82A31.82,31.82,0,0,1,58.6,0H34.89L16.25,18.64V45L34.89,63.64H58.6A31.81,31.81,0,0,1,26.78,31.82Z"/></clipPath><clipPath id="clip-path-2"><path class="cls-1" d="M61.25,0H58.6a31.82,31.82,0,0,0,0,63.64h2.65Z"/></clipPath><clipPath id="clip-path-3"><path class="cls-1" d="M61.25,0h0V15H33.18v11H61.25V38.53H33.18v11H61.25V63.64h0L79.89,45V18.64ZM74.86,45.56h-8.6V18.3h8.6Z"/></clipPath></defs><g id="Layer_2" data-name="Layer 2"><g id="Layer_1-2" data-name="Layer 1"><g class="cls-2"><path class="cls-3" d="M16.25,0V0Z"/><rect class="cls-3" x="16.25" width="0.54" height="63.64"/><rect class="cls-4" x="16.79" width="0.54" height="63.64"/><rect class="cls-5" x="17.34" width="0.54" height="63.64"/><rect class="cls-6" x="17.88" width="0.54" height="63.64"/><rect class="cls-7" x="18.42" width="0.54" height="63.64"/><rect class="cls-8" x="18.96" width="0.54" height="63.64"/><rect class="cls-9" x="19.51" width="0.54" height="63.64"/><rect class="cls-10" x="20.05" width="0.54" height="63.64"/><rect class="cls-11" x="20.59" width="0.54" height="63.64"/><rect class="cls-12" x="21.14" width="0.54" height="63.64"/><rect class="cls-13" x="21.68" width="0.54" height="63.64"/><rect class="cls-14" x="22.22" width="0.54" height="63.64"/><rect class="cls-15" x="22.77" width="0.54" height="63.64"/><rect class="cls-16" x="23.31" width="0.54" height="63.64"/><rect class="cls-17" x="23.85" width="0.54" height="63.64"/><rect class="cls-18" x="24.39" width="0.54" height="63.64"/><rect class="cls-19" x="24.94" width="0.54" height="63.64"/><rect class="cls-20" x="25.48" width="0.54" height="63.64"/><rect class="cls-21" x="26.02" width="0.54" height="63.64"/><rect class="cls-22" x="26.57" width="0.54" height="63.64"/><rect class="cls-23" x="27.11" width="0.54" height="63.64"/><rect class="cls-24" x="27.65" width="0.54" height="63.64"/><rect class="cls-25" x="28.19" width="0.54" height="63.64"/><rect class="cls-26" x="28.74" width="0.54" height="63.64"/><rect class="cls-27" x="29.28" width="0.54" height="63.64"/><rect class="cls-28" x="29.82" width="0.54" height="63.64"/><rect class="cls-29" x="30.37" width="0.54" height="63.64"/><rect class="cls-30" x="30.91" width="0.54" height="63.64"/><rect class="cls-31" x="31.45" width="0.54" height="63.64"/><rect class="cls-32" x="31.99" width="0.54" height="63.64"/><rect class="cls-33" x="32.54" width="0.54" height="63.64"/><rect class="cls-34" x="33.08" width="0.54" height="63.64"/><rect class="cls-35" x="33.62" width="0.54" height="63.64"/><rect class="cls-36" x="34.17" width="0.54" height="63.64"/><rect class="cls-37" x="34.71" width="0.54" height="63.64"/><rect class="cls-38" x="35.25" width="0.54" height="63.64"/><rect class="cls-39" x="35.8" width="0.54" height="63.64"/><rect class="cls-40" x="36.34" width="0.54" height="63.64"/><rect class="cls-41" x="36.88" width="0.54" height="63.64"/><rect class="cls-42" x="37.42" width="0.54" height="63.64"/><rect class="cls-43" x="37.97" width="0.54" height="63.64"/><rect class="cls-44" x="38.51" width="0.54" height="63.64"/><rect class="cls-45" x="39.05" width="0.54" height="63.64"/><rect class="cls-46" x="39.6" width="0.54" height="63.64"/><rect class="cls-47" x="40.14" width="0.54" height="63.64"/><rect class="cls-48" x="40.68" width="0.54" height="63.64"/><rect class="cls-49" x="41.22" width="0.54" height="63.64"/><rect class="cls-50" x="41.77" width="0.54" height="63.64"/><rect class="cls-51" x="42.31" width="0.54" height="63.64"/><rect class="cls-52" x="42.85" width="0.54" height="63.64"/><rect class="cls-53" x="43.4" width="0.54" height="63.64"/><rect class="cls-54" x="43.94" width="0.54" height="63.64"/><rect class="cls-55" x="44.48" width="0.54" height="63.64"/><rect class="cls-56" x="45.02" width="0.54" height="63.64"/><rect class="cls-57" x="45.57" width="0.54" height="63.64"/><rect class="cls-58" x="46.11" width="0.54" height="63.64"/><rect class="cls-59" x="46.65" width="0.54" height="63.64"/><rect class="cls-60" x="47.2" width="0.54" height="63.64"/><rect class="cls-61" x="47.74" width="0.54" height="63.64"/><rect class="cls-62" x="48.28" width="0.54" height="63.64"/><rect class="cls-63" x="48.83" width="0.54" height="63.64"/><rect class="cls-64" x="49.37" width="0.54" height="63.64"/><rect class="cls-65" x="49.91" width="0.54" height="63.64"/><rect class="cls-66" x="50.45" width="0.54" height="63.64"/><rect class="cls-67" x="51" width="0.54" height="63.64"/><rect class="cls-68" x="51.54" width="0.54" height="63.64"/><rect class="cls-69" x="52.08" width="0.54" height="63.64"/><rect class="cls-70" x="52.63" width="0.54" height="63.64"/><rect class="cls-71" x="53.17" width="0.54" height="63.64"/><rect class="cls-72" x="53.71" width="0.54" height="63.64"/><rect class="cls-73" x="54.25" width="0.54" height="63.64"/><rect class="cls-74" x="54.8" width="0.54" height="63.64"/><rect class="cls-75" x="55.34" width="0.54" height="63.64"/><rect class="cls-76" x="55.88" width="0.54" height="63.64"/><rect class="cls-77" x="56.43" width="0.54" height="63.64"/><rect class="cls-78" x="56.97" width="0.54" height="63.64"/><rect class="cls-79" x="57.51" width="0.54" height="63.64"/><rect class="cls-80" x="58.05" width="0.54" height="63.64"/><path class="cls-80" d="M58.6,63.64v0Z"/></g><g class="cls-81"><path class="cls-82" d="M61.37.13C60.46.05,59.53,0,58.6,0a31.82,31.82,0,0,0,0,63.64c.93,0,1.86,0,2.77-.12Z"/></g><g class="cls-83"><path class="cls-84" d="M26.78,0V0Z"/><rect class="cls-84" x="26.78" width="0.51" height="63.64"/><rect class="cls-85" x="27.29" width="0.51" height="63.64"/><rect class="cls-85" x="27.8" width="8.36" height="63.64"/><rect class="cls-86" x="36.16" width="8.36" height="63.64"/><rect class="cls-87" x="44.52" width="8.36" height="63.64"/><rect class="cls-88" x="52.88" width="8.36" height="63.64"/><rect class="cls-88" x="61.24" width="0.01" height="63.64"/></g><g class="cls-89"><rect class="cls-90" x="66.26" y="18.3" width="0.61" height="27.26"/><rect class="cls-91" x="66.87" y="18.3" width="1.09" height="27.26"/><rect class="cls-92" x="67.95" y="18.3" width="1.09" height="27.26"/><rect class="cls-93" x="69.04" y="18.3" width="1.09" height="27.26"/><rect class="cls-94" x="70.12" y="18.3" width="1.09" height="27.26"/><rect class="cls-95" x="71.21" y="18.3" width="1.09" height="27.26"/><rect class="cls-96" x="72.29" y="18.3" width="1.09" height="27.26"/><rect class="cls-97" x="73.38" y="18.3" width="1.09" height="27.26"/><rect class="cls-98" x="74.47" y="18.3" width="0.39" height="27.26"/><rect class="cls-99" x="33.18" width="0.03" height="63.64"/><rect class="cls-99" x="33.21" width="1.09" height="63.64"/><rect class="cls-100" x="34.29" width="1.09" height="63.64"/><rect class="cls-101" x="35.38" width="1.09" height="63.64"/><rect class="cls-102" x="36.46" width="1.09" height="63.64"/><rect class="cls-103" x="37.55" width="1.09" height="63.64"/><rect class="cls-104" x="38.64" width="1.09" height="63.64"/><rect class="cls-105" x="39.72" width="1.09" height="63.64"/><rect class="cls-106" x="40.81" width="1.09" height="63.64"/><rect class="cls-107" x="41.89" width="1.09" height="63.64"/><rect class="cls-108" x="42.98" width="1.09" height="63.64"/><rect class="cls-109" x="44.07" width="1.09" height="63.64"/><rect class="cls-110" x="45.15" width="1.09" height="63.64"/><rect class="cls-111" x="46.24" width="1.09" height="63.64"/><rect class="cls-112" x="47.32" width="1.09" height="63.64"/><rect class="cls-113" x="48.41" width="1.09" height="63.64"/><rect class="cls-114" x="49.49" width="1.09" height="63.64"/><rect class="cls-115" x="50.58" width="1.09" height="63.64"/><rect class="cls-116" x="51.67" width="1.09" height="63.64"/><rect class="cls-117" x="52.75" width="1.09" height="63.64"/><rect class="cls-118" x="53.84" width="1.09" height="63.64"/><rect class="cls-119" x="54.92" width="1.09" height="63.64"/><rect class="cls-120" x="56.01" width="1.09" height="63.64"/><rect class="cls-121" x="57.09" width="1.09" height="63.64"/><rect class="cls-122" x="58.18" width="1.09" height="63.64"/><rect class="cls-123" x="59.27" width="1.09" height="63.64"/><rect class="cls-124" x="60.35" width="1.09" height="63.64"/><rect class="cls-125" x="61.44" width="1.09" height="63.64"/><rect class="cls-126" x="62.52" width="1.09" height="63.64"/><rect class="cls-127" x="63.61" width="1.09" height="63.64"/><rect class="cls-128" x="64.69" width="1.09" height="63.64"/><rect class="cls-90" x="65.78" width="1.09" height="63.64"/><rect class="cls-91" x="66.87" width="1.09" height="63.64"/><rect class="cls-92" x="67.95" width="1.09" height="63.64"/><rect class="cls-93" x="69.04" width="1.09" height="63.64"/><rect class="cls-94" x="70.12" width="1.09" height="63.64"/><rect class="cls-95" x="71.21" width="1.09" height="63.64"/><rect class="cls-96" x="72.29" width="1.09" height="63.64"/><rect class="cls-97" x="73.38" width="1.09" height="63.64"/><rect class="cls-98" x="74.47" width="1.09" height="63.64"/><rect class="cls-129" x="75.55" width="1.09" height="63.64"/><rect class="cls-130" x="76.64" width="1.09" height="63.64"/><rect class="cls-131" x="77.72" width="1.09" height="63.64"/><rect class="cls-132" x="78.81" width="1.09" height="63.64"/><path class="cls-132" d="M79.89,63.64v0Z"/></g><path class="cls-133" d="M14.18,98.87H.29v-2.3H11.87a14,14,0,0,0-1.54-7A6.81,6.81,0,0,0,4.54,86.1H3.7V83.94q6.66,0,9,5.51Q14.18,92.71,14.18,98.87Z"/><path class="cls-133" d="M27.51,98.87H25a3.85,3.85,0,0,1-2.85-1.23,5.44,5.44,0,0,1-1.34-4v-16H23.1V92.31a6.35,6.35,0,0,0,.63,3.24,2.35,2.35,0,0,0,1.78,1,2.91,2.91,0,0,0,.5,0h1.5Z"/><path class="cls-133" d="M33.68,98.87h-6.6v-2.3h6.6Z"/><path class="cls-133" d="M39.88,98.87H33.27v-2.3h6.61Z"/><path class="cls-133" d="M46.07,98.87h-6.6v-2.3h6.6Z"/><path class="cls-133" d="M70.48,98.87H45.35v-2.3h19c0-.22,0-.43.05-.62s0-.39,0-.56c0-2.8-.66-5-2-6.46a7.19,7.19,0,0,0-5.69-2.27,6.31,6.31,0,0,0-5.89,3.25c-.17-.17-.41-.43-.72-.77s-.71-.76-1.19-1.26a9.15,9.15,0,0,1,7.76-3.51,11,11,0,0,1,4.24.78,9.45,9.45,0,0,1,3.26,2.24,9.91,9.91,0,0,1,2.1,3.52A13.82,13.82,0,0,1,67,95.55v1h3.44Z"/><path class="cls-133" d="M77.31,83.94v9.12c0,3.87-1.54,5.81-4.6,5.81H70v-2.3h2a2.65,2.65,0,0,0,2.66-1.38A7.42,7.42,0,0,0,75.12,92v-8.1Zm-4.13-2.33H71V78.82h2.2Zm4.13,0H75.08V78.82h2.23Z"/><path class="cls-133" d="M96.68,77.61V93.06q0,5.81-4.6,5.81H83v-2.3h5.11l-4-16.44h2.38l3.94,16.44h.94A2.69,2.69,0,0,0,94,95.19,7.42,7.42,0,0,0,94.49,92V77.61Z"/><path class="cls-133" d="M105.32,98.87h-2.19V77.64h2.19Z"/><path class="cls-133" d="M3.42,119.57l-1.5,6.29H0l4.9-20H7.14l4.92,20h-2l-1.54-6.29Zm4.73-2-1.42-5.77c-.32-1.3-.53-2.49-.74-3.65h0c-.21,1.19-.45,2.41-.72,3.62l-1.41,5.8Z"/><path class="cls-133" d="M15.46,105.84h1.86V123.7h6.16v2.16h-8Z"/><path class="cls-133" d="M30.23,116.86v1.93H25v-1.93Z"/><path class="cls-133" d="M41.25,116.48H35.64v7.22h6.25v2.16H33.78v-20h7.79V108H35.64v6.33h5.61Z"/><path class="cls-133" d="M48.67,108H44.28v-2.2H55V108h-4.4v17.82H48.67Z"/><path class="cls-133" d="M59.7,105.84v20H57.84v-20Z"/><path class="cls-133" d="M66.09,105.84v8.38h7v-8.38h1.88v20H73.06v-9.38h-7v9.38H64.23v-20Z"/><path class="cls-133" d="M81.79,119.57l-1.5,6.29H78.37l4.89-20h2.25l4.92,20h-2l-1.54-6.29Zm4.72-2-1.41-5.77c-.32-1.3-.53-2.49-.75-3.65h0c-.21,1.19-.45,2.41-.73,3.62l-1.41,5.8Z"/><path class="cls-133" d="M93.83,106.11a19.14,19.14,0,0,1,4-.42,6.9,6.9,0,0,1,5.84,2.5c1.28,1.63,2,4,2,7.19a13.19,13.19,0,0,1-2.07,7.78A7.51,7.51,0,0,1,97.2,126a21.43,21.43,0,0,1-3.37-.24Zm1.86,17.7a8.39,8.39,0,0,0,1.88.15c4,0,6.13-3.09,6.13-8.49,0-4.73-1.9-7.73-5.83-7.73a7.59,7.59,0,0,0-2.18.27Z"/></g></g></svg>