<svg xmlns="http://www.w3.org/2000/svg" viewBox="0 0 219.73 139.23"><defs><style>.cls-1{fill:#3d6eb5;}.cls-2{fill:#3d190a;}</style></defs><g id="Layer_2" data-name="Layer 2"><g id="Layer_1-2" data-name="Layer 1"><g id="path4582"><path class="cls-1" d="M96.42,71.6c-1.66-.45-21.34-6.18-26.06-32.1,0,0-2.4-12,3.44-22.46,0,0-12.57,17.47.08,38.66A37.2,37.2,0,0,0,95.32,71.32l1.1.28m.12,0-.12,0Zm32.21-8.54S112.21,76.63,93.28,52.78a43.34,43.34,0,0,1-7.42-38.21S89.83,1.35,103.21,0c0,0-24.52.07-28.35,21.59,0,0-7,32.24,22.22,47.79a18.54,18.54,0,0,0,4.29,1.69c5.57,1.51,15.94,2.14,27.38-8m.1-.33a13.67,13.67,0,0,0,2.29-1.16s13.3-8.44,9.11-31.47a32.56,32.56,0,0,0-2.2-7c-.55-1.13-1-2.34-1.56-3.29C132.78,13.27,123.8,1.11,109.11.38a19.27,19.27,0,0,0-6,1l-.13,0c-12.19,5.22-16.35,23.1-9.26,40,4.8,11.45,13.56,19.55,22.55,22a19.19,19.19,0,0,0,12.62-.65m8.53-39.25c6.27,14.94,3.14,30.46-7,34.7S107,53.81,100.72,38.89s-3.13-30.43,7-34.65a14.93,14.93,0,0,1,9.91-.49c7.71,2.09,15.43,9.42,19.74,19.76"/></g><g id="path4590"><path class="cls-2" d="M126,48.16l-12.63,4.09V14.71L126,10.63Z"/></g><g id="path4488"><path class="cls-1" d="M13.79,107.11h2.42v2.55H13.66c-.49,3.75-2.7,5.64-6.79,5.64-3.93,0-6.48-2.06-6.48-7A17,17,0,0,1,1,103.94l3.33-.61A17.81,17.81,0,0,0,3.63,108c0,3.75,1.76,4.73,3.48,4.73,2.13,0,3.43-1.13,3.43-4.66v-10h3.25Zm-8.62-7.6a1.7,1.7,0,1,1,3.39,0,1.7,1.7,0,0,1-3.39,0Z"/></g><g id="path4491"><path class="cls-1" d="M15.84,107.11h2.92v2.55H15.84Z"/></g><g id="path4494"><path class="cls-1" d="M24.65,115A1.62,1.62,0,0,1,23,113.34,1.62,1.62,0,1,1,24.65,115Zm-4.08,0A1.62,1.62,0,0,1,19,113.34,1.63,1.63,0,1,1,20.57,115Zm-2.08-7.89H23.1v-9h3.24v11.53H18.49Z"/></g><g id="path4497"><path class="cls-1" d="M26.46,115.64l.27-2.57a6.74,6.74,0,0,0,2,.29c1.64,0,2.62-.78,2.62-3.43V98.13h3.24v11.63c0,3.13-1,6.13-6.06,6.13A8.67,8.67,0,0,1,26.46,115.64Z"/></g><g id="path4500"><path class="cls-1" d="M38.48,92.37h3.24v14.74h2.45v2.55H38.48Z"/></g><g id="path4503"><path class="cls-1" d="M52.46,109.66c-2.9,0-4.31-.69-5.05-1.89a3.36,3.36,0,0,1-3.24,1.89H43.8v-2.55h.49c1.18,0,1.84-.72,1.84-3,0-3.51,2.13-6.35,6.25-6.35,3.95,0,5.67,2.26,5.67,5.84v6ZM54.89,104c0-2.58-.94-3.66-2.72-3.66s-2.85,1.43-2.85,3.51.93,3.24,3.46,3.24h2.11Z"/></g><g id="path4509"><path class="cls-1" d="M66.88,115.52l.2-2.65a20.4,20.4,0,0,0,3.82.42c2.55,0,4.25-1,4.25-3.26v-.37H73.24c-4.79,0-6.58-2.21-6.58-5.69,0-3.22,2-6.16,6.5-6.16a15.74,15.74,0,0,1,5.13.86v8.44h2.43v2.55H78.29v0c0,3.39-2.19,6.14-7.68,6.14A25.74,25.74,0,0,1,66.88,115.52Zm8.27-14.72a6,6,0,0,0-2.34-.44c-1.83,0-2.91,1.4-2.91,3.31,0,2.24,1.1,3.44,3.68,3.44h1.57Z"/></g><g id="path4491-2" data-name="path4491"><path class="cls-1" d="M80.32,107.11h2.92v2.55H80.32Z"/></g><g id="path4512"><path class="cls-1" d="M83,107.11h4.61v-9h3.24v9h2.43v2.55H83ZM85.05,115a1.62,1.62,0,0,1-1.61-1.66A1.63,1.63,0,1,1,85.05,115Zm4.08,0a1.62,1.62,0,0,1-1.62-1.66A1.62,1.62,0,1,1,89.13,115Z"/></g><g id="path4491-3" data-name="path4491"><path class="cls-1" d="M92.85,107.11h2.92v2.55H92.85Z"/></g><g id="path4515"><path class="cls-1" d="M95.5,107.11h7.29c-.15-3.81-2.11-6-6-6.92V97.81l9.71-6.08v3.21l-6,3.6C103.79,100,106,102.69,106,108v1.64H95.5Z"/></g><g id="path4509-2" data-name="path4509"><path class="cls-1" d="M108.7,115.52l.2-2.65a20.4,20.4,0,0,0,3.82.42c2.55,0,4.24-1,4.24-3.26v-.37h-1.91c-4.78,0-6.58-2.21-6.58-5.69,0-3.22,2-6.16,6.5-6.16a15.74,15.74,0,0,1,5.13.86v8.44h2.43v2.55H120.1v0c0,3.39-2.18,6.14-7.68,6.14A25.51,25.51,0,0,1,108.7,115.52ZM117,100.8a5.92,5.92,0,0,0-2.33-.44c-1.84,0-2.91,1.4-2.91,3.31,0,2.24,1.1,3.44,3.67,3.44H117Z"/></g><g id="path4518"><path class="cls-1" d="M122.14,107.11h3V92.37h3.24v6.37a24.28,24.28,0,0,1-.27,3.63h0a6.93,6.93,0,0,1,6.3-4.56c3.39,0,5,2.26,5,5.94a46.1,46.1,0,0,1-.35,5.91H122.14Zm13.83,0c.08-1,.12-2.11.12-3,0-2.3-.58-3.7-2.33-3.7-2.62,0-4.81,3.26-5.42,6.7Z"/></g><g id="path4521"><path class="cls-2" d="M148,107.13a14,14,0,0,1,2.26.15,1.8,1.8,0,0,1-.87-1.67c0-2.06,1.48-4.09,5.33-4.09a14.83,14.83,0,0,1,2.21.17l-.4,2.55a10.43,10.43,0,0,0-2-.2c-1.27,0-1.93.61-1.93,1.45s.73,1.64,2.79,1.64h2.18v2.53H148Z"/></g><g id="path4500-2" data-name="path4500"><path class="cls-2" d="M161.11,92.37h3.23v14.74h2.46v2.55h-5.69Z"/></g><g id="path4491-4" data-name="path4491"><path class="cls-2" d="M166.43,107.11h2.92v2.55h-2.92Z"/></g><g id="path4524"><path class="cls-2" d="M172.69,107.77a3.36,3.36,0,0,1-3.24,1.89h-.37v-2.55h.49c1.18,0,1.84-.72,1.84-3,0-3.51,2.13-6.35,6.25-6.35,4,0,5.67,2.26,5.67,5.84v3.46h2.08v2.55h-7.67C174.84,109.66,173.42,109,172.69,107.77Zm7.48-3.75c0-2.58-.94-3.66-2.73-3.66s-2.84,1.43-2.84,3.51.93,3.24,3.46,3.24h2.11Z"/></g><g id="path4491-5" data-name="path4491"><path class="cls-2" d="M185,107.11h2.92v2.55H185Z"/></g><g id="path4527"><path class="cls-2" d="M187.67,107.11h3.43v-9h3.24v11.53h-6.67ZM191,94.38a1.69,1.69,0,1,1,1.7,1.69A1.7,1.7,0,0,1,191,94.38Z"/></g><g id="path4530"><path class="cls-2" d="M203.71,105.27h-3.29l-3.5-12.63,3.21-.44Zm-5.79,4.39v-2.55h7.58V92.37h3.24v17.29Zm.25,4.78a5.38,5.38,0,0,1,1.2.1,1.11,1.11,0,0,1-.32-.81c0-1.32,1-2.53,3.41-2.53a7.28,7.28,0,0,1,1.45.13l-.3,1.76a8.07,8.07,0,0,0-1.17-.12c-.69,0-1.08.29-1.08.71s.41.76,1.54.76h1.45v1.79h-6.18Z"/></g><g id="path4533"><path class="cls-2" d="M212.88,92.37h3.24v17.29h-3.24Z"/></g><g id="path4536"><path class="cls-2" d="M11.77,139l-1.12-3.38H4.36L3.21,139H0l5.72-16.56H9.47L15.31,139ZM8.14,128.15c-.27-.81-.49-1.55-.66-2.28h0c-.2.73-.4,1.47-.64,2.28l-1.7,4.93H9.84Z"/></g><g id="path4539"><path class="cls-2" d="M17,139v-17.9h3.14V139Z"/></g><g id="path4542"><path class="cls-2" d="M25.11,125a1.9,1.9,0,1,1,0-3.79,1.9,1.9,0,1,1,0,3.79Zm-1.57,14V126.8h3.14V139Z"/></g><g id="path4545"><path class="cls-2" d="M37.55,139v-7.8c0-1.25-.34-2-1.52-2-1.57,0-2.82,1.79-2.82,3.92V139H30.07V126.8h3a13,13,0,0,1-.18,2.18h0A4.48,4.48,0,0,1,37,126.55c2.74,0,3.62,1.75,3.62,3.88V139Z"/></g><g id="path4548"><path class="cls-2" d="M58.79,139v-7.7c0-1.3-.29-2.11-1.45-2.11-1.37,0-2.79,1.59-2.79,4V139H51.46v-7.73c0-1.2-.25-2.08-1.45-2.08-1.45,0-2.8,1.69-2.8,4V139H44.07V126.8h3a17.37,17.37,0,0,1-.15,2.18l0,0a4.38,4.38,0,0,1,4-2.46A3.13,3.13,0,0,1,54.3,129a4.33,4.33,0,0,1,4-2.43c2.36,0,3.66,1.31,3.66,4V139Z"/></g><g id="path4551"><path class="cls-2" d="M71.84,139a13.67,13.67,0,0,1,.12-2.06l0,0a4.13,4.13,0,0,1-3.9,2.32,3.28,3.28,0,0,1-3.48-3.48c0-2.89,2.77-4.24,7-4.24v-.44c0-1.47-.56-2.14-2.18-2.14a10.35,10.35,0,0,0-3.68.84l-.52-2.41a13.25,13.25,0,0,1,4.61-.83c3.78,0,4.91,1.57,4.91,4.29v5c0,1,0,2.13.1,3.14Zm-.25-5.42c-3.17,0-4,.79-4,1.84A1.38,1.38,0,0,0,69,136.83a2.79,2.79,0,0,0,2.55-2.94Z"/></g><g id="path4554"><path class="cls-1" d="M89.62,125.15V139H86.43V125.15H82.14v-2.72H93.91v2.72Z"/></g><g id="path4557"><path class="cls-1" d="M98.42,139.23c-3.46,0-5.71-1.78-5.71-6.13,0-3.8,2.52-6.55,6.23-6.55,3.48,0,5.71,1.92,5.71,6.11C104.65,136.49,102.05,139.23,98.42,139.23Zm.29-10c-1.39,0-2.77,1.08-2.77,3.59s.93,3.77,2.73,3.77c1.54,0,2.75-1.25,2.75-3.73S100.56,129.2,98.71,129.2Z"/></g><g id="path4560"><path class="cls-1" d="M114.07,139l-3.78-6v6h-3.14v-17.9h3.14v10.79l3.56-5.08h3.82l-4.26,5.57L118,139Z"/></g><g id="path4542-2" data-name="path4542"><path class="cls-1" d="M121.55,125a1.9,1.9,0,1,1,0-3.79,1.9,1.9,0,1,1,0,3.79ZM120,139V126.8h3.14V139Z"/></g><g id="path4557-2" data-name="path4557"><path class="cls-1" d="M131.34,139.23c-3.46,0-5.72-1.78-5.72-6.13,0-3.8,2.53-6.55,6.23-6.55,3.48,0,5.72,1.92,5.72,6.11C137.57,136.49,135,139.23,131.34,139.23Zm.29-10c-1.4,0-2.77,1.08-2.77,3.59s.93,3.77,2.72,3.77c1.54,0,2.75-1.25,2.75-3.73S133.47,129.2,131.63,129.2Z"/></g><g id="path4563"><path class="cls-1" d="M161.9,139l-1.21-8c-.22-1.49-.39-3-.51-4.14h-.05c-.22,1.05-.52,2.42-.93,3.78L156.53,139h-3.1l-2.55-7.78a40.15,40.15,0,0,1-1.08-4.36h0c-.13,1.47-.27,3-.45,4.41l-.95,7.73h-3.22l2.53-16.56h3.75l2.8,8.56c.27.89.66,2.33.91,3.49h0c.3-1.25.62-2.5.91-3.44l2.83-8.61h3.72L165.21,139Z"/></g><g id="path4551-2" data-name="path4551"><path class="cls-1" d="M174.18,139a15.12,15.12,0,0,1,.12-2.06l0,0a4.14,4.14,0,0,1-3.9,2.32,3.27,3.27,0,0,1-3.48-3.48c0-2.89,2.77-4.24,7-4.24v-.44c0-1.47-.57-2.14-2.19-2.14a10.4,10.4,0,0,0-3.68.84l-.51-2.41a13.25,13.25,0,0,1,4.61-.83c3.78,0,4.91,1.57,4.91,4.29v5c0,1,0,2.13.09,3.14Zm-.24-5.42c-3.17,0-4,.79-4,1.84a1.39,1.39,0,0,0,1.47,1.42,2.79,2.79,0,0,0,2.56-2.94Z"/></g><g id="path4566"><path class="cls-1" d="M187,129.45c-2.26-.44-3.39,1-3.39,4.39v5h-3.14V126.63h3a15.94,15.94,0,0,1-.23,2.45h.06a3.65,3.65,0,0,1,3.87-2.7Z"/></g><g id="path4542-3" data-name="path4542"><path class="cls-1" d="M190.79,125a1.9,1.9,0,1,1,0-3.79,1.9,1.9,0,1,1,0,3.79Zm-1.57,14V126.8h3.14V139Z"/></g><g id="path4545-2" data-name="path4545"><path class="cls-1" d="M203.22,139v-7.8c0-1.25-.34-2-1.52-2-1.57,0-2.82,1.79-2.82,3.92V139h-3.14V126.8h3a14.06,14.06,0,0,1-.17,2.18h0a4.48,4.48,0,0,1,4.15-2.43c2.74,0,3.62,1.75,3.62,3.88V139Z"/></g><g id="path4569"><path class="cls-1" d="M219.61,133.49h-7.54c0,2.16,1,3.29,3.36,3.29a9.51,9.51,0,0,0,3.54-.71l.34,2.38a13.16,13.16,0,0,1-4.42.78c-3.85,0-6-1.93-6-6.22,0-3.66,2.15-6.46,5.79-6.46s5,2.29,5,5.18A12.2,12.2,0,0,1,219.61,133.49Zm-5.11-4.63c-1.3,0-2.23,1-2.4,2.55h4.51C216.66,129.74,215.83,128.86,214.5,128.86Z"/></g></g></g></svg>