<svg xmlns="http://www.w3.org/2000/svg" viewBox="0 0 146.08 127.48"><defs><style>.cls-1{fill:#2893cf;}.cls-2{fill:#233d78;}</style></defs><g id="Layer_2" data-name="Layer 2"><g id="Layer_1-2" data-name="Layer 1"><path class="cls-1" d="M52.65,47.92,41.47,28.56,52.65,9.19H75l4.55,7.88.74.43h8.63a.86.86,0,0,0,.75-1.29L82.56,3.89A7.79,7.79,0,0,0,75.82,0h-24A7.8,7.8,0,0,0,45.1,3.89l-12,20.78a7.83,7.83,0,0,0,0,7.78l12,20.77a7.8,7.8,0,0,0,6.74,3.89H65a.86.86,0,0,0,.75-1.29l-4.32-7.47-.74-.43Z"/><path class="cls-2" d="M97,9.19l11.19,19.37L97,47.92H74.66L70.11,40l-.74-.42H60.74A.85.85,0,0,0,60,40.9l7.11,12.32a7.82,7.82,0,0,0,6.74,3.9h24a7.82,7.82,0,0,0,6.74-3.9l12-20.77a7.78,7.78,0,0,0,0-7.78l-12-20.78A7.81,7.81,0,0,0,97.84,0H84.64a.86.86,0,0,0-.74,1.29l4.31,7.47.74.43Z"/><polygon class="cls-1" points="99.12 105.33 99.12 122.56 101.64 122.56 101.64 115.84 106.37 122.79 108.85 121.85 104.47 115.94 107.8 111.74 105.56 110.62 101.64 115.79 101.64 105.33 99.12 105.33"/><polygon class="cls-1" points="82.99 122.56 80.19 122.56 80.19 107.6 74.44 107.6 74.44 105.32 88.63 105.32 88.63 107.6 82.99 107.6 82.99 122.56"/><path class="cls-1" d="M125.66,122.56H123v-9.89h-1.77v-2.22H123v-.23a5,5,0,0,1,1.22-3.76,4.45,4.45,0,0,1,3.12-1.14c.46,0,2,.22,2,.22v2.13s-1.33-.16-1.67-.16a2.66,2.66,0,0,0-1.49.42c-.25.17-.55.65-.55,1.93v.59h3.55v2.22h-3.55v9.89Z"/><rect class="cls-1" x="16.26" y="105.32" width="2.55" height="17.24"/><path class="cls-1" d="M6.34,106.18,0,122.57H2.41L4.05,118h6.12l1.49,4.6h3L8.78,106.18Zm.89,2.9,2.4,7.27h-5Z"/><rect class="cls-1" x="66.58" y="110.99" width="2.55" height="11.58"/><rect class="cls-1" x="66.58" y="106.81" width="2.55" height="2.25"/><rect class="cls-1" x="48.38" y="106.81" width="2.55" height="2.25"/><path class="cls-1" d="M53.5,105.32v17.24h2.55v-6.94c0-2,1.12-3.23,2.84-3.23s2.56,1.06,2.56,3v7.14H64V115c0-2.89-1.31-4.35-3.88-4.35a5,5,0,0,0-3.74,1.64l-.36.41v-7.42Z"/><path class="cls-1" d="M141.27,122.56V111h-2.55v7c0,1.94-1.13,3.22-2.85,3.22s-2.56-1.07-2.56-3V111h-2.55v7.54c0,2.9,1.31,4.35,3.88,4.35a4.85,4.85,0,0,0,3.73-1.64l.37-.4v1.69Z"/><path class="cls-1" d="M24.54,106.18v16.38h2.55v-6.9h2.14l3.34,7.19c.25-.06,2.48-.49,2.93-.57-.26-.51-3.73-7.13-3.73-7.13l.17-.11a5.16,5.16,0,0,0,2.6-4.68c0-2.62-1.85-4.18-4.92-4.18Zm2.55,1.63H29.2A2.59,2.59,0,0,1,32,110.65,3.17,3.17,0,0,1,28.83,114H27.09Z"/><path class="cls-1" d="M48.38,111v11.69a9.13,9.13,0,0,1-.45,3.06,1.81,1.81,0,0,1-1.16.94v.81c2.92,0,4.16-1.52,4.16-4.92V111Z"/><path class="cls-1" d="M41.59,110.69a6.11,6.11,0,0,0-4.09,1.48l.76,1.16a4.24,4.24,0,0,1,2.94-1.15,2.2,2.2,0,0,1,2.14,2.06l0,.18-2.71.84c-2.78.84-4.08,2.17-4.08,4.17a3.15,3.15,0,0,0,3.08,3.43,4.9,4.9,0,0,0,3.79-2.29v2h2.61V115c0-2.83-1.49-4.27-4.46-4.27m.75,9.64a2.14,2.14,0,0,1-1.61.81,1.77,1.77,0,0,1-1.56-2,3,3,0,0,1,2.37-3l1.67-.59.28-.09,0,.29c.16,2.63-.66,4-1.17,4.53"/><path class="cls-1" d="M91.87,110.69a6.1,6.1,0,0,0-4.09,1.48l.76,1.16a4.23,4.23,0,0,1,2.95-1.15,2.19,2.19,0,0,1,2.13,2.06v.18l-2.71.84c-2.75.84-4.06,2.17-4.06,4.17a3.15,3.15,0,0,0,3.06,3.43,4.93,4.93,0,0,0,3.81-2.29v2h2.6V115c0-2.83-1.5-4.27-4.46-4.27m.75,9.64a2.16,2.16,0,0,1-1.61.81,1.78,1.78,0,0,1-1.57-2,3,3,0,0,1,2.36-3l1.67-.59.29-.09,0,.29c.17,2.63-.64,4-1.16,4.53"/><path class="cls-1" d="M115.05,110.69a6.09,6.09,0,0,0-4.1,1.48l.74,1.16a4.3,4.3,0,0,1,3-1.15,2.18,2.18,0,0,1,2.14,2.06l0,.18-2.71.84c-2.77.84-4.07,2.17-4.07,4.17a3.16,3.16,0,0,0,3,3.43,4.88,4.88,0,0,0,3.8-2.29v2h2.62V115c0-2.83-1.51-4.27-4.45-4.27m.74,9.64a2.15,2.15,0,0,1-1.62.81,1.79,1.79,0,0,1-1.58-2,3,3,0,0,1,2.38-3l1.7-.59.26-.09,0,.29c.17,2.63-.65,4-1.16,4.53"/><rect class="cls-1" x="143.37" y="105.32" width="2.57" height="17.24"/><rect class="cls-2" x="4.56" y="97.39" width="3.14" height="2.77"/><rect class="cls-2" x="8.96" y="97.39" width="3.14" height="2.77"/><rect class="cls-2" x="43.05" y="95.46" width="3.14" height="2.74"/><rect class="cls-2" x="106.49" y="73.82" width="3.14" height="2.71"/><path class="cls-2" d="M42.94,79.78a13.86,13.86,0,0,0-2.15.19v2.29a5,5,0,0,1,2.3-.48c3.22,0,6.63,3,6.63,8.53l-.09.78H38.52v-.73c0-6.22-4.21-10.58-10.24-10.58A12.92,12.92,0,0,0,26,80v2.23l.08,0a5,5,0,0,1,2.33-.48c3.21,0,6.62,3,6.62,8.53l0,.78H22.56V79.78H19.73c-7.65,0-7.9,3.93-7.9,8.55v2.85c0,2.26-.79,2.7-2,2.7H7.37c-1.56,0-4.12-.23-4.12-5.89,0-4.79,2.09-6.36,6.26-6.34V79.78c-3.21,0-5.24.63-7.1,2.42A7.23,7.23,0,0,0,.11,88c0,5.86,2.58,7.84,6.1,7.84h4.42c2.8,0,4.36-1.75,4.36-5v-3c0-3.93.57-6.14,4.43-6.14V93.11h33.4a17.07,17.07,0,0,0,.39-3c-.16-6.11-4.31-10.38-10.27-10.38"/><rect class="cls-2" x="142.92" y="75.66" width="3.15" height="2.76"/><rect class="cls-2" x="138.53" y="75.66" width="3.15" height="2.76"/><rect class="cls-2" x="56.21" y="73.8" width="3.14" height="19.31"/><path class="cls-2" d="M109.88,86.71h-2.43a2.47,2.47,0,1,1,0-4.93h2.43Zm.54-6.91h-3.63a4.36,4.36,0,0,0,0,8.72H110v.31c0,1.5-.7,2.32-2.06,2.32H98.33V73.82H95.19V91.2c0,2.25-.78,2.69-2,2.69H90.73c-1.56,0-4.13-.23-4.13-5.88,0-4.79,2.1-6.37,6.25-6.34V79.8c-3.19,0-5.22.11-7.09,1.9a8.4,8.4,0,0,0-2.32,6.35c0,5.86,2.59,7.84,6.13,7.84H94a3.86,3.86,0,0,0,4-2.76h10.65A3.88,3.88,0,0,0,112,91.59,5.38,5.38,0,0,0,113,88.22V79.8Z"/><path class="cls-2" d="M68.71,88.18c0,2.44-1.15,2.91-2.12,2.91h-1.1V79.78H62.37V93.24c0,1.78,0,2.71-.54,3.74a2.58,2.58,0,0,1-1.44,1.2v.95c3.57-.06,5.1-1.88,5.1-6h1.86a4,4,0,0,0,3.41-1.56,5.45,5.45,0,0,0,1.09-3.47V73.8H68.71Z"/><rect class="cls-2" x="74.84" y="73.8" width="3.14" height="19.31"/><path class="cls-2" d="M142.93,79.65v8.52c0,2.44-1.16,2.92-2.11,2.92H137.2v-.78c0-5.76-3.61-9.92-8.93-10.51l9.09-6H134l-9.25,6.13v2.23l.09,0a5,5,0,0,1,2.32-.47c3.22,0,6.62,3,6.62,8.53v.83h-10.6c-1,0-2.09-.48-2.09-2.92V73.79h-3.12V88.07A5.55,5.55,0,0,0,119,91.55a4,4,0,0,0,3.4,1.56h19.19A4,4,0,0,0,145,91.55a5.51,5.51,0,0,0,1.11-3.48V79.65Z"/></g></g></svg>