<svg xmlns="http://www.w3.org/2000/svg" viewBox="0 0 235.06 144.32"><defs><style>.cls-1{fill:#1b682f;}.cls-2{fill:#81ba26;}.cls-3{fill:#48a734;}</style></defs><g id="Layer_2" data-name="Layer 2"><g id="Layer_1-2" data-name="Layer 1"><path class="cls-1" d="M94.43,38.32c-2.81-1.06-4-2.75-4-5.68V6.33C90.45,3.47,92,2,94.82,2c3.15-.06,6.31.29,9.46-.23A12.9,12.9,0,0,0,108.73.25c.81-.48,1.12-.23,1.43.54a6.66,6.66,0,0,1-2.66,8.27,12.89,12.89,0,0,1-7,1.91c-1,0-1.15.32-1.15,1.22q.06,10.17,0,20.32c0,.86.18,1.13,1.08,1.11,2.86-.06,5.73,0,8.6,0,1,0,1.16.3,1.12,1.19-.08,1.32,0,2.65,0,4a3.71,3.71,0,0,1-3.89,3.92c-1.91,0-3.82,0-5.73,0-.68,0-1,.15-.94.89,0,5-.13,10.06.12,15.08.36,7.07,3.52,12.58,9.81,16.13.43.24,1.25.37,1,1s-1,.33-1.45.27a19.66,19.66,0,0,1-10-4.64c-5.83-4.8-8.35-11.18-8.66-18.55-.13-3.11,0-6.23,0-9.35a5.16,5.16,0,0,1,4-5.17"/><path class="cls-2" d="M136.78,23.86c0,5.86,0,11.72,0,17.58,0,.91-.15,1.3-1.2,1.28-4.73-.06-9.47,0-14.21,0-2.94,0-4.3-1.4-4.31-4.38,0-1.24,0-2.49,0-3.73,0-.76.18-1,1-1,2.91,0,5.82,0,8.72,0,.86,0,1.13-.18,1.13-1.08q-.06-10.23,0-20.45c0-.9-.29-1.1-1.13-1.11a12.32,12.32,0,0,1-7.88-2.56A6.58,6.58,0,0,1,117.13.63c.28-.56.5-.84,1.21-.45A16.43,16.43,0,0,0,126.75,2c1.91,0,3.82,0,5.73,0,2.78,0,4.3,1.51,4.31,4.32,0,5.86,0,11.71,0,17.57Z"/><path class="cls-2" d="M132.29,47.15c1.25,0,2.5,0,3.74,0,.49,0,.76.1.78.68.15,5.91-.19,11.73-3.22,17A22.22,22.22,0,0,1,119,75.92c-.78.18-2,.57-2.27-.17s.93-1,1.52-1.31c6.59-3.91,9.18-10,9.36-17.32.08-2.95,0-5.91,0-8.86,0-.83.17-1.19,1.09-1.13,1.2.08,2.41,0,3.61,0"/><path class="cls-1" d="M21.39,112.53H18.73A3,3,0,0,1,16,110.71a8.43,8.43,0,0,1-2.36,5.89A7.27,7.27,0,0,1,8.07,119a7.41,7.41,0,0,1-5.59-2.47,8.44,8.44,0,0,1-2.33-6c0-.27,0-1.22-.06-2.84S0,104.89,0,104.47H2.06c0,.45,0,1.55,0,3.31s.06,2.66.06,2.84a6.24,6.24,0,0,0,1.73,4.45A5.47,5.47,0,0,0,8.07,117a5.47,5.47,0,0,0,4.18-1.88A6.25,6.25,0,0,0,14,110.56l-.09-6.09h2l0,2.78a3.89,3.89,0,0,0,.93,2.53,2.2,2.2,0,0,0,1.64.84h2.87ZM9.08,101.66H6.87v-2.3H9.08Zm24.37,10.87H30.79a2.9,2.9,0,0,1-2.27-1.13,3.77,3.77,0,0,1-.74-1.29A4.11,4.11,0,0,1,24,112.53H20.13v-1.91h3.31a2.86,2.86,0,0,0,1.56-.45,1.86,1.86,0,0,0,.92-1.64c.06.48.06-1.82,0-6.9H28c0,1.91,0,3.79.05,5.68a3.6,3.6,0,0,0,.93,2.5,2.28,2.28,0,0,0,1.64.81h2.87v1.91Zm-7,4.42H24.22v-2.3h2.24Zm3.65,0H27.9v-2.3h2.21Zm15.62-10c0,3.49-1.83,5.61-4.93,5.61H32.46v-1.91H36.8a5.85,5.85,0,0,1-1.23-3.7c0-3.47,1.88-5.62,5-5.62a4.76,4.76,0,0,1,3.85,1.79A5.82,5.82,0,0,1,45.73,106.92Zm-2,0a4.44,4.44,0,0,0-1-3,2.7,2.7,0,0,0-2.06-1,2.47,2.47,0,0,0-2,1,4.52,4.52,0,0,0-.87,3,4.31,4.31,0,0,0,1,3,2.67,2.67,0,0,0,2.06,1,2.45,2.45,0,0,0,2-1A4.49,4.49,0,0,0,43.7,106.89Zm9.49-15.54H48.38l.54-.92h1.34a2.33,2.33,0,0,1-.5-1.44,2,2,0,0,1,2-2.09,1.67,1.67,0,0,1,1.37.69l-.45.66a1.15,1.15,0,0,0-.89-.51c-.63,0-.93.45-.93,1.37s.42,1.32,1.26,1.32h1.1Zm2.72,21.18H53.34a2.93,2.93,0,0,1-2.12-.86,3.54,3.54,0,0,1-1-2.66l-.08-15.8h2.06l.09,15.53c0,1.1.47,1.73,1.4,1.88h2.24Zm12.28,0H65.53a2.87,2.87,0,0,1-2.27-1.13,3.81,3.81,0,0,1-.75-1.29,4.11,4.11,0,0,1-3.73,2.42H55.46v-1.91h1c.89,0,1.46,0,1.7,0a2.83,2.83,0,0,0,1.55-.45,1.82,1.82,0,0,0,.9-1.61c.06.48.06-1.82,0-6.9h2.06c0,1.91,0,3.79.06,5.68a3.6,3.6,0,0,0,.93,2.5,2.25,2.25,0,0,0,1.64.81h2.87v1.91ZM60.9,99.21H58.69v-2.3H60.9Zm3.67,0H62.33v-2.3h2.24Zm14.19,13.32H76.1a2.88,2.88,0,0,1-2.27-1.13,3.81,3.81,0,0,1-.75-1.29,4.1,4.1,0,0,1-3.73,2.42h-2v-1.91h1.4a3,3,0,0,0,1.55-.45,1.9,1.9,0,0,0,.9-1.64c0-4.15-.06-9.29-.15-15.38h2.06c0,4,.06,8.87.15,14.51a3.2,3.2,0,0,0,1,2.15,2.32,2.32,0,0,0,1.64.81h2.87Zm5.37-3.88c0,2.39-1.43,3.88-4.06,3.88H78.13v-1.91H80a1.88,1.88,0,0,0,2-2c0-1.88,0-4.45-.06-7.68,0-3.73-.06-6.3-.06-7.7H84c0,1.37,0,3.94.06,7.73C84.1,104.17,84.13,106.74,84.13,108.65Zm31.92,2v1.91h-2.42a3.42,3.42,0,0,1-2.3-1,3.85,3.85,0,0,1-1.19-2.54,11.89,11.89,0,0,0-.78-3.8,3.11,3.11,0,0,0-3-1.91,3.22,3.22,0,0,0-2.51,1,3.72,3.72,0,0,0-1,2.6h5.34l.09,3.67a8.32,8.32,0,0,1-2.33,5.95A7.36,7.36,0,0,1,100.4,119a7.44,7.44,0,0,1-5.59-2.47,8.38,8.38,0,0,1-2.33-6c0-.75-.06-1.94-.12-3.64h2.06c0,.62,0,1.85.06,3.67a6.23,6.23,0,0,0,1.74,4.48A5.57,5.57,0,0,0,100.4,117a5.45,5.45,0,0,0,4.18-1.88,6.34,6.34,0,0,0,1.73-4.51l-.06-1.7H100.7c0-5,1.91-7.53,5.7-7.53a4.82,4.82,0,0,1,4.72,3,14.24,14.24,0,0,1,1,4.42,2.07,2.07,0,0,0,1.88,1.88Zm-16.19,13H97.65v-2.33h2.21Zm3.68,0h-2.22v-2.33h2.22Zm15.94-11.06h-4.09v-1.91h4.09Zm0,0h-4.09v-1.91h4.09Zm6.87-3.88c0,2.39-1.43,3.88-4.06,3.88H119v-1.91h3.29a1.88,1.88,0,0,0,2-2c0,.27,0-2-.09-7h2.06C126.32,106.35,126.35,108.68,126.35,108.65Zm-1.76,8.27h-2.21v-2.3h2.21Zm15.86-6.3c0,.33,0,1,0,1.91h-2.66a3.12,3.12,0,0,1-2.78-1.85,9.1,9.1,0,0,1-2.36,5.8,7.85,7.85,0,0,1-5.37,2.53c-.21-.35-.51-1-.9-1.85a6.17,6.17,0,0,0,4.78-2.06,7.3,7.3,0,0,0,1.79-5l0-8.42H135l0,5.94a3.16,3.16,0,0,0,.93,2.24,2.4,2.4,0,0,0,1.64.78Zm18.16,1.91h-5.92a3.9,3.9,0,0,1-3-1.43,10.91,10.91,0,0,1-5.14,1.43h-4.93v-1.91h4.9a9.37,9.37,0,0,0,4-1,21.49,21.49,0,0,0-3-3.2,7.36,7.36,0,0,0-4.07-1.64v-2.45c1.77-1.68,4.27-2.51,7.56-2.48a12.37,12.37,0,0,1,5.94,1.49,8,8,0,0,1,2.45,1.82,19.33,19.33,0,0,1-6.21,7,2.23,2.23,0,0,0,1.23.42h6.27Zm-3.71-8.93-1.55-1a10,10,0,0,0-4.3-.9,13.31,13.31,0,0,0-3.52.42,13,13,0,0,0-2.45,1.07c2.33.63,4.63,2.48,6.87,5.56A16.74,16.74,0,0,0,154.9,103.6Zm9.08,5.05c0,2.39-1.43,3.88-4.06,3.88H158v-1.91h1.91a1.88,1.88,0,0,0,2-2c0-1.88,0-4.45-.06-7.68,0-3.73-.06-6.3-.06-7.7h2.06c0,1.37,0,3.94.06,7.73C164,104.17,164,106.74,164,108.65Zm6.6,3.88h-2.06l-.15-19.32h2.06ZM190.85,99.3l-1.11,1.16a3.57,3.57,0,0,0-2-.83c-1.58,0-2.36.89-2.33,2.66a2.67,2.67,0,0,0,2.75,2.83h2.6V107h-5.65a4.15,4.15,0,0,0,0,8.3h3.95v2h-4.19a6.11,6.11,0,0,1-.44-12.19,4.47,4.47,0,0,1-1.14-3.16,4.25,4.25,0,0,1,1.34-3.17,4.09,4.09,0,0,1,2.78-1.13A4.15,4.15,0,0,1,190.85,99.3Zm8.66,10.45a9.64,9.64,0,0,1-2.15,6.43,7.75,7.75,0,0,1-5.62,2.83,18.7,18.7,0,0,1-.89-1.85,6,6,0,0,0,4.71-2,7.24,7.24,0,0,0,1.86-5l0-8.42h2.06Zm19.89,2.78H203.6l.63-1.91h8.15a9.88,9.88,0,0,0-1.46-5.14c-.84-1.34-1.74-2-2.72-2v-1.85a4.81,4.81,0,0,1,3.91,2.21,12.87,12.87,0,0,1,2.21,6.78h5.08Zm3.43,0h-4.09v-1.91h4.09Zm0,0h-4.09v-1.91h4.09Zm5.56-3.88c0,2.39-1.44,3.88-4.06,3.88h-2v-1.91h1.92a1.88,1.88,0,0,0,2-2c0-1.88,0-4.45-.06-7.68,0-3.73-.06-6.3-.06-7.7h2.06c0,1.37,0,3.94.06,7.73C228.36,104.17,228.39,106.74,228.39,108.65Zm6.6,3.88h-2.06l-.15-19.32h2.06Z"/><path class="cls-3" d="M10.88,139.92H4.18l-1.5,4.18H.5l6.11-16H8.45l6.12,16H12.4ZM4.82,138.2h5.43l-2.72-7.48Z"/><path class="cls-3" d="M21.6,134.05a6.23,6.23,0,0,0-1-.08,2.68,2.68,0,0,0-2.71,1.7v8.43h-2V132.22h2l0,1.38A3.16,3.16,0,0,1,20.7,132a2.07,2.07,0,0,1,.9.16Z"/><path class="cls-3" d="M30.26,144.1a4.07,4.07,0,0,1-.28-1.25,4.55,4.55,0,0,1-3.39,1.47,4.2,4.2,0,0,1-2.88-1,3.2,3.2,0,0,1-1.12-2.52A3.35,3.35,0,0,1,24,137.93a6.6,6.6,0,0,1,4-1h2V136a2.3,2.3,0,0,0-.63-1.7,2.57,2.57,0,0,0-1.88-.63,2.92,2.92,0,0,0-1.82.55,1.63,1.63,0,0,0-.74,1.33h-2a2.81,2.81,0,0,1,.63-1.72,4.3,4.3,0,0,1,1.71-1.31,5.82,5.82,0,0,1,2.38-.49,4.73,4.73,0,0,1,3.22,1,3.74,3.74,0,0,1,1.2,2.83v5.47a6.66,6.66,0,0,0,.42,2.6v.17Zm-3.37-1.55a3.54,3.54,0,0,0,1.81-.49,3,3,0,0,0,1.24-1.28v-2.44H28.35c-2.49,0-3.73.73-3.73,2.18a1.85,1.85,0,0,0,.64,1.5A2.42,2.42,0,0,0,26.89,142.55Z"/><path class="cls-3" d="M44.7,138.3a7.08,7.08,0,0,1-1.25,4.37,4,4,0,0,1-3.36,1.65,4.14,4.14,0,0,1-3.48-1.59l-.1,1.37H34.64V127.24h2v6.29A4.11,4.11,0,0,1,40.06,132a4,4,0,0,1,3.4,1.64,7.23,7.23,0,0,1,1.24,4.48Zm-2-.24a5.42,5.42,0,0,0-.81-3.2,2.65,2.65,0,0,0-2.3-1.13,3,3,0,0,0-2.89,1.86v5.14a3.06,3.06,0,0,0,2.91,1.87,2.64,2.64,0,0,0,2.27-1.13A5.8,5.8,0,0,0,42.67,138.06Z"/><path class="cls-3" d="M46.73,129.07a1.21,1.21,0,0,1,.3-.83,1.35,1.35,0,0,1,1.79,0,1.17,1.17,0,0,1,.31.83,1.25,1.25,0,0,1-2.1.83A1.19,1.19,0,0,1,46.73,129.07Zm2.19,15h-2V132.22h2Z"/><path class="cls-3" d="M59,144.1a4.31,4.31,0,0,1-.29-1.25,4.52,4.52,0,0,1-3.38,1.47,4.2,4.2,0,0,1-2.88-1,3.21,3.21,0,0,1-1.13-2.52,3.35,3.35,0,0,1,1.41-2.88,6.65,6.65,0,0,1,4-1h2V136a2.27,2.27,0,0,0-.64-1.7,2.55,2.55,0,0,0-1.87-.63,3,3,0,0,0-1.83.55,1.62,1.62,0,0,0-.73,1.33h-2a2.81,2.81,0,0,1,.63-1.72,4.3,4.3,0,0,1,1.71-1.31,5.79,5.79,0,0,1,2.38-.49,4.71,4.71,0,0,1,3.21,1,3.71,3.71,0,0,1,1.21,2.83v5.47a6.66,6.66,0,0,0,.42,2.6v.17Zm-3.37-1.55a3.57,3.57,0,0,0,1.81-.49,3,3,0,0,0,1.24-1.28v-2.44H57.08c-2.49,0-3.73.73-3.73,2.18A1.87,1.87,0,0,0,54,142,2.45,2.45,0,0,0,55.62,142.55Z"/><path class="cls-3" d="M65.29,132.22l.06,1.5A4.35,4.35,0,0,1,68.91,132q3.77,0,3.8,4.25v7.85h-2v-7.86a2.73,2.73,0,0,0-.59-1.9,2.34,2.34,0,0,0-1.79-.61,2.89,2.89,0,0,0-1.74.53,3.55,3.55,0,0,0-1.16,1.38v8.46h-2V132.22Z"/><path class="cls-3" d="M85.29,137a9.86,9.86,0,0,1-4-1.92,3.66,3.66,0,0,1-1.23-2.8,3.88,3.88,0,0,1,1.51-3.13,6,6,0,0,1,3.92-1.23,6.48,6.48,0,0,1,2.94.64,4.88,4.88,0,0,1,2,1.75,4.51,4.51,0,0,1,.7,2.45H89.06a2.92,2.92,0,0,0-.92-2.29,3.76,3.76,0,0,0-2.6-.83,3.82,3.82,0,0,0-2.43.69,2.29,2.29,0,0,0-.87,1.91,2.05,2.05,0,0,0,.82,1.65,8.18,8.18,0,0,0,2.83,1.24A13,13,0,0,1,89,136.35a4.71,4.71,0,0,1,1.67,1.57,4,4,0,0,1,.55,2.12,3.73,3.73,0,0,1-1.52,3.11,6.45,6.45,0,0,1-4,1.17,7.5,7.5,0,0,1-3.07-.63,5.09,5.09,0,0,1-2.2-1.73,4.19,4.19,0,0,1-.78-2.49h2.12a2.76,2.76,0,0,0,1.07,2.29,4.51,4.51,0,0,0,2.86.84,4.17,4.17,0,0,0,2.56-.68,2.23,2.23,0,0,0,.89-1.86,2.15,2.15,0,0,0-.83-1.81A9.38,9.38,0,0,0,85.29,137Z"/><path class="cls-3" d="M95.09,133.66A4.33,4.33,0,0,1,98.6,132q3.77,0,3.8,4.25v7.85h-2v-7.86a2.73,2.73,0,0,0-.59-1.9,2.34,2.34,0,0,0-1.79-.61,2.89,2.89,0,0,0-1.74.53,3.64,3.64,0,0,0-1.16,1.38v8.46h-2V127.24h2Z"/><path class="cls-3" d="M104.91,129.07a1.17,1.17,0,0,1,.31-.83,1.35,1.35,0,0,1,1.79,0,1.17,1.17,0,0,1,.31.83,1.21,1.21,0,1,1-2.41,0Zm2.2,15h-2V132.22h2Z"/><path class="cls-3" d="M114.77,144.32a5.21,5.21,0,0,1-3.93-1.58,5.91,5.91,0,0,1-1.51-4.25v-.37A7.15,7.15,0,0,1,110,135a5.27,5.27,0,0,1,1.89-2.17,4.79,4.79,0,0,1,2.63-.79,4.45,4.45,0,0,1,3.6,1.53,6.58,6.58,0,0,1,1.28,4.37v.85h-8a4.23,4.23,0,0,0,1,2.83,3.24,3.24,0,0,0,2.5,1.08,3.53,3.53,0,0,0,1.82-.43,4.55,4.55,0,0,0,1.31-1.17l1.24,1A5,5,0,0,1,114.77,144.32Zm-.25-10.65a2.68,2.68,0,0,0-2.06.9,4.29,4.29,0,0,0-1,2.51h6v-.16a3.88,3.88,0,0,0-.83-2.4A2.58,2.58,0,0,0,114.52,133.67Z"/><path class="cls-3" d="M123.42,144.1h-2V127.24h2Z"/><path class="cls-3" d="M125.66,138.06a7,7,0,0,1,1.29-4.39,4.4,4.4,0,0,1,6.7-.24v-6.19h2V144.1h-1.86l-.1-1.27a4.14,4.14,0,0,1-3.39,1.49,4.06,4.06,0,0,1-3.37-1.69,7,7,0,0,1-1.3-4.41Zm2,.24a5.32,5.32,0,0,0,.83,3.16,2.71,2.71,0,0,0,2.31,1.14,3,3,0,0,0,2.82-1.74v-5.45a3,3,0,0,0-2.8-1.68,2.72,2.72,0,0,0-2.33,1.15A5.87,5.87,0,0,0,127.69,138.3Z"/><path class="cls-3" d="M145.9,144.1h-2.11v-16h2.11Z"/><path class="cls-3" d="M150.75,132.22l.06,1.5a4.35,4.35,0,0,1,3.56-1.72q3.76,0,3.8,4.25v7.85h-2v-7.86a2.73,2.73,0,0,0-.59-1.9,2.34,2.34,0,0,0-1.79-.61,2.89,2.89,0,0,0-1.74.53,3.55,3.55,0,0,0-1.16,1.38v8.46h-2V132.22Z"/><path class="cls-3" d="M167.61,141a1.51,1.51,0,0,0-.62-1.28,6,6,0,0,0-2.16-.78,10.07,10.07,0,0,1-2.45-.79A3.59,3.59,0,0,1,161,137a2.61,2.61,0,0,1-.43-1.52,3.1,3.1,0,0,1,1.23-2.47,4.85,4.85,0,0,1,3.16-1,4.92,4.92,0,0,1,3.27,1.05,3.3,3.3,0,0,1,1.26,2.67h-2a1.84,1.84,0,0,0-.71-1.44,2.62,2.62,0,0,0-1.78-.61,2.75,2.75,0,0,0-1.74.49,1.53,1.53,0,0,0-.62,1.26,1.23,1.23,0,0,0,.58,1.11,7.28,7.28,0,0,0,2.1.71,11.33,11.33,0,0,1,2.47.81,3.72,3.72,0,0,1,1.4,1.14,2.81,2.81,0,0,1,.45,1.62,3,3,0,0,1-1.27,2.55,5.35,5.35,0,0,1-3.31,1,6.06,6.06,0,0,1-2.52-.5,4.15,4.15,0,0,1-1.72-1.41,3.45,3.45,0,0,1-.62-2h2a2.12,2.12,0,0,0,.82,1.62,3.16,3.16,0,0,0,2,.59,3.27,3.27,0,0,0,1.85-.46A1.43,1.43,0,0,0,167.61,141Z"/><path class="cls-3" d="M179.1,142.93a4.31,4.31,0,0,1-3.48,1.39,3.71,3.71,0,0,1-2.89-1.1,4.75,4.75,0,0,1-1-3.27v-7.73h2v7.68q0,2.7,2.19,2.7a3,3,0,0,0,3.1-1.74v-8.64h2V144.1h-1.93Z"/><path class="cls-3" d="M189.37,134.05a6.23,6.23,0,0,0-1-.08,2.68,2.68,0,0,0-2.71,1.7v8.43h-2V132.22h2l0,1.38a3.18,3.18,0,0,1,2.84-1.6,2.13,2.13,0,0,1,.9.16Z"/><path class="cls-3" d="M198,144.1a4.31,4.31,0,0,1-.29-1.25,4.52,4.52,0,0,1-3.38,1.47,4.2,4.2,0,0,1-2.88-1,3.21,3.21,0,0,1-1.13-2.52,3.35,3.35,0,0,1,1.41-2.88,6.62,6.62,0,0,1,4-1h2V136a2.27,2.27,0,0,0-.64-1.7,2.55,2.55,0,0,0-1.87-.63,3,3,0,0,0-1.83.55,1.62,1.62,0,0,0-.73,1.33h-2a2.81,2.81,0,0,1,.63-1.72,4.3,4.3,0,0,1,1.71-1.31,5.79,5.79,0,0,1,2.38-.49,4.71,4.71,0,0,1,3.21,1,3.71,3.71,0,0,1,1.21,2.83v5.47a6.66,6.66,0,0,0,.42,2.6v.17Zm-3.37-1.55a3.57,3.57,0,0,0,1.81-.49,3,3,0,0,0,1.24-1.28v-2.44h-1.59c-2.49,0-3.74.73-3.74,2.18A1.88,1.88,0,0,0,193,142,2.45,2.45,0,0,0,194.66,142.55Z"/><path class="cls-3" d="M204.33,132.22l.06,1.5A4.35,4.35,0,0,1,208,132q3.77,0,3.8,4.25v7.85h-2v-7.86a2.78,2.78,0,0,0-.59-1.9,2.34,2.34,0,0,0-1.79-.61,2.89,2.89,0,0,0-1.74.53,3.55,3.55,0,0,0-1.16,1.38v8.46h-2V132.22Z"/><path class="cls-3" d="M219,142.66a2.94,2.94,0,0,0,1.9-.65,2.33,2.33,0,0,0,.9-1.65h1.92a3.7,3.7,0,0,1-.7,1.94,4.6,4.6,0,0,1-1.73,1.47,5,5,0,0,1-2.29.55,4.88,4.88,0,0,1-3.86-1.62,6.42,6.42,0,0,1-1.43-4.43v-.34a7.21,7.21,0,0,1,.63-3.08,4.94,4.94,0,0,1,1.83-2.1A5.16,5.16,0,0,1,219,132a4.77,4.77,0,0,1,3.32,1.2,4.29,4.29,0,0,1,1.41,3.11h-1.92a2.81,2.81,0,0,0-.88-1.9,2.72,2.72,0,0,0-1.93-.74,2.84,2.84,0,0,0-2.4,1.12,5.21,5.21,0,0,0-.85,3.22v.38a5.18,5.18,0,0,0,.84,3.17A2.86,2.86,0,0,0,219,142.66Z"/><path class="cls-3" d="M230.43,144.32a5.21,5.21,0,0,1-3.93-1.58,5.91,5.91,0,0,1-1.51-4.25v-.37a7.15,7.15,0,0,1,.67-3.16,5.27,5.27,0,0,1,1.89-2.17,4.77,4.77,0,0,1,2.63-.79,4.45,4.45,0,0,1,3.6,1.53,6.58,6.58,0,0,1,1.28,4.37v.85h-8a4.23,4.23,0,0,0,1,2.83,3.24,3.24,0,0,0,2.5,1.08,3.53,3.53,0,0,0,1.82-.43,4.55,4.55,0,0,0,1.31-1.17l1.24,1A5,5,0,0,1,230.43,144.32Zm-.25-10.65a2.72,2.72,0,0,0-2.07.9,4.35,4.35,0,0,0-1,2.51H233v-.16a3.88,3.88,0,0,0-.83-2.4A2.58,2.58,0,0,0,230.18,133.67Z"/></g></g></svg>