<svg xmlns="http://www.w3.org/2000/svg" xmlns:xlink="http://www.w3.org/1999/xlink" viewBox="0 0 144.92 127.04"><defs><style>.cls-1{fill:none;}.cls-2{clip-path:url(#clip-path);}.cls-3{clip-path:url(#clip-path-2);}.cls-4{fill:#69c7d8;}.cls-5{fill:#6ac7d8;}.cls-6{fill:#6bc8d9;}.cls-7{fill:#6cc8d9;}.cls-8{fill:#6dc9d9;}.cls-9{fill:#6ec9d9;}.cls-10{fill:#6fc9da;}.cls-11{fill:#70cada;}.cls-12{fill:#71cada;}.cls-13{fill:#72cada;}.cls-14{fill:#73cbdb;}.cls-15{fill:#74cbdb;}.cls-16{fill:#75ccdb;}.cls-17{fill:#76ccdb;}.cls-18{fill:#77ccdc;}.cls-19{fill:#78cddc;}.cls-20{fill:#79cddc;}.cls-21{fill:#7acddc;}.cls-22{fill:#7bcedd;}.cls-23{fill:#7ccedd;}.cls-24{fill:#7dcfdd;}.cls-25{fill:#7ecfde;}.cls-26{fill:#7fcfde;}.cls-27{fill:#80d0de;}.cls-28{fill:#81d0de;}.cls-29{fill:#82d0df;}.cls-30{fill:#83d1df;}.cls-31{fill:#84d1df;}.cls-32{fill:#85d2df;}.cls-33{fill:#86d2e0;}.cls-34{fill:#87d2e0;}.cls-35{fill:#88d3e0;}.cls-36{fill:#89d3e0;}.cls-37{fill:#8ad3e1;}.cls-38{fill:#8bd4e1;}.cls-39{fill:#8cd4e1;}.cls-40{fill:#8dd5e1;}.cls-41{fill:#8ed5e2;}.cls-42{fill:#8fd5e2;}.cls-43{fill:#90d6e2;}.cls-44{fill:#91d6e2;}.cls-45{fill:#92d6e3;}.cls-46{fill:#93d7e3;}.cls-47{fill:#94d7e3;}.cls-48{fill:#95d8e4;}.cls-49{fill:#96d8e4;}.cls-50{fill:#97d8e4;}.cls-51{fill:#98d9e4;}.cls-52{fill:#99d9e5;}.cls-53{fill:#9ad9e5;}.cls-54{fill:#9bdae5;}.cls-55{fill:#9cdae5;}.cls-56{fill:#9ddbe6;}.cls-57{fill:#9edbe6;}.cls-58{fill:#9fdbe6;}.cls-59{fill:#a0dce6;}.cls-60{fill:#a1dce7;}.cls-61{fill:#a2dce7;}.cls-62{fill:#a3dde7;}.cls-63{fill:#a4dde7;}.cls-64{fill:#a5dee8;}.cls-65{fill:#a6dee8;}.cls-66{fill:#a7dee8;}.cls-67{fill:#a8dfe9;}.cls-68{fill:#a9dfe9;}.cls-69{fill:#aadfe9;}.cls-70{fill:#ace0e9;}.cls-71{fill:#ade0ea;}.cls-72{fill:#aee1ea;}.cls-73{fill:#afe1ea;}.cls-74{fill:#b0e1ea;}.cls-75{fill:#b1e2eb;}.cls-76{fill:#b2e2eb;}.cls-77{fill:#b3e2eb;}.cls-78{fill:#b4e3eb;}.cls-79{fill:#b5e3ec;}.cls-80{fill:#b6e4ec;}.cls-81{fill:#b7e4ec;}.cls-82{fill:#b8e4ec;}.cls-83{fill:#b9e5ed;}.cls-84{fill:#bae5ed;}.cls-85{fill:#bbe5ed;}.cls-86{fill:#bce6ed;}.cls-87{fill:#bde6ee;}.cls-88{fill:#bee7ee;}.cls-89{fill:#bfe7ee;}.cls-90{fill:#c0e7ef;}.cls-91{fill:#c1e8ef;}.cls-92{fill:#c2e8ef;}.cls-93{fill:#c3e8ef;}.cls-94{fill:#c4e9f0;}.cls-95{fill:#c5e9f0;}.cls-96{fill:#c6eaf0;}.cls-97{fill:#c7eaf0;}.cls-98{fill:#c8eaf1;}.cls-99{fill:#c9ebf1;}.cls-100{fill:#caebf1;}.cls-101{fill:#cbebf1;}.cls-102{fill:#ccecf2;}.cls-103{fill:#cdecf2;}.cls-104{fill:#ceedf2;}.cls-105{fill:#cfedf2;}.cls-106{fill:#d0edf3;}.cls-107{fill:#d1eef3;}.cls-108{fill:#d2eef3;}.cls-109{fill:#d3eef4;}.cls-110{fill:#d4eff4;}.cls-111{fill:#d5eff4;}.cls-112{fill:#d6f0f4;}.cls-113{fill:#d7f0f5;}.cls-114{fill:#d8f0f5;}.cls-115{fill:#d9f1f5;}.cls-116{fill:#daf1f5;}.cls-117{fill:#dbf1f6;}.cls-118{fill:#dcf2f6;}.cls-119{fill:#ddf2f6;}.cls-120{fill:#def3f6;}.cls-121{fill:#dff3f7;}.cls-122{fill:#e0f3f7;}.cls-123{fill:#e1f4f7;}.cls-124{fill:#e2f4f7;}.cls-125{fill:#e3f4f8;}.cls-126{fill:#e4f5f8;}.cls-127{fill:#e5f5f8;}.cls-128{fill:#e6f6f8;}.cls-129{fill:#e7f6f9;}.cls-130{fill:#e8f6f9;}.cls-131{fill:#e9f7f9;}.cls-132{fill:#eaf7fa;}.cls-133{fill:#ebf8fa;}.cls-134{fill:#ecf8fa;}.cls-135{fill:#edf8fa;}.cls-136{fill:#eef9fb;}.cls-137{fill:#eff9fb;}.cls-138{fill:#f0f9fb;}.cls-139{fill:#f1fafb;}.cls-140{fill:#f2fafc;}.cls-141{fill:#f3fbfc;}.cls-142{fill:#f4fbfc;}.cls-143{fill:#f5fbfc;}.cls-144{fill:#f6fcfd;}.cls-145{fill:#f7fcfd;}.cls-146{fill:#f8fcfd;}.cls-147{fill:#f9fdfd;}.cls-148{fill:#fafdfe;}.cls-149{fill:#fbfefe;}.cls-150{fill:#fcfefe;}.cls-151{fill:#fdfefe;}.cls-152{fill:#feffff;}.cls-153{fill:#fff;}.cls-154{clip-path:url(#clip-path-155);}.cls-155{clip-path:url(#clip-path-156);}.cls-156{fill:#2a4180;}.cls-157{fill:#2a4281;}.cls-158{fill:#2b4381;}.cls-159{fill:#2b4482;}.cls-160{fill:#2c4583;}.cls-161{fill:#2c4683;}.cls-162{fill:#2d4784;}.cls-163{fill:#2d4885;}.cls-164{fill:#2e4985;}.cls-165{fill:#2e4a86;}.cls-166{fill:#2f4b87;}.cls-167{fill:#2f4c87;}.cls-168{fill:#304d88;}.cls-169{fill:#304e89;}.cls-170{fill:#314f89;}.cls-171{fill:#31508a;}.cls-172{fill:#32518b;}.cls-173{fill:#32528b;}.cls-174{fill:#33538c;}.cls-175{fill:#33548d;}.cls-176{fill:#33558d;}.cls-177{fill:#34568e;}.cls-178{fill:#34578f;}.cls-179{fill:#35588f;}.cls-180{fill:#355990;}.cls-181{fill:#365a91;}.cls-182{fill:#365b91;}.cls-183{fill:#375c92;}.cls-184{fill:#375d92;}.cls-185{fill:#385e93;}.cls-186{fill:#385f94;}.cls-187{fill:#396094;}.cls-188{fill:#396195;}.cls-189{fill:#3a6296;}.cls-190{fill:#3a6396;}.cls-191{fill:#3b6497;}.cls-192{fill:#3b6598;}.cls-193{fill:#3c6698;}.cls-194{fill:#3c6799;}.cls-195{fill:#3c689a;}.cls-196{fill:#3d699a;}.cls-197{fill:#3d6a9b;}.cls-198{fill:#3e6b9c;}.cls-199{fill:#3e6c9c;}.cls-200{fill:#3f6d9d;}.cls-201{fill:#3f6e9e;}.cls-202{fill:#406f9e;}.cls-203{fill:#40709f;}.cls-204{fill:#4171a0;}.cls-205{fill:#4172a0;}.cls-206{fill:#4273a1;}.cls-207{fill:#4274a2;}.cls-208{fill:#4375a2;}.cls-209{fill:#4376a3;}.cls-210{fill:#4477a4;}.cls-211{fill:#4478a4;}.cls-212{fill:#4579a5;}.cls-213{fill:#457aa6;}.cls-214{fill:#457ba6;}.cls-215{fill:#467ca7;}.cls-216{fill:#467da8;}.cls-217{fill:#477ea8;}.cls-218{fill:#477fa9;}.cls-219{fill:#4880aa;}.cls-220{fill:#4881aa;}.cls-221{fill:#4982ab;}.cls-222{fill:#4983ac;}.cls-223{fill:#4a84ac;}.cls-224{fill:#4a85ad;}.cls-225{fill:#4b86ae;}.cls-226{fill:#4b87ae;}.cls-227{fill:#4c88af;}.cls-228{fill:#4c89b0;}.cls-229{fill:#4d8bb0;}.cls-230{fill:#4d8cb1;}.cls-231{fill:#4e8db2;}.cls-232{fill:#4e8eb2;}.cls-233{fill:#4e8fb3;}.cls-234{fill:#4f90b4;}.cls-235{fill:#4f91b4;}.cls-236{fill:#5092b5;}.cls-237{fill:#5093b6;}.cls-238{fill:#5194b6;}.cls-239{fill:#5195b7;}.cls-240{fill:#5296b8;}.cls-241{fill:#5297b8;}.cls-242{fill:#5398b9;}.cls-243{fill:#5399ba;}.cls-244{fill:#549aba;}.cls-245{fill:#549bbb;}.cls-246{fill:#559cbc;}.cls-247{fill:#559dbc;}.cls-248{fill:#569ebd;}.cls-249{fill:#569fbe;}.cls-250{fill:#57a0be;}.cls-251{fill:#57a1bf;}.cls-252{fill:#57a2bf;}.cls-253{fill:#58a3c0;}.cls-254{fill:#58a4c1;}.cls-255{fill:#59a5c1;}.cls-256{fill:#59a6c2;}.cls-257{fill:#5aa7c3;}.cls-258{fill:#5aa8c3;}.cls-259{fill:#5ba9c4;}.cls-260{fill:#5baac5;}.cls-261{fill:#5cabc5;}.cls-262{fill:#5cacc6;}.cls-263{fill:#5dadc7;}.cls-264{fill:#5daec7;}.cls-265{fill:#5eafc8;}.cls-266{fill:#5eb0c9;}.cls-267{fill:#5fb1c9;}.cls-268{fill:#5fb2ca;}.cls-269{fill:#60b3cb;}.cls-270{fill:#60b4cb;}.cls-271{fill:#60b5cc;}.cls-272{fill:#61b6cd;}.cls-273{fill:#61b7cd;}.cls-274{fill:#62b8ce;}.cls-275{fill:#62b9cf;}.cls-276{fill:#63bacf;}.cls-277{fill:#63bbd0;}.cls-278{fill:#64bcd1;}.cls-279{fill:#64bdd1;}.cls-280{fill:#65bed2;}.cls-281{fill:#65bfd3;}.cls-282{fill:#66c0d3;}.cls-283{fill:#66c1d4;}.cls-284{fill:#67c2d5;}.cls-285{fill:#67c3d5;}.cls-286{fill:#68c4d6;}.cls-287{fill:#68c5d7;}.cls-288{fill:#69c6d7;}.cls-289{fill:#2d5caa;}.cls-290{fill:#2d3999;}</style><clipPath id="clip-path"><path id="SVGID" class="cls-1" d="M67,36.66a8.09,8.09,0,1,0,8.09-8.07A8.07,8.07,0,0,0,67,36.66"/></clipPath><clipPath id="clip-path-2"><rect id="SVGID-2" data-name="SVGID" class="cls-1" x="63.7" y="25.25" width="22.8" height="22.8" transform="translate(-1.92 69.08) rotate(-48.84)"/></clipPath><clipPath id="clip-path-155"><path id="SVGID-155" data-name="SVGID" class="cls-1" d="M74.73,32.78l0,.21-.06-.19a2.46,2.46,0,0,0-.71.17l0,.21-.1-.19a3.25,3.25,0,0,0-.65.31l.06.21-.15-.15a2.85,2.85,0,0,0-.56.47l.1.16-.17-.1a4.15,4.15,0,0,0-.46.56l.13.15L72,34.54a4,4,0,0,0-.34.65l.15.1-.17,0a5.28,5.28,0,0,0-.19.71l.15.07h-.15a4,4,0,0,0,0,.5v.25l.13,0-.11,0a4.4,4.4,0,0,0,.13.74h.08l-.06,0a3.12,3.12,0,0,0,.29.71l.05,0-.05,0a4.15,4.15,0,0,0,.44.63h0a3.7,3.7,0,0,0,2.85,1.32,3.75,3.75,0,0,0,3.75-3.75,2.52,2.52,0,0,0-.09-.73h0A2.66,2.66,0,0,0,78.6,35l0,0,0,0a4.38,4.38,0,0,0-.37-.67l-.07,0,0-.06a3,3,0,0,0-.5-.57l-.08.07,0-.11a3.39,3.39,0,0,0-.61-.44l-.08.11,0-.15a2.47,2.47,0,0,0-.67-.29l-.08.14,0-.16a3.6,3.6,0,0,0-.74-.15l-.06.19,0-.19-.32,0a1.41,1.41,0,0,0-.41,0"/></clipPath><clipPath id="clip-path-156"><rect id="SVGID-156" data-name="SVGID" class="cls-1" x="69.9" y="31.27" width="10.48" height="10.48" transform="translate(-7.18 50.72) rotate(-35.71)"/></clipPath></defs><g id="Layer_2" data-name="Layer 2"><g id="Layer_1-2" data-name="Layer 1"><g class="cls-2"><g class="cls-3"><rect class="cls-4" x="59.01" y="20.56" width="32.17" height="32.17"/></g><g class="cls-3"><path class="cls-4" d="M71.1,41.69a12.26,12.26,0,1,0-1.2-17.32A12.27,12.27,0,0,0,71.1,41.69Z"/></g><g class="cls-3"><circle class="cls-4" cx="79.19" cy="32.46" r="10.75"/></g><g class="cls-3"><circle class="cls-4" cx="79.19" cy="32.46" r="9.24"/></g><g class="cls-3"><circle class="cls-5" cx="79.19" cy="32.46" r="9.18"/></g><g class="cls-3"><circle class="cls-6" cx="79.19" cy="32.46" r="9.12"/></g><g class="cls-3"><circle class="cls-7" cx="79.19" cy="32.46" r="9.05"/></g><g class="cls-3"><circle class="cls-8" cx="79.19" cy="32.46" r="9.01"/></g><g class="cls-3"><circle class="cls-9" cx="79.19" cy="32.46" r="8.95"/></g><g class="cls-3"><circle class="cls-10" cx="79.19" cy="32.46" r="8.89"/></g><g class="cls-3"><circle class="cls-11" cx="79.19" cy="32.46" r="8.82"/></g><g class="cls-3"><circle class="cls-12" cx="79.19" cy="32.46" r="8.76"/></g><g class="cls-3"><circle class="cls-13" cx="79.19" cy="32.46" r="8.7"/></g><g class="cls-3"><circle class="cls-14" cx="79.19" cy="32.46" r="8.63"/></g><g class="cls-3"><circle class="cls-15" cx="79.19" cy="32.46" r="8.57"/></g><g class="cls-3"><circle class="cls-16" cx="79.19" cy="32.46" r="8.51"/></g><g class="cls-3"><circle class="cls-17" cx="79.19" cy="32.46" r="8.45"/></g><g class="cls-3"><circle class="cls-18" cx="79.19" cy="32.46" r="8.38"/></g><g class="cls-3"><circle class="cls-19" cx="79.19" cy="32.46" r="8.32"/></g><g class="cls-3"><circle class="cls-20" cx="79.19" cy="32.46" r="8.26"/></g><g class="cls-3"><circle class="cls-21" cx="79.19" cy="32.46" r="8.19"/></g><g class="cls-3"><circle class="cls-22" cx="79.19" cy="32.46" r="8.13"/></g><g class="cls-3"><circle class="cls-23" cx="79.19" cy="32.46" r="8.07"/></g><g class="cls-3"><circle class="cls-24" cx="79.19" cy="32.46" r="8.01"/></g><g class="cls-3"><circle class="cls-25" cx="79.19" cy="32.46" r="7.96"/></g><g class="cls-3"><circle class="cls-26" cx="79.19" cy="32.46" r="7.9"/></g><g class="cls-3"><circle class="cls-27" cx="79.19" cy="32.46" r="7.84"/></g><g class="cls-3"><circle class="cls-28" cx="79.19" cy="32.46" r="7.78"/></g><g class="cls-3"><circle class="cls-29" cx="79.19" cy="32.46" r="7.71"/></g><g class="cls-3"><circle class="cls-30" cx="79.19" cy="32.46" r="7.65"/></g><g class="cls-3"><circle class="cls-31" cx="79.19" cy="32.46" r="7.59"/></g><g class="cls-3"><circle class="cls-32" cx="79.19" cy="32.46" r="7.52"/></g><g class="cls-3"><circle class="cls-33" cx="79.19" cy="32.46" r="7.46"/></g><g class="cls-3"><circle class="cls-34" cx="79.19" cy="32.46" r="7.4"/></g><g class="cls-3"><circle class="cls-35" cx="79.19" cy="32.46" r="7.34"/></g><g class="cls-3"><circle class="cls-36" cx="79.19" cy="32.46" r="7.27"/></g><g class="cls-3"><circle class="cls-37" cx="79.19" cy="32.46" r="7.21"/></g><g class="cls-3"><circle class="cls-38" cx="79.19" cy="32.46" r="7.15"/></g><g class="cls-3"><circle class="cls-39" cx="79.19" cy="32.46" r="7.08"/></g><g class="cls-3"><circle class="cls-40" cx="79.19" cy="32.46" r="7.02"/></g><g class="cls-3"><circle class="cls-41" cx="79.19" cy="32.46" r="6.96"/></g><g class="cls-3"><circle class="cls-42" cx="79.19" cy="32.46" r="6.92"/></g><g class="cls-3"><circle class="cls-43" cx="79.19" cy="32.46" r="6.85"/></g><g class="cls-3"><circle class="cls-44" cx="79.19" cy="32.46" r="6.79"/></g><g class="cls-3"><circle class="cls-45" cx="79.19" cy="32.46" r="6.73"/></g><g class="cls-3"><circle class="cls-46" cx="79.19" cy="32.46" r="6.66"/></g><g class="cls-3"><circle class="cls-47" cx="79.19" cy="32.46" r="6.6"/></g><g class="cls-3"><circle class="cls-48" cx="79.19" cy="32.46" r="6.54"/></g><g class="cls-3"><circle class="cls-49" cx="79.19" cy="32.46" r="6.48"/></g><g class="cls-3"><circle class="cls-50" cx="79.19" cy="32.46" r="6.41"/></g><g class="cls-3"><circle class="cls-51" cx="79.19" cy="32.46" r="6.35"/></g><g class="cls-3"><circle class="cls-52" cx="79.19" cy="32.46" r="6.29"/></g><g class="cls-3"><circle class="cls-53" cx="79.19" cy="32.46" r="6.22"/></g><g class="cls-3"><circle class="cls-54" cx="79.19" cy="32.46" r="6.16"/></g><g class="cls-3"><circle class="cls-55" cx="79.19" cy="32.46" r="6.1"/></g><g class="cls-3"><circle class="cls-56" cx="79.19" cy="32.46" r="6.04"/></g><g class="cls-3"><circle class="cls-57" cx="79.19" cy="32.46" r="5.97"/></g><g class="cls-3"><circle class="cls-58" cx="79.19" cy="32.46" r="5.91"/></g><g class="cls-3"><circle class="cls-59" cx="79.19" cy="32.46" r="5.85"/></g><g class="cls-3"><circle class="cls-60" cx="79.19" cy="32.46" r="5.81"/></g><g class="cls-3"><circle class="cls-61" cx="79.19" cy="32.46" r="5.74"/></g><g class="cls-3"><circle class="cls-62" cx="79.19" cy="32.46" r="5.68"/></g><g class="cls-3"><circle class="cls-63" cx="79.19" cy="32.46" r="5.62"/></g><g class="cls-3"><circle class="cls-64" cx="79.19" cy="32.46" r="5.55"/></g><g class="cls-3"><circle class="cls-65" cx="79.19" cy="32.46" r="5.49"/></g><g class="cls-3"><circle class="cls-66" cx="79.19" cy="32.46" r="5.43"/></g><g class="cls-3"><circle class="cls-67" cx="79.19" cy="32.46" r="5.37"/></g><g class="cls-3"><circle class="cls-68" cx="79.19" cy="32.46" r="5.3"/></g><g class="cls-3"><circle class="cls-69" cx="79.19" cy="32.46" r="5.24"/></g><g class="cls-3"><circle class="cls-70" cx="79.19" cy="32.46" r="5.18"/></g><g class="cls-3"><circle class="cls-71" cx="79.19" cy="32.46" r="5.11"/></g><g class="cls-3"><circle class="cls-72" cx="79.19" cy="32.46" r="5.05"/></g><g class="cls-3"><circle class="cls-73" cx="79.19" cy="32.46" r="4.99"/></g><g class="cls-3"><circle class="cls-74" cx="79.19" cy="32.46" r="4.93"/></g><g class="cls-3"><circle class="cls-75" cx="79.19" cy="32.46" r="4.86"/></g><g class="cls-3"><circle class="cls-76" cx="79.19" cy="32.46" r="4.8"/></g><g class="cls-3"><circle class="cls-77" cx="79.19" cy="32.46" r="4.76"/></g><g class="cls-3"><circle class="cls-78" cx="79.19" cy="32.46" r="4.69"/></g><g class="cls-3"><circle class="cls-79" cx="79.19" cy="32.46" r="4.63"/></g><g class="cls-3"><circle class="cls-80" cx="79.19" cy="32.46" r="4.57"/></g><g class="cls-3"><circle class="cls-81" cx="79.19" cy="32.46" r="4.51"/></g><g class="cls-3"><circle class="cls-82" cx="79.19" cy="32.46" r="4.44"/></g><g class="cls-3"><circle class="cls-83" cx="79.19" cy="32.46" r="4.38"/></g><g class="cls-3"><circle class="cls-84" cx="79.19" cy="32.46" r="4.32"/></g><g class="cls-3"><circle class="cls-85" cx="79.19" cy="32.46" r="4.25"/></g><g class="cls-3"><circle class="cls-86" cx="79.19" cy="32.46" r="4.19"/></g><g class="cls-3"><circle class="cls-87" cx="79.19" cy="32.46" r="4.13"/></g><g class="cls-3"><circle class="cls-88" cx="79.19" cy="32.46" r="4.07"/></g><g class="cls-3"><circle class="cls-89" cx="79.19" cy="32.46" r="4"/></g><g class="cls-3"><circle class="cls-90" cx="79.19" cy="32.46" r="3.94"/></g><g class="cls-3"><circle class="cls-91" cx="79.19" cy="32.46" r="3.88"/></g><g class="cls-3"><circle class="cls-92" cx="79.19" cy="32.46" r="3.81"/></g><g class="cls-3"><circle class="cls-93" cx="79.19" cy="32.46" r="3.75"/></g><g class="cls-3"><circle class="cls-94" cx="79.19" cy="32.46" r="3.71"/></g><g class="cls-3"><circle class="cls-95" cx="79.19" cy="32.46" r="3.65"/></g><g class="cls-3"><circle class="cls-96" cx="79.19" cy="32.46" r="3.58"/></g><g class="cls-3"><circle class="cls-97" cx="79.19" cy="32.46" r="3.52"/></g><g class="cls-3"><circle class="cls-98" cx="79.19" cy="32.46" r="3.46"/></g><g class="cls-3"><circle class="cls-99" cx="79.19" cy="32.46" r="3.4"/></g><g class="cls-3"><circle class="cls-100" cx="79.19" cy="32.46" r="3.33"/></g><g class="cls-3"><circle class="cls-101" cx="79.19" cy="32.46" r="3.27"/></g><g class="cls-3"><circle class="cls-102" cx="79.19" cy="32.46" r="3.21"/></g><g class="cls-3"><circle class="cls-103" cx="79.19" cy="32.46" r="3.14"/></g><g class="cls-3"><circle class="cls-104" cx="79.19" cy="32.46" r="3.08"/></g><g class="cls-3"><circle class="cls-105" cx="79.19" cy="32.46" r="3.02"/></g><g class="cls-3"><circle class="cls-106" cx="79.19" cy="32.46" r="2.96"/></g><g class="cls-3"><circle class="cls-107" cx="79.19" cy="32.46" r="2.89"/></g><g class="cls-3"><circle class="cls-108" cx="79.19" cy="32.46" r="2.83"/></g><g class="cls-3"><circle class="cls-109" cx="79.19" cy="32.46" r="2.77"/></g><g class="cls-3"><circle class="cls-110" cx="79.19" cy="32.46" r="2.7"/></g><g class="cls-3"><circle class="cls-111" cx="79.19" cy="32.46" r="2.66"/></g><g class="cls-3"><circle class="cls-112" cx="79.19" cy="32.46" r="2.6"/></g><g class="cls-3"><circle class="cls-113" cx="79.19" cy="32.46" r="2.54"/></g><g class="cls-3"><circle class="cls-114" cx="79.19" cy="32.46" r="2.47"/></g><g class="cls-3"><circle class="cls-115" cx="79.19" cy="32.46" r="2.41"/></g><g class="cls-3"><circle class="cls-116" cx="79.19" cy="32.46" r="2.35"/></g><g class="cls-3"><circle class="cls-117" cx="79.19" cy="32.46" r="2.28"/></g><g class="cls-3"><circle class="cls-118" cx="79.19" cy="32.46" r="2.22"/></g><g class="cls-3"><circle class="cls-119" cx="79.19" cy="32.46" r="2.16"/></g><g class="cls-3"><circle class="cls-120" cx="79.19" cy="32.46" r="2.1"/></g><g class="cls-3"><circle class="cls-121" cx="79.19" cy="32.46" r="2.03"/></g><g class="cls-3"><circle class="cls-122" cx="79.19" cy="32.46" r="1.97"/></g><g class="cls-3"><circle class="cls-123" cx="79.19" cy="32.46" r="1.91"/></g><g class="cls-3"><circle class="cls-124" cx="79.19" cy="32.46" r="1.84"/></g><g class="cls-3"><circle class="cls-125" cx="79.19" cy="32.46" r="1.78"/></g><g class="cls-3"><circle class="cls-126" cx="79.19" cy="32.46" r="1.72"/></g><g class="cls-3"><circle class="cls-127" cx="79.19" cy="32.46" r="1.66"/></g><g class="cls-3"><circle class="cls-128" cx="79.19" cy="32.46" r="1.59"/></g><g class="cls-3"><circle class="cls-129" cx="79.19" cy="32.46" r="1.55"/></g><g class="cls-3"><circle class="cls-130" cx="79.19" cy="32.46" r="1.49"/></g><g class="cls-3"><circle class="cls-131" cx="79.19" cy="32.46" r="1.43"/></g><g class="cls-3"><circle class="cls-132" cx="79.19" cy="32.46" r="1.36"/></g><g class="cls-3"><circle class="cls-133" cx="79.19" cy="32.46" r="1.3"/></g><g class="cls-3"><circle class="cls-134" cx="79.19" cy="32.46" r="1.24"/></g><g class="cls-3"><circle class="cls-135" cx="79.19" cy="32.46" r="1.17"/></g><g class="cls-3"><circle class="cls-136" cx="79.19" cy="32.46" r="1.11"/></g><g class="cls-3"><circle class="cls-137" cx="79.19" cy="32.46" r="1.05"/></g><g class="cls-3"><circle class="cls-138" cx="79.19" cy="32.46" r="0.99"/></g><g class="cls-3"><circle class="cls-139" cx="79.19" cy="32.46" r="0.92"/></g><g class="cls-3"><circle class="cls-140" cx="79.19" cy="32.46" r="0.86"/></g><g class="cls-3"><circle class="cls-141" cx="79.19" cy="32.46" r="0.8"/></g><g class="cls-3"><circle class="cls-142" cx="79.19" cy="32.46" r="0.73"/></g><g class="cls-3"><circle class="cls-143" cx="79.19" cy="32.46" r="0.67"/></g><g class="cls-3"><circle class="cls-144" cx="79.19" cy="32.46" r="0.61"/></g><g class="cls-3"><circle class="cls-145" cx="79.19" cy="32.46" r="0.54"/></g><g class="cls-3"><circle class="cls-146" cx="79.19" cy="32.46" r="0.5"/></g><g class="cls-3"><circle class="cls-147" cx="79.19" cy="32.46" r="0.44"/></g><g class="cls-3"><circle class="cls-148" cx="79.19" cy="32.46" r="0.38"/></g><g class="cls-3"><circle class="cls-149" cx="79.19" cy="32.46" r="0.31"/></g><g class="cls-3"><circle class="cls-150" cx="79.19" cy="32.46" r="0.25"/></g><g class="cls-3"><circle class="cls-151" cx="79.19" cy="32.46" r="0.19"/></g><g class="cls-3"><circle class="cls-152" cx="79.19" cy="32.46" r="0.13"/></g><g class="cls-3"><circle class="cls-153" cx="79.19" cy="32.46" r="0.06"/></g></g><g class="cls-154"><g class="cls-155"><rect class="cls-156" x="67.85" y="29.19" width="14.61" height="14.61"/></g><g class="cls-155"><circle class="cls-156" cx="74.22" cy="35.52" r="4.34"/></g><g class="cls-155"><circle class="cls-157" cx="74.22" cy="35.52" r="4.3"/></g><g class="cls-155"><circle class="cls-158" cx="74.22" cy="35.52" r="4.28"/></g><g class="cls-155"><circle class="cls-159" cx="74.22" cy="35.52" r="4.23"/></g><g class="cls-155"><circle class="cls-160" cx="74.22" cy="35.52" r="4.21"/></g><g class="cls-155"><circle class="cls-161" cx="74.22" cy="35.52" r="4.17"/></g><g class="cls-155"><circle class="cls-162" cx="74.22" cy="35.52" r="4.15"/></g><g class="cls-155"><circle class="cls-163" cx="74.22" cy="35.52" r="4.11"/></g><g class="cls-155"><circle class="cls-164" cx="74.22" cy="35.52" r="4.09"/></g><g class="cls-155"><circle class="cls-165" cx="74.22" cy="35.52" r="4.04"/></g><g class="cls-155"><circle class="cls-166" cx="74.22" cy="35.52" r="4.02"/></g><g class="cls-155"><circle class="cls-167" cx="74.22" cy="35.52" r="3.98"/></g><g class="cls-155"><circle class="cls-168" cx="74.22" cy="35.52" r="3.94"/></g><g class="cls-155"><circle class="cls-169" cx="74.22" cy="35.52" r="3.92"/></g><g class="cls-155"><circle class="cls-170" cx="74.22" cy="35.52" r="3.88"/></g><g class="cls-155"><circle class="cls-171" cx="74.22" cy="35.52" r="3.86"/></g><g class="cls-155"><circle class="cls-172" cx="74.22" cy="35.52" r="3.81"/></g><g class="cls-155"><circle class="cls-173" cx="74.22" cy="35.52" r="3.79"/></g><g class="cls-155"><circle class="cls-174" cx="74.22" cy="35.52" r="3.75"/></g><g class="cls-155"><circle class="cls-175" cx="74.22" cy="35.52" r="3.73"/></g><g class="cls-155"><circle class="cls-176" cx="74.22" cy="35.52" r="3.69"/></g><g class="cls-155"><circle class="cls-177" cx="74.22" cy="35.52" r="3.67"/></g><g class="cls-155"><circle class="cls-178" cx="74.22" cy="35.52" r="3.63"/></g><g class="cls-155"><circle class="cls-179" cx="74.22" cy="35.52" r="3.58"/></g><g class="cls-155"><circle class="cls-180" cx="74.22" cy="35.52" r="3.56"/></g><g class="cls-155"><circle class="cls-181" cx="74.22" cy="35.52" r="3.52"/></g><g class="cls-155"><circle class="cls-182" cx="74.22" cy="35.52" r="3.5"/></g><g class="cls-155"><circle class="cls-183" cx="74.22" cy="35.52" r="3.46"/></g><g class="cls-155"><circle class="cls-184" cx="74.22" cy="35.52" r="3.44"/></g><g class="cls-155"><circle class="cls-185" cx="74.22" cy="35.52" r="3.4"/></g><g class="cls-155"><circle class="cls-186" cx="74.22" cy="35.52" r="3.37"/></g><g class="cls-155"><circle class="cls-187" cx="74.22" cy="35.52" r="3.33"/></g><g class="cls-155"><circle class="cls-188" cx="74.22" cy="35.52" r="3.31"/></g><g class="cls-155"><circle class="cls-189" cx="74.22" cy="35.52" r="3.27"/></g><g class="cls-155"><circle class="cls-190" cx="74.22" cy="35.52" r="3.23"/></g><g class="cls-155"><circle class="cls-191" cx="74.22" cy="35.52" r="3.21"/></g><g class="cls-155"><circle class="cls-192" cx="74.22" cy="35.52" r="3.16"/></g><g class="cls-155"><circle class="cls-193" cx="74.22" cy="35.52" r="3.14"/></g><g class="cls-155"><circle class="cls-194" cx="74.22" cy="35.52" r="3.1"/></g><g class="cls-155"><circle class="cls-195" cx="74.22" cy="35.52" r="3.08"/></g><g class="cls-155"><circle class="cls-196" cx="74.22" cy="35.52" r="3.04"/></g><g class="cls-155"><circle class="cls-197" cx="74.22" cy="35.52" r="3.02"/></g><g class="cls-155"><circle class="cls-198" cx="74.22" cy="35.52" r="2.98"/></g><g class="cls-155"><circle class="cls-199" cx="74.22" cy="35.52" r="2.96"/></g><g class="cls-155"><circle class="cls-200" cx="74.22" cy="35.52" r="2.91"/></g><g class="cls-155"><circle class="cls-201" cx="74.22" cy="35.52" r="2.87"/></g><g class="cls-155"><circle class="cls-202" cx="74.22" cy="35.52" r="2.85"/></g><g class="cls-155"><circle class="cls-203" cx="74.22" cy="35.52" r="2.81"/></g><g class="cls-155"><circle class="cls-204" cx="74.22" cy="35.52" r="2.79"/></g><g class="cls-155"><circle class="cls-205" cx="74.22" cy="35.52" r="2.75"/></g><g class="cls-155"><circle class="cls-206" cx="74.22" cy="35.52" r="2.72"/></g><g class="cls-155"><circle class="cls-207" cx="74.22" cy="35.52" r="2.68"/></g><g class="cls-155"><circle class="cls-208" cx="74.22" cy="35.52" r="2.66"/></g><g class="cls-155"><circle class="cls-209" cx="74.22" cy="35.52" r="2.62"/></g><g class="cls-155"><circle class="cls-210" cx="74.22" cy="35.52" r="2.6"/></g><g class="cls-155"><circle class="cls-211" cx="74.22" cy="35.52" r="2.56"/></g><g class="cls-155"><circle class="cls-212" cx="74.22" cy="35.52" r="2.51"/></g><g class="cls-155"><circle class="cls-213" cx="74.22" cy="35.52" r="2.49"/></g><g class="cls-155"><circle class="cls-214" cx="74.22" cy="35.52" r="2.45"/></g><g class="cls-155"><circle class="cls-215" cx="74.22" cy="35.52" r="2.43"/></g><g class="cls-155"><circle class="cls-216" cx="74.22" cy="35.52" r="2.39"/></g><g class="cls-155"><circle class="cls-217" cx="74.22" cy="35.52" r="2.37"/></g><g class="cls-155"><circle class="cls-218" cx="74.22" cy="35.52" r="2.33"/></g><g class="cls-155"><circle class="cls-219" cx="74.22" cy="35.52" r="2.31"/></g><g class="cls-155"><circle class="cls-220" cx="74.22" cy="35.52" r="2.26"/></g><g class="cls-155"><circle class="cls-221" cx="74.22" cy="35.52" r="2.24"/></g><g class="cls-155"><circle class="cls-222" cx="74.22" cy="35.52" r="2.2"/></g><g class="cls-155"><circle class="cls-223" cx="74.22" cy="35.52" r="2.16"/></g><g class="cls-155"><circle class="cls-224" cx="74.22" cy="35.52" r="2.14"/></g><g class="cls-155"><circle class="cls-225" cx="74.22" cy="35.52" r="2.1"/></g><g class="cls-155"><circle class="cls-226" cx="74.22" cy="35.52" r="2.07"/></g><g class="cls-155"><circle class="cls-227" cx="74.22" cy="35.52" r="2.03"/></g><g class="cls-155"><circle class="cls-228" cx="74.22" cy="35.52" r="2.01"/></g><g class="cls-155"><circle class="cls-229" cx="74.22" cy="35.52" r="1.97"/></g><g class="cls-155"><circle class="cls-230" cx="74.22" cy="35.52" r="1.95"/></g><g class="cls-155"><circle class="cls-231" cx="74.22" cy="35.52" r="1.91"/></g><g class="cls-155"><circle class="cls-232" cx="74.22" cy="35.52" r="1.89"/></g><g class="cls-155"><circle class="cls-233" cx="74.22" cy="35.52" r="1.84"/></g><g class="cls-155"><circle class="cls-234" cx="74.22" cy="35.52" r="1.82"/></g><g class="cls-155"><circle class="cls-235" cx="74.22" cy="35.52" r="1.78"/></g><g class="cls-155"><circle class="cls-236" cx="74.22" cy="35.52" r="1.74"/></g><g class="cls-155"><circle class="cls-237" cx="74.22" cy="35.52" r="1.72"/></g><g class="cls-155"><circle class="cls-238" cx="74.22" cy="35.52" r="1.68"/></g><g class="cls-155"><circle class="cls-239" cx="74.22" cy="35.52" r="1.66"/></g><g class="cls-155"><circle class="cls-240" cx="74.22" cy="35.52" r="1.61"/></g><g class="cls-155"><circle class="cls-241" cx="74.22" cy="35.52" r="1.59"/></g><g class="cls-155"><circle class="cls-242" cx="74.22" cy="35.52" r="1.55"/></g><g class="cls-155"><circle class="cls-243" cx="74.22" cy="35.52" r="1.53"/></g><g class="cls-155"><circle class="cls-244" cx="74.22" cy="35.52" r="1.49"/></g><g class="cls-155"><circle class="cls-245" cx="74.22" cy="35.52" r="1.47"/></g><g class="cls-155"><circle class="cls-246" cx="74.22" cy="35.52" r="1.43"/></g><g class="cls-155"><circle class="cls-247" cx="74.22" cy="35.52" r="1.38"/></g><g class="cls-155"><circle class="cls-248" cx="74.22" cy="35.52" r="1.36"/></g><g class="cls-155"><circle class="cls-249" cx="74.22" cy="35.52" r="1.32"/></g><g class="cls-155"><circle class="cls-250" cx="74.22" cy="35.52" r="1.3"/></g><g class="cls-155"><circle class="cls-251" cx="74.22" cy="35.52" r="1.26"/></g><g class="cls-155"><circle class="cls-252" cx="74.22" cy="35.52" r="1.24"/></g><g class="cls-155"><circle class="cls-253" cx="74.22" cy="35.52" r="1.19"/></g><g class="cls-155"><circle class="cls-254" cx="74.22" cy="35.52" r="1.17"/></g><g class="cls-155"><circle class="cls-255" cx="74.22" cy="35.52" r="1.13"/></g><g class="cls-155"><circle class="cls-256" cx="74.22" cy="35.52" r="1.11"/></g><g class="cls-155"><circle class="cls-257" cx="74.22" cy="35.52" r="1.07"/></g><g class="cls-155"><circle class="cls-258" cx="74.22" cy="35.52" r="1.03"/></g><g class="cls-155"><circle class="cls-259" cx="74.22" cy="35.52" r="1.01"/></g><g class="cls-155"><circle class="cls-260" cx="74.22" cy="35.52" r="0.96"/></g><g class="cls-155"><circle class="cls-261" cx="74.22" cy="35.52" r="0.94"/></g><g class="cls-155"><circle class="cls-262" cx="74.22" cy="35.52" r="0.9"/></g><g class="cls-155"><circle class="cls-263" cx="74.22" cy="35.52" r="0.88"/></g><g class="cls-155"><circle class="cls-264" cx="74.22" cy="35.52" r="0.84"/></g><g class="cls-155"><circle class="cls-265" cx="74.22" cy="35.52" r="0.82"/></g><g class="cls-155"><circle class="cls-266" cx="74.22" cy="35.52" r="0.78"/></g><g class="cls-155"><circle class="cls-267" cx="74.22" cy="35.52" r="0.75"/></g><g class="cls-155"><circle class="cls-268" cx="74.22" cy="35.52" r="0.71"/></g><g class="cls-155"><circle class="cls-269" cx="74.22" cy="35.52" r="0.67"/></g><g class="cls-155"><circle class="cls-270" cx="74.22" cy="35.52" r="0.65"/></g><g class="cls-155"><circle class="cls-271" cx="74.22" cy="35.52" r="0.61"/></g><g class="cls-155"><circle class="cls-272" cx="74.22" cy="35.52" r="0.59"/></g><g class="cls-155"><circle class="cls-273" cx="74.22" cy="35.52" r="0.54"/></g><g class="cls-155"><circle class="cls-274" cx="74.22" cy="35.52" r="0.52"/></g><g class="cls-155"><circle class="cls-275" cx="74.22" cy="35.52" r="0.48"/></g><g class="cls-155"><circle class="cls-276" cx="74.22" cy="35.52" r="0.46"/></g><g class="cls-155"><circle class="cls-277" cx="74.22" cy="35.52" r="0.42"/></g><g class="cls-155"><circle class="cls-278" cx="74.22" cy="35.52" r="0.4"/></g><g class="cls-155"><circle class="cls-279" cx="74.22" cy="35.52" r="0.36"/></g><g class="cls-155"><circle class="cls-280" cx="74.22" cy="35.52" r="0.31"/></g><g class="cls-155"><circle class="cls-281" cx="74.22" cy="35.52" r="0.29"/></g><g class="cls-155"><circle class="cls-282" cx="74.22" cy="35.52" r="0.25"/></g><g class="cls-155"><circle class="cls-283" cx="74.22" cy="35.52" r="0.23"/></g><g class="cls-155"><circle class="cls-284" cx="74.22" cy="35.52" r="0.19"/></g><g class="cls-155"><circle class="cls-285" cx="74.22" cy="35.52" r="0.17"/></g><g class="cls-155"><circle class="cls-286" cx="74.22" cy="35.52" r="0.13"/></g><g class="cls-155"><circle class="cls-287" cx="74.22" cy="35.52" r="0.1"/></g><g class="cls-155"><circle class="cls-288" cx="74.22" cy="35.52" r="0.06"/></g><g class="cls-155"><circle class="cls-4" cx="74.22" cy="35.52" r="0.04"/></g></g><path class="cls-289" d="M76.67,0V24.81s13,.8,23,19.33c0,0,2.41-14.72-4.74-25.3C88.26,8.84,76.67,0,76.67,0"/><path class="cls-289" d="M99.16,44.41A48.39,48.39,0,0,0,94.32,37c-7.1,11.28-17.83,13.12-17.83,13.12V75s12.34-8.53,18.86-18.61a29.2,29.2,0,0,0,4.38-10.92Z"/><path class="cls-289" d="M73.17,75V50.13s-13-.8-23-19.32c0,0-2.41,14.69,4.74,25.32C61.56,66.08,73.17,75,73.17,75"/><path class="cls-289" d="M50.69,30.51A51.18,51.18,0,0,0,55.59,38c7.08-11.36,17.9-13.21,17.9-13.21V0S61.14,8.53,54.63,18.61a28.8,28.8,0,0,0-4.4,11.09Z"/><path class="cls-290" d="M9.85,101.56a4.87,4.87,0,0,0,.06.83,1.18,1.18,0,0,0,.23.53,1.27,1.27,0,0,0,.51.29,3.27,3.27,0,0,0,.86.09h.86a1.24,1.24,0,0,1,.67.14.61.61,0,0,1,.23.51v.85a.86.86,0,0,1-.07.38.33.33,0,0,1-.19.21.88.88,0,0,1-.29.11,1.94,1.94,0,0,1-.35,0H10.94a5.17,5.17,0,0,1-1.4-.15,3.22,3.22,0,0,1-1-.4,2,2,0,0,1-.59-.58,3.48,3.48,0,0,1-.31-.72,7.38,7.38,0,0,1-1.74.8,6.31,6.31,0,0,1-1.68.23,5,5,0,0,1-1.48-.21,4.07,4.07,0,0,1-1.37-.67,3.87,3.87,0,0,1-1-1.15A3.53,3.53,0,0,1,0,101a3.62,3.62,0,0,1,.38-1.66,5,5,0,0,1,1-1.32,7,7,0,0,1,1.43-1,12.22,12.22,0,0,1,1.65-.76c.57-.21,1.11-.4,1.66-.56l1.49-.42V93.93H9.83v7.63ZM7.61,97.2a14.37,14.37,0,0,0-2.24.56,7.4,7.4,0,0,0-1.74.76,3.94,3.94,0,0,0-1.14,1,1.94,1.94,0,0,0-.39,1.2,1.79,1.79,0,0,0,.23.92,1.52,1.52,0,0,0,.6.58,2.66,2.66,0,0,0,.84.32,4.88,4.88,0,0,0,.92.1,5.46,5.46,0,0,0,1.62-.23,5,5,0,0,0,1.32-.6V97.2Zm-4-6.29a1.27,1.27,0,0,1,.1-.5A1.38,1.38,0,0,1,4,90a1.79,1.79,0,0,1,.42-.3,1.54,1.54,0,0,1,.51-.1,1.35,1.35,0,0,1,.5.1,1.25,1.25,0,0,1,.42.3,1.43,1.43,0,0,1,.29.42,1.45,1.45,0,0,1,.11.5,1.27,1.27,0,0,1-.11.5,1.13,1.13,0,0,1-.29.42,1,1,0,0,1-.42.27,1.33,1.33,0,0,1-.5.11,1.3,1.3,0,0,1-1-.38A1.32,1.32,0,0,1,3.65,90.91Zm3.52,0a1.27,1.27,0,0,1,.1-.5A1.6,1.6,0,0,1,7.54,90a1.79,1.79,0,0,1,.42-.3,1.54,1.54,0,0,1,.51-.1,1.31,1.31,0,0,1,.5.1,1.25,1.25,0,0,1,.42.3,1.43,1.43,0,0,1,.29.42,1.25,1.25,0,0,1,.11.5,1.12,1.12,0,0,1-.11.5,1.13,1.13,0,0,1-.29.42A1,1,0,0,1,9,92.1a1.33,1.33,0,0,1-.5.11,1.25,1.25,0,0,1-1.3-1.3Zm9,12.91a5.31,5.31,0,0,1-.55.82,2.57,2.57,0,0,1-.63.52,2.72,2.72,0,0,1-.75.29,3.78,3.78,0,0,1-.92.09h-1a1.15,1.15,0,0,1-.67-.15.59.59,0,0,1-.23-.5V104a1.08,1.08,0,0,1,.06-.38.44.44,0,0,1,.19-.21,1.05,1.05,0,0,1,.3-.1,1.94,1.94,0,0,1,.35,0h.59a2.71,2.71,0,0,0,1.36-.36,1.82,1.82,0,0,0,.82-1.11,13.8,13.8,0,0,1,.8-2.29,9.58,9.58,0,0,1,.94-1.63,6.3,6.3,0,0,1,1-1.09,5.73,5.73,0,0,1,1-.65,4.68,4.68,0,0,1,.94-.31,3.7,3.7,0,0,1,.84-.09,5.14,5.14,0,0,1,1.51.23,4.69,4.69,0,0,1,1.22.63,4.55,4.55,0,0,1,.92.94,5.81,5.81,0,0,1,.65,1.12,5.93,5.93,0,0,1,.38,1.17A5.72,5.72,0,0,1,25.4,101a4.8,4.8,0,0,1-.12,1,5.3,5.3,0,0,1-.38,1,5.81,5.81,0,0,1-.63,1,4.36,4.36,0,0,1-.92.84,5.28,5.28,0,0,1-1.22.57,5.2,5.2,0,0,1-1.53.2,7.28,7.28,0,0,1-1.51-.16,6.78,6.78,0,0,1-1.25-.42,5.71,5.71,0,0,1-1-.59C16.58,104.24,16.33,104,16.14,103.82Zm7.27-2.58a4,4,0,0,0-.17-1,4.13,4.13,0,0,0-.52-1.11,3.15,3.15,0,0,0-.9-.88,2.38,2.38,0,0,0-1.3-.35,2.44,2.44,0,0,0-1.32.37,3.73,3.73,0,0,0-1.05,1,6.47,6.47,0,0,0-.78,1.42,8.14,8.14,0,0,0-.44,1.66,1.47,1.47,0,0,0,.49.36,5.46,5.46,0,0,0,.83.35,6.21,6.21,0,0,0,1,.25,5.48,5.48,0,0,0,1,.11,7.18,7.18,0,0,0,1.28-.11,3.06,3.06,0,0,0,1-.33,1.69,1.69,0,0,0,.63-.67A1.77,1.77,0,0,0,23.41,101.24ZM29,87.77h2.22V101a8.5,8.5,0,0,0,.06,1.11,2,2,0,0,0,.19.69.82.82,0,0,0,.38.36,1.77,1.77,0,0,0,.62.11h.84a1.19,1.19,0,0,1,.67.14.58.58,0,0,1,.23.51v.85a1,1,0,0,1-.06.38.33.33,0,0,1-.19.21.88.88,0,0,1-.29.11,2.06,2.06,0,0,1-.36,0H32.17a3.18,3.18,0,0,1-1.4-.28,2.68,2.68,0,0,1-1-.75,2.79,2.79,0,0,1-.56-1.13,5,5,0,0,1-.19-1.43V87.77Zm9.59,14.92a6.38,6.38,0,0,1-1-1c-.34-.37-.67-.77-1-1.17s-.56-.76-.79-1.11a7.37,7.37,0,0,0-.59-.76c0-.16.08-.37.15-.58s.14-.44.21-.65a3.58,3.58,0,0,1,.25-.55.91.91,0,0,1,.25-.31,6.12,6.12,0,0,1,.92-.44,10.19,10.19,0,0,1,1.22-.42,13.24,13.24,0,0,1,1.46-.32,11.34,11.34,0,0,1,1.7-.12,7.59,7.59,0,0,1,1.34.12,4.75,4.75,0,0,1,1.24.4,2.5,2.5,0,0,1,.9.67,1.46,1.46,0,0,1,.36,1,4.48,4.48,0,0,1-.09.9,5.88,5.88,0,0,1-.37,1.19,11.28,11.28,0,0,1-.84,1.47,13.27,13.27,0,0,1-1.49,1.74,5.64,5.64,0,0,0,.71.25l.92.19,1.09.12c.38,0,.8,0,1.2,0h1a1.25,1.25,0,0,1,.68.14.62.62,0,0,1,.23.51v.86a.84.84,0,0,1-.07.37.33.33,0,0,1-.19.21.88.88,0,0,1-.29.11,2,2,0,0,1-.36,0H45.69a10.08,10.08,0,0,1-1.87-.17,11.73,11.73,0,0,1-1.55-.38,9.62,9.62,0,0,1-1.19-.46c-.34-.17-.61-.31-.8-.42a10.44,10.44,0,0,1-1.11.55,10.65,10.65,0,0,1-1.28.46c-.46.12-.94.23-1.44.31a9,9,0,0,1-1.58.13H33.28a1.15,1.15,0,0,1-.67-.15.56.56,0,0,1-.23-.5v-.86a1.08,1.08,0,0,1,.06-.38.39.39,0,0,1,.19-.21,1.1,1.1,0,0,1,.29-.1,2.11,2.11,0,0,1,.36,0H35a10.29,10.29,0,0,0,1.28-.07l1.05-.12c.31-.06.56-.13.77-.19A2.41,2.41,0,0,0,38.6,102.69Zm4.45-4.07a1,1,0,0,0-.17-.52,1.65,1.65,0,0,0-.5-.44,3.9,3.9,0,0,0-.82-.32,4.37,4.37,0,0,0-1.09-.12,6.86,6.86,0,0,0-1.53.19,9.25,9.25,0,0,0-1.8.6,6.23,6.23,0,0,0,.5.82,10.09,10.09,0,0,0,.82,1c.31.36.65.71,1,1.05a6.89,6.89,0,0,0,1,.84,7.08,7.08,0,0,0,1.05-.8,10.3,10.3,0,0,0,.8-.88,5.44,5.44,0,0,0,.5-.84A1.2,1.2,0,0,0,43.05,98.62Zm4.31,6.9a1.15,1.15,0,0,1-.67-.15.59.59,0,0,1-.23-.5V104a.89.89,0,0,1,.07-.38.36.36,0,0,1,.19-.21.89.89,0,0,1,.29-.1,1.94,1.94,0,0,1,.35,0h3.36V87.74h2.22v17.78Zm9.81-17.75h2.22v17.77H57.17Zm21.34,13.79a4.87,4.87,0,0,0,.06.83,1.18,1.18,0,0,0,.23.53,1.22,1.22,0,0,0,.5.29,3.33,3.33,0,0,0,.86.09H81a1.19,1.19,0,0,1,.67.14.58.58,0,0,1,.23.51v.85a1,1,0,0,1-.06.38.33.33,0,0,1-.19.21.88.88,0,0,1-.29.11,2.06,2.06,0,0,1-.36,0H79.6a5.25,5.25,0,0,1-1.41-.15,3.26,3.26,0,0,1-1-.4,2,2,0,0,1-.59-.58,3.48,3.48,0,0,1-.31-.72,7.57,7.57,0,0,1-1.74.8,6.36,6.36,0,0,1-1.68.23,5.16,5.16,0,0,1-1.49-.21,4.12,4.12,0,0,1-1.36-.67,3.73,3.73,0,0,1-1-1.15,3.42,3.42,0,0,1-.4-1.7A3.5,3.5,0,0,1,69,99.31,5,5,0,0,1,70,98a7,7,0,0,1,1.43-1,12.22,12.22,0,0,1,1.65-.76c.57-.21,1.11-.4,1.66-.56l1.49-.42V93.93h2.22v7.63ZM76.29,97.2a14.5,14.5,0,0,0-2.25.56,7.79,7.79,0,0,0-1.74.76,4,4,0,0,0-1.13,1,2,2,0,0,0-.4,1.2,1.8,1.8,0,0,0,.24.92,1.52,1.52,0,0,0,.6.58,2.57,2.57,0,0,0,.84.32,4.88,4.88,0,0,0,.92.1,5.46,5.46,0,0,0,1.62-.23,5,5,0,0,0,1.32-.6V97.2Zm-4-6.29a1.27,1.27,0,0,1,.11-.5,1.38,1.38,0,0,1,.27-.42,1.6,1.6,0,0,1,.42-.3,1.53,1.53,0,0,1,.5-.1,1.22,1.22,0,0,1,.93.4,1.26,1.26,0,0,1,.39.92,1.27,1.27,0,0,1-.1.5,1.29,1.29,0,0,1-.71.69,1.34,1.34,0,0,1-.51.11,1.29,1.29,0,0,1-.94-.38A1.33,1.33,0,0,1,72.3,90.91Zm3.53,0a1.27,1.27,0,0,1,.1-.5A1.38,1.38,0,0,1,76.2,90a1.6,1.6,0,0,1,.42-.3,1.53,1.53,0,0,1,.5-.1,1.36,1.36,0,0,1,.51.1,1.25,1.25,0,0,1,.42.3,1.43,1.43,0,0,1,.29.42,1.45,1.45,0,0,1,.11.5,1.27,1.27,0,0,1-.11.5,1.13,1.13,0,0,1-.29.42,1,1,0,0,1-.42.27,1.34,1.34,0,0,1-.51.11,1.29,1.29,0,0,1-.94-.38A1.32,1.32,0,0,1,75.83,90.91Zm10.75,11.61a4.18,4.18,0,0,0,1.32.57,7.87,7.87,0,0,0,1.8.18h.1a1.25,1.25,0,0,1,.68.15.6.6,0,0,1,.23.5v.86a1,1,0,0,1-.07.38.33.33,0,0,1-.19.21,1.18,1.18,0,0,1-.29.11,2,2,0,0,1-.36,0h-.12a5.75,5.75,0,0,1-2.14-.34,5.36,5.36,0,0,1-1.45-.84,2.7,2.7,0,0,1-.81.84,2.29,2.29,0,0,1-1.3.34H81a1.23,1.23,0,0,1-.67-.15.6.6,0,0,1-.23-.5V104a1,1,0,0,1,.06-.38.44.44,0,0,1,.19-.21,1.05,1.05,0,0,1,.3-.1,1.31,1.31,0,0,1,.35,0h2.5a.72.72,0,0,0,.63-.35,2.07,2.07,0,0,0,.23-1V96H86.6v6.56Zm-4.34,6.71a1.36,1.36,0,0,1,.1-.51,1.71,1.71,0,0,1,.28-.42,1.26,1.26,0,0,1,.92-.39,1.31,1.31,0,0,1,.5.1,1.22,1.22,0,0,1,.42.29,1.5,1.5,0,0,1,.29.42,1.34,1.34,0,0,1,.11.51,1.15,1.15,0,0,1-.11.5,1.1,1.1,0,0,1-.29.42,1.17,1.17,0,0,1-.42.27,1.5,1.5,0,0,1-.5.11,1.25,1.25,0,0,1-1.3-1.3Zm3.52,0a1.36,1.36,0,0,1,.1-.51,1.71,1.71,0,0,1,.28-.42,1.26,1.26,0,0,1,.92-.39,1.27,1.27,0,0,1,.5.1,1.13,1.13,0,0,1,.42.29,1.5,1.5,0,0,1,.29.42,1.34,1.34,0,0,1,.11.51,1.15,1.15,0,0,1-.11.5,1.29,1.29,0,0,1-.71.69,1.5,1.5,0,0,1-.5.11,1.27,1.27,0,0,1-.94-.38A1.31,1.31,0,0,1,85.76,109.23Zm6.35-13.42c.48-.14,1-.27,1.49-.37a8,8,0,0,1,1.7-.17,4.75,4.75,0,0,1,1.69.29,3.62,3.62,0,0,1,1.26.84,4.46,4.46,0,0,1,.86,1.26,6.12,6.12,0,0,1,.46,1.59c.08.52.17,1,.25,1.53a8.53,8.53,0,0,0,.32,1.28,2.35,2.35,0,0,0,.48.88,1,1,0,0,0,.75.33h1.16a1.23,1.23,0,0,1,.67.15.6.6,0,0,1,.23.5v.86a.86.86,0,0,1-.07.38.35.35,0,0,1-.18.21,1.46,1.46,0,0,1-.3.11,1.94,1.94,0,0,1-.35,0H89.85a1.19,1.19,0,0,1-.67-.15.57.57,0,0,1-.23-.5V104a1,1,0,0,1,.06-.38.36.36,0,0,1,.19-.21.89.89,0,0,1,.29-.1,1.34,1.34,0,0,1,.36,0h8.78a1.61,1.61,0,0,1-.42-.71,5.36,5.36,0,0,1-.27-1.21c-.07-.49-.15-1-.26-1.45a4.34,4.34,0,0,0-.5-1.3,2.7,2.7,0,0,0-.92-.92,3,3,0,0,0-1.55-.36c-.19,0-.38,0-.61,0l-.71.11c-.23,0-.46.1-.67.15s-.4.12-.55.18v-2Zm2,13.42a1.36,1.36,0,0,1,.11-.51,1.68,1.68,0,0,1,.27-.42A1.57,1.57,0,0,1,95,108a1.53,1.53,0,0,1,.5-.1,1.36,1.36,0,0,1,.51.1,1.32,1.32,0,0,1,.42.29,2.09,2.09,0,0,1,.29.42,1.54,1.54,0,0,1,.1.51,1.31,1.31,0,0,1-.1.5,1.22,1.22,0,0,1-.29.42,1.26,1.26,0,0,1-.42.27,1.56,1.56,0,0,1-.51.11,1.29,1.29,0,0,1-.94-.38A1.31,1.31,0,0,1,94.16,109.23Zm13.9-6.71a4.39,4.39,0,0,0,1.32.57,7.87,7.87,0,0,0,1.8.18h.11a1.23,1.23,0,0,1,.67.15.6.6,0,0,1,.23.5v.86a.86.86,0,0,1-.07.38.35.35,0,0,1-.18.21,1.46,1.46,0,0,1-.3.11,1.94,1.94,0,0,1-.35,0h-.13a5.75,5.75,0,0,1-2.14-.34,5.15,5.15,0,0,1-1.44-.84,2.85,2.85,0,0,1-.82.84,2.29,2.29,0,0,1-1.3.34h-3a1.23,1.23,0,0,1-.67-.15.6.6,0,0,1-.23-.5V104a.86.86,0,0,1,.07-.38.36.36,0,0,1,.19-.21.89.89,0,0,1,.29-.1,1.31,1.31,0,0,1,.35,0H105a.72.72,0,0,0,.63-.35,2.07,2.07,0,0,0,.23-1V96h2.22v6.56Zm-4.32,6.71a1.19,1.19,0,0,1,.11-.51,1.29,1.29,0,0,1,.69-.71,1.48,1.48,0,0,1,.5-.1,1.27,1.27,0,0,1,.5.1,1.13,1.13,0,0,1,.42.29,1.79,1.79,0,0,1,.3.42,1.54,1.54,0,0,1,.1.51,1.31,1.31,0,0,1-.1.5,1.25,1.25,0,0,1-.3.42,1.09,1.09,0,0,1-.42.27,1.45,1.45,0,0,1-.5.11,1.27,1.27,0,0,1-.94-.38A1.31,1.31,0,0,1,103.74,109.23Zm3.52,0a1.19,1.19,0,0,1,.11-.51,1.44,1.44,0,0,1,.27-.42,1.57,1.57,0,0,1,.42-.29,1.48,1.48,0,0,1,.5-.1,1.27,1.27,0,0,1,.5.1,1.13,1.13,0,0,1,.42.29,1.79,1.79,0,0,1,.3.42,1.54,1.54,0,0,1,.1.51,1.31,1.31,0,0,1-.1.5,1.25,1.25,0,0,1-.3.42,1.09,1.09,0,0,1-.42.27,1.45,1.45,0,0,1-.5.11,1.27,1.27,0,0,1-.94-.38A1.31,1.31,0,0,1,107.26,109.23Zm9.62-6.73a3.9,3.9,0,0,0,1.34.59,8,8,0,0,0,1.83.18h.1a1.21,1.21,0,0,1,.67.15.57.57,0,0,1,.23.5v.86a1,1,0,0,1-.06.38.36.36,0,0,1-.19.21,1.36,1.36,0,0,1-.29.11,2.06,2.06,0,0,1-.36,0H120a5.83,5.83,0,0,1-2.16-.34,4.91,4.91,0,0,1-1.47-.86,2.2,2.2,0,0,1-.82.84,2.36,2.36,0,0,1-1.32.34h-3a1.19,1.19,0,0,1-.67-.15.57.57,0,0,1-.23-.5V104a1,1,0,0,1,.06-.38.33.33,0,0,1,.19-.21,1.36,1.36,0,0,1,.29-.11,2.06,2.06,0,0,1,.36,0h2.49a.72.72,0,0,0,.63-.35,2,2,0,0,0,.23-1.05V87.74h2.22V102.5Zm5.6-6.69c.48-.14,1-.27,1.49-.37a7.85,7.85,0,0,1,1.69-.17,4.77,4.77,0,0,1,1.7.29,3.71,3.71,0,0,1,1.26.84,4.68,4.68,0,0,1,.86,1.26,6.53,6.53,0,0,1,.46,1.59c.08.52.17,1,.25,1.53a8.59,8.59,0,0,0,.31,1.28,2.51,2.51,0,0,0,.49.88,1,1,0,0,0,.75.33h1.15a1.19,1.19,0,0,1,.67.15.57.57,0,0,1,.23.5v.86a1,1,0,0,1-.06.38.33.33,0,0,1-.19.21,1.18,1.18,0,0,1-.29.11,2,2,0,0,1-.36,0H120.21a1.23,1.23,0,0,1-.67-.15.6.6,0,0,1-.23-.5V104a.86.86,0,0,1,.07-.38.38.38,0,0,1,.18-.21,1.05,1.05,0,0,1,.3-.1,1.31,1.31,0,0,1,.35,0H129a1.61,1.61,0,0,1-.42-.71,5.89,5.89,0,0,1-.28-1.21,14.17,14.17,0,0,0-.25-1.45,4.34,4.34,0,0,0-.5-1.3,2.79,2.79,0,0,0-.92-.92,3,3,0,0,0-1.55-.36c-.19,0-.38,0-.61,0l-.71.11c-.23,0-.46.1-.67.15s-.4.12-.55.18v-2ZM124,91.52a1.36,1.36,0,0,1,.1-.51,1.68,1.68,0,0,1,.27-.42,2.09,2.09,0,0,1,.42-.29,1.54,1.54,0,0,1,.51-.1,1.35,1.35,0,0,1,.5.1,1.22,1.22,0,0,1,.42.29,1.75,1.75,0,0,1,.29.42,1.56,1.56,0,0,1,.11.51,1.31,1.31,0,0,1-.11.5,1.22,1.22,0,0,1-.29.42,1.17,1.17,0,0,1-.42.27,1.56,1.56,0,0,1-.5.11,1.3,1.3,0,0,1-1-.38A1.19,1.19,0,0,1,124,91.52Zm8.86,14a1.15,1.15,0,0,1-.67-.15.56.56,0,0,1-.23-.5V104a1.08,1.08,0,0,1,.06-.38.44.44,0,0,1,.19-.21,1.05,1.05,0,0,1,.3-.1,1.94,1.94,0,0,1,.35,0h3.36V87.74h2.22v17.78Zm9.81-17.75h2.22v17.77h-2.22Z"/><path class="cls-290" d="M10.54,116.48a4.69,4.69,0,0,0-1.44-.65,7.43,7.43,0,0,0-2-.21,4.94,4.94,0,0,0-2,.38,4.46,4.46,0,0,0-2.51,2.62,5.57,5.57,0,0,0,0,3.94,4.78,4.78,0,0,0,1,1.55,4.33,4.33,0,0,0,1.51,1,4.87,4.87,0,0,0,1.84.36c.31,0,.57,0,.78,0l.52,0,.38-.07a2.61,2.61,0,0,0,.33-.08v-3.82H6.37V120h4.42v6.51a8.41,8.41,0,0,1-1.44.38c-.32.06-.65.11-1,.15s-.84,0-1.34,0a7.52,7.52,0,0,1-2.71-.46,5.83,5.83,0,0,1-2.07-1.32,6,6,0,0,1-1.34-2.05,7.23,7.23,0,0,1-.48-2.71,6.68,6.68,0,0,1,.5-2.64,5.94,5.94,0,0,1,1.38-2,5.73,5.73,0,0,1,2.1-1.3A7.9,7.9,0,0,1,7,114.07c.46,0,.86,0,1.22,0s.65.08.92.13a5.38,5.38,0,0,1,.77.21l.76.25Z"/><path class="cls-290" d="M25.38,121.59a8,8,0,0,1-.31,2.35,4.47,4.47,0,0,1-.95,1.7,3.85,3.85,0,0,1-1.53,1,5.83,5.83,0,0,1-2.07.36,4.67,4.67,0,0,1-3.61-1.38,5.83,5.83,0,0,1-1.25-4v-7.35h1.8v7.12A8.22,8.22,0,0,0,17.6,123a3.75,3.75,0,0,0,.51,1.27,2.54,2.54,0,0,0,.94.84,3.11,3.11,0,0,0,1.47.3,3.32,3.32,0,0,0,1.46-.3,2.28,2.28,0,0,0,.95-.84,3.57,3.57,0,0,0,.52-1.27,7.75,7.75,0,0,0,.15-1.64v-7.12h1.78v7.35Z"/><path class="cls-290" d="M30.22,114.24H32v11h5.24v1.57h-7Z"/><path class="cls-290" d="M40.76,114.24h6.67v1.57H42.57v3.66h4.65v1.58H42.57v5.72H40.76V114.24Z"/><path class="cls-290" d="M67.67,116.48a4.69,4.69,0,0,0-1.44-.65,7.43,7.43,0,0,0-2-.21,4.94,4.94,0,0,0-2,.38,4.66,4.66,0,0,0-1.53,1,4.79,4.79,0,0,0-1,1.58,5.57,5.57,0,0,0,0,3.94,4.78,4.78,0,0,0,1,1.55,4.33,4.33,0,0,0,1.51,1,4.87,4.87,0,0,0,1.84.36c.32,0,.57,0,.78,0l.52,0,.38-.07a2.61,2.61,0,0,0,.33-.08v-3.82H63.5V120h4.42v6.51a8.41,8.41,0,0,1-1.44.38c-.32.06-.65.11-1,.15s-.84,0-1.34,0a7.42,7.42,0,0,1-2.7-.46,5.79,5.79,0,0,1-2.08-1.32A6,6,0,0,1,58,123.21a7.44,7.44,0,0,1-.48-2.71,6.86,6.86,0,0,1,.5-2.64,6.08,6.08,0,0,1,1.38-2,5.73,5.73,0,0,1,2.1-1.3,7.9,7.9,0,0,1,2.66-.46c.46,0,.86,0,1.22,0s.65.08.92.13a5.38,5.38,0,0,1,.77.21l.76.25Z"/><path class="cls-290" d="M72.85,114.24h7v1.57H74.63v3.66h4.76v1.58H74.63v4.13h5.24v1.57h-7Z"/><path class="cls-290" d="M84.38,114.24h2.45l5.53,10.1h0v-10.1h1.78v12.55h-2.3L86.2,116.46h0v10.33h-1.8V114.24Z"/><path class="cls-290" d="M99.11,114.24h7v1.57h-5.24v3.66h4.76v1.58h-4.76v4.13h5.24v1.57h-7Z"/><path class="cls-290" d="M110.53,114.24h3.08c.32,0,.63,0,.92,0s.59,0,.88.08a7.85,7.85,0,0,1,.82.17,3.35,3.35,0,0,1,.74.29,3.14,3.14,0,0,1,.62.44,2.54,2.54,0,0,1,.8,1.38,5,5,0,0,1,.11,1,2.59,2.59,0,0,1-.21,1.05,2.84,2.84,0,0,1-1.37,1.47,3.39,3.39,0,0,1-1,.33v0l.37.19a1.7,1.7,0,0,1,.3.23,4,4,0,0,1,.56.84l2.37,5h-2l-1.93-4.36a3.44,3.44,0,0,0-.44-.69,1.16,1.16,0,0,0-.46-.36,1.3,1.3,0,0,0-.55-.12,4.37,4.37,0,0,0-.65,0h-1.09v5.58h-1.8V114.24Zm1.8,5.4h1.53a3.41,3.41,0,0,0,2-.52,1.73,1.73,0,0,0,.71-1.45,1.61,1.61,0,0,0-.63-1.36,3,3,0,0,0-1.89-.48h-1.71v3.81Z"/><path class="cls-290" d="M127.26,114.24h1.88l5.3,12.55H132.5l-1.28-3.17h-6.14l-1.28,3.17h-1.89Zm.88,1.69-2.5,6.23h5Z"/><path class="cls-290" d="M137.88,114.24h1.8v11h5.24v1.57h-7Z"/></g></g></svg>