<svg xmlns="http://www.w3.org/2000/svg" xmlns:xlink="http://www.w3.org/1999/xlink" viewBox="0 0 95.14 73.7"><defs><style>.cls-1{fill:none;}.cls-2{clip-path:url(#clip-path);}.cls-3{fill:#153e35;}.cls-4{fill:#847770;}</style><clipPath id="clip-path" transform="translate(0 0)"><rect class="cls-1" width="95.14" height="73.7"/></clipPath></defs><g id="Layer_2" data-name="Layer 2"><g id="Layer_1-2" data-name="Layer 1"><g id="Artwork_105" data-name="Artwork 105"><g class="cls-2"><g class="cls-2"><path class="cls-3" d="M91.21,18.62a6.77,6.77,0,0,1-2.16.85,10.26,10.26,0,0,1-2.28.27,10.73,10.73,0,0,1-2.27-.25,6.51,6.51,0,0,1-2.16-.83,5.16,5.16,0,0,1-1.62-1.57,4.29,4.29,0,0,1-.64-2.4,4.6,4.6,0,0,1,.61-2.46,4.81,4.81,0,0,1,1.58-1.56,6.42,6.42,0,0,1,2.16-.79,11.92,11.92,0,0,1,4.66,0,6.42,6.42,0,0,1,2.16.79,4.62,4.62,0,0,1,1.58,1.56,4.43,4.43,0,0,1,.63,2.46,4.18,4.18,0,0,1-.64,2.37,4.81,4.81,0,0,1-1.61,1.56m1,1a5.59,5.59,0,0,0,2.25-2.16,6.69,6.69,0,0,0,.7-3.15,7.08,7.08,0,0,0-.64-3.09A6.4,6.4,0,0,0,92.71,9a7.62,7.62,0,0,0-2.64-1.37,11.7,11.7,0,0,0-3.3-.46,12.89,12.89,0,0,0-3.34.41,7.38,7.38,0,0,0-2.64,1.28A5.85,5.85,0,0,0,79,11.11a7.71,7.71,0,0,0-.63,3.24,5.83,5.83,0,0,0,.38,2.19,6.62,6.62,0,0,0,.89,1.61,4.84,4.84,0,0,0,1,1,3.57,3.57,0,0,0,.8.47l.19.08H51.77V.11H47.29V1l1.08.19a1.47,1.47,0,0,1,1,.66V17.51h0v3.85a11.37,11.37,0,0,1-.22,2.15,6.39,6.39,0,0,1-.77,2A4.25,4.25,0,0,1,46.92,27a4,4,0,0,1-2.23.56,3,3,0,0,1-2.83-1.43,7.7,7.7,0,0,1-.81-3.81V15.09H36.52v1a2.6,2.6,0,0,0,.54,0,5.24,5.24,0,0,1,.87.09,1.16,1.16,0,0,1,.71.5v6.1A9.52,9.52,0,0,0,39,25.4a6.22,6.22,0,0,0,1,2,5,5,0,0,0,1.77,1.36,6.17,6.17,0,0,0,2.61.49A6.81,6.81,0,0,0,46.45,29a4.47,4.47,0,0,0,1.37-.75,4,4,0,0,0,.9-1c.21-.39.41-.78.58-1.17h.07v3h4.42v-.85a3.17,3.17,0,0,0-.53,0,5,5,0,0,1-.55,0,1.72,1.72,0,0,1-.5-.11,1,1,0,0,1-.44-.38c0-.81,0-1.58,0-2.28V22.33H93.39a1.5,1.5,0,0,1,.63,1c.07.41.13.79.18,1.13H95v-4.7h-2.9Z" transform="translate(0 0)"/><path class="cls-3" d="M41.05.11v12H38.62V1.88a1.43,1.43,0,0,0-.95-.66L36.6,1V.11Z" transform="translate(0 0)"/><path class="cls-3" d="M28.75,8.06a5.54,5.54,0,0,1,4,1.33c.91.88,1.37,2.45,1.37,4.58a8.08,8.08,0,0,1-.29,2.27,6.14,6.14,0,0,1-.75,1.67,5.27,5.27,0,0,1-1,1.16,4.07,4.07,0,0,1-1.09.66h3V24.5h-.93c0-.34-.1-.73-.17-1.15a1.55,1.55,0,0,0-.61-1H.17V19.74H26.34a9.7,9.7,0,0,0,2.08-.24,6,6,0,0,0,2-.84,4.82,4.82,0,0,0,1.47-1.57,4.54,4.54,0,0,0,.6-2.43,3.52,3.52,0,0,0-1.34-3.11,6.17,6.17,0,0,0-3.62-.94H.17V5.88H1c0,.34.09.73.16,1.16a1.56,1.56,0,0,0,.62,1Z" transform="translate(0 0)"/><path class="cls-3" d="M3.23,1.66A1.6,1.6,0,0,1,1.69,3.31,1.61,1.61,0,0,1,.15,1.66,1.61,1.61,0,0,1,1.69,0,1.61,1.61,0,0,1,3.23,1.66" transform="translate(0 0)"/><path class="cls-4" d="M.14,69.45h1v4.09h-1ZM0,67.7a.56.56,0,0,1,.18-.42.66.66,0,0,1,.44-.17.63.63,0,0,1,.45.17.57.57,0,0,1,.17.42.61.61,0,0,1-.17.42.63.63,0,0,1-.45.17.62.62,0,0,1-.44-.18A.57.57,0,0,1,0,67.7" transform="translate(0 0)"/><path class="cls-4" d="M9.07,73.54V69.45H10v.68a1.74,1.74,0,0,1,.69-.61,2.18,2.18,0,0,1,1-.2,2.23,2.23,0,0,1,.82.14,1.42,1.42,0,0,1,.53.43,1.61,1.61,0,0,1,.17.4,6,6,0,0,1,0,.78v2.47h-1V71.45A1.85,1.85,0,0,0,12,70.38a.86.86,0,0,0-.72-.26,1.31,1.31,0,0,0-.61.12.82.82,0,0,0-.43.34.89.89,0,0,0-.15.38,5.18,5.18,0,0,0,0,.72v1.86Z" transform="translate(0 0)"/><path class="cls-4" d="M21,72.79l.83-.42a.77.77,0,0,0,.33.47,1.15,1.15,0,0,0,.64.16.89.89,0,0,0,.52-.14.49.49,0,0,0,.18-.4c0-.22-.21-.41-.66-.56l-.35-.14a2.81,2.81,0,0,1-1-.55.94.94,0,0,1-.28-.68,1.07,1.07,0,0,1,.45-.88,1.92,1.92,0,0,1,1.2-.34,1.83,1.83,0,0,1,.84.17,1.17,1.17,0,0,1,.53.5l-.7.45a.71.71,0,0,0-.27-.3.79.79,0,0,0-.45-.11.73.73,0,0,0-.45.13.36.36,0,0,0-.17.33c0,.21.26.41.77.58l.36.13a2.26,2.26,0,0,1,.85.51,1,1,0,0,1,.26.69,1.14,1.14,0,0,1-.47,1,2.2,2.2,0,0,1-1.29.34,2.37,2.37,0,0,1-1-.21,1.68,1.68,0,0,1-.67-.7" transform="translate(0 0)"/><path class="cls-4" d="M33.32,69.45v2.31a.94.94,0,0,0,1.1,1.11,1.27,1.27,0,0,0,.85-.25,1.23,1.23,0,0,0,.26-.86V69.45h1v2a2.45,2.45,0,0,1-.5,1.69,2.09,2.09,0,0,1-1.58.53,2.14,2.14,0,0,1-1.59-.51,2.48,2.48,0,0,1-.5-1.71v-2Z" transform="translate(0 0)"/><path class="cls-4" d="M45.31,70.11a1.36,1.36,0,0,1,.42-.59,1.07,1.07,0,0,1,.65-.2,1.68,1.68,0,0,1,.4.05,2.7,2.7,0,0,1,.4.14l-.35.79a1,1,0,0,0-.27-.13,1.66,1.66,0,0,0-.33,0,.72.72,0,0,0-.7.38,2.46,2.46,0,0,0-.22,1.24v1.79h-1V69.45h1Z" transform="translate(0 0)"/><path class="cls-4" d="M58.42,71.49a1.46,1.46,0,0,0-.31-1,1.08,1.08,0,0,0-.87-.35,1.12,1.12,0,0,0-.88.36,1.46,1.46,0,0,0-.32,1,1.57,1.57,0,0,0,.3,1,1.14,1.14,0,0,0,.88.35,1.08,1.08,0,0,0,.86-.39,1.4,1.4,0,0,0,.34-1m.95,2.05h-1V73a1.56,1.56,0,0,1-1.41.7,1.81,1.81,0,0,1-1.44-.59A2.34,2.34,0,0,1,55,71.49a2.29,2.29,0,0,1,.53-1.57,1.8,1.8,0,0,1,1.4-.6,1.93,1.93,0,0,1,.9.21,1.18,1.18,0,0,1,.54.62v-.7h1Z" transform="translate(0 0)"/><path class="cls-4" d="M67.2,73.54V69.45h.94v.68a1.71,1.71,0,0,1,.68-.61,2.22,2.22,0,0,1,1-.2,2.14,2.14,0,0,1,.81.14,1.28,1.28,0,0,1,.53.43,1.09,1.09,0,0,1,.16.4,3.51,3.51,0,0,1,0,.78v2.47h-1V71.45a2,2,0,0,0-.2-1.07.94.94,0,0,0-.75-.26,1.29,1.29,0,0,0-.6.12.82.82,0,0,0-.43.34,1,1,0,0,0-.16.38,6.68,6.68,0,0,0,0,.72v1.86Z" transform="translate(0 0)"/><path class="cls-4" d="M82.71,70.63a1.4,1.4,0,0,0-.51-.36,1.69,1.69,0,0,0-.67-.12,1.33,1.33,0,0,0-1,.36,1.35,1.35,0,0,0-.36,1,1.37,1.37,0,0,0,.36,1,1.42,1.42,0,0,0,1,.36,1.64,1.64,0,0,0,.65-.13,1.44,1.44,0,0,0,.48-.38v1.08a1.92,1.92,0,0,1-.58.21,2.36,2.36,0,0,1-.65.08,2.27,2.27,0,0,1-1.66-.61,2,2,0,0,1-.63-1.57,2,2,0,0,1,.66-1.59,2.44,2.44,0,0,1,1.73-.61,3.1,3.1,0,0,1,.62.07,1.57,1.57,0,0,1,.51.19Z" transform="translate(0 0)"/><path class="cls-4" d="M94,71a1.09,1.09,0,0,0-.35-.67,1.39,1.39,0,0,0-.81-.22,1.2,1.2,0,0,0-.78.22,1.27,1.27,0,0,0-.4.67Zm1,.63H91.57a1.29,1.29,0,0,0,.36.88,1.17,1.17,0,0,0,.86.32,1.46,1.46,0,0,0,.78-.19,1.54,1.54,0,0,0,.55-.6l.83.43a2.46,2.46,0,0,1-.89.92,2.53,2.53,0,0,1-1.26.3,2.23,2.23,0,0,1-1.64-.59,2.12,2.12,0,0,1-.61-1.59,2.14,2.14,0,0,1,.63-1.58,2.19,2.19,0,0,1,1.62-.62,2.22,2.22,0,0,1,1.62.57A2.07,2.07,0,0,1,95,71.46Z" transform="translate(0 0)"/><path class="cls-4" d="M40.45,36.77a1.06,1.06,0,0,1-1.18-1,1,1,0,0,1,1.12-.94,1,1,0,0,1,1.15,1,1,1,0,0,1-1.09.93m0-2.66c-1.38,0-2.34.72-2.34,1.7a.75.75,0,0,0,0,.2v0H22.82a1.08,1.08,0,0,0,.25-.85V33.55H21.93v1.69a.89.89,0,0,1-.13.55.79.79,0,0,1-.7.25H6.61a1.8,1.8,0,0,0,.06-.45v-2H5.5v1.94A1.74,1.74,0,0,1,5,36.73a2.19,2.19,0,0,1-1.59.58,2.15,2.15,0,0,1-1.58-.58,1.76,1.76,0,0,1-.51-1.24V33.55H.16v2a2.19,2.19,0,0,0,1,1.79,3.7,3.7,0,0,0,2.29.72,3.84,3.84,0,0,0,1.63-.34,3,3,0,0,0,1.16-.88H38.55a2.63,2.63,0,0,0,1.88.65c1.36,0,2.3-.72,2.3-1.69s-.94-1.73-2.3-1.73" transform="translate(0 0)"/><path class="cls-4" d="M45.23,31.42H44.4a.27.27,0,0,1-.18-.27.31.31,0,0,1,.34-.28c.16,0,.26.05.29.16l.37-.14a.72.72,0,0,0-.65-.32c-.44,0-.8.25-.8.59a1,1,0,0,0,.09.26h-.41v.34h1.78Z" transform="translate(0 0)"/><path class="cls-4" d="M93.84,32.14v3.13a1,1,0,0,1-.09.53c-.1.17-.35.24-.72.24H78.16a1,1,0,0,0,.26-.85v-3H77.27v3.1a1,1,0,0,1-.12.55.76.76,0,0,1-.68.25h-15a1.08,1.08,0,0,0,.25-.85V33.55H60.6v1.69a.94.94,0,0,1-.13.55.78.78,0,0,1-.69.25H46.16a2.17,2.17,0,0,1-.89-.13c-.22-.1-.33-.34-.33-.7V32.14H43.8v3.4a1.14,1.14,0,0,0,.42,1,1.79,1.79,0,0,0,1.27.39H93.27c1.14,0,1.72-.44,1.72-1.33V32.14Z" transform="translate(0 0)"/><path class="cls-4" d="M3.43,33a.6.6,0,0,0,.43-.17.58.58,0,0,0,0-.84.59.59,0,0,0-.43-.16A.68.68,0,0,0,3,32a.59.59,0,0,0-.18.41.58.58,0,0,0,.18.41.64.64,0,0,0,.45.18" transform="translate(0 0)"/><path class="cls-4" d="M20.52,37.48a.62.62,0,0,0-.45.17.54.54,0,0,0-.18.41.58.58,0,0,0,.18.42.65.65,0,0,0,.45.16.62.62,0,0,0,.43-.16.57.57,0,0,0,.17-.42.51.51,0,0,0-.17-.42.6.6,0,0,0-.43-.16" transform="translate(0 0)"/><path class="cls-4" d="M22.47,37.48a.61.61,0,0,0-.44.17.55.55,0,0,0-.19.41.59.59,0,0,0,.19.42.65.65,0,0,0,.44.16.57.57,0,0,0,.43-.16.54.54,0,0,0,.18-.42.49.49,0,0,0-.18-.42.57.57,0,0,0-.43-.16" transform="translate(0 0)"/><path class="cls-4" d="M59.24,33a.63.63,0,0,0,.45-.17.59.59,0,0,0,.17-.42.55.55,0,0,0-.17-.42.62.62,0,0,0-.45-.16.61.61,0,0,0-.43.17.59.59,0,0,0-.18.41.62.62,0,0,0,.61.59" transform="translate(0 0)"/><path class="cls-4" d="M61.22,33a.59.59,0,0,0,.42-.17.56.56,0,0,0,.18-.42.59.59,0,0,0-.17-.42.62.62,0,0,0-.43-.16.64.64,0,0,0-.45.17.55.55,0,0,0-.18.41.54.54,0,0,0,.18.41.61.61,0,0,0,.45.18" transform="translate(0 0)"/><path class="cls-3" d="M48.89,64.8a4.56,4.56,0,0,1-.9.08,3.25,3.25,0,0,0-.55,0v1h6.81v-1a3.31,3.31,0,0,0-.54,0,4.67,4.67,0,0,1-.91-.08,1.23,1.23,0,0,1-.74-.45V39.74H47.44v.95a3.25,3.25,0,0,0,.55,0,4.56,4.56,0,0,1,.9.08,1.18,1.18,0,0,1,.74.46V64.35a1.21,1.21,0,0,1-.74.45" transform="translate(0 0)"/><path class="cls-3" d="M78.45,48.84V47.42h-3V39.74H70.84v.95a3.21,3.21,0,0,0,.54,0,4.6,4.6,0,0,1,.91.08,1.2,1.2,0,0,1,.74.46v6.15H70.35v1.42H73v15s.21,3.21,5.19,2V65s-2.68,1.06-2.77-1.24v-15Z" transform="translate(0 0)"/><path class="cls-3" d="M28.63,65.87l0-1a3.26,3.26,0,0,0-.53,0,5.49,5.49,0,0,1-.91-.07,1.2,1.2,0,0,1-.74-.46V53.51a8,8,0,0,0-.34-2.41,5,5,0,0,0-2.89-3.2,6.84,6.84,0,0,0-2.61-.46,7.29,7.29,0,0,0-2.14.27,4.71,4.71,0,0,0-1.42.71,3.37,3.37,0,0,0-.92,1c-.23.36-.44.73-.62,1.08l-.26.71a.11.11,0,0,1,0-.08,5.45,5.45,0,0,0-1.07-1.92,5.42,5.42,0,0,0-1.83-1.28,6.84,6.84,0,0,0-2.61-.46,7.13,7.13,0,0,0-2.13.27,4.9,4.9,0,0,0-1.43.71,3.51,3.51,0,0,0-.92,1c-.17.28-.33.56-.47.82V47.44H.16v1a3,3,0,0,0,.51,0,4.53,4.53,0,0,1,.91.09,1.14,1.14,0,0,1,.73.45V65.88H4.75V54.08a6.8,6.8,0,0,1,.73-2.9A1.08,1.08,0,0,0,5.59,51a4.46,4.46,0,0,1,1.48-1.38,4.83,4.83,0,0,1,2.3-.52,3.17,3.17,0,0,1,2.91,1.34A6.69,6.69,0,0,1,13.12,54V65.87h4.62l0-1a3.17,3.17,0,0,0-.53,0,5.29,5.29,0,0,1-.9-.07,1.18,1.18,0,0,1-.74-.46V55.13h0A6.43,6.43,0,0,1,17,50.37a5.23,5.23,0,0,1,1-.75,4.81,4.81,0,0,1,2.29-.52,3.19,3.19,0,0,1,2.92,1.34A6.69,6.69,0,0,1,24,54V65.87Z" transform="translate(0 0)"/><path class="cls-3" d="M94.36,64.88a5.37,5.37,0,0,1-.9-.07,1.23,1.23,0,0,1-.75-.46V53.51a8,8,0,0,0-.34-2.41,5.14,5.14,0,0,0-1.06-1.92,5.38,5.38,0,0,0-1.82-1.28,7,7,0,0,0-2.62-.45,7.32,7.32,0,0,0-2.14.26,5.16,5.16,0,0,0-1.43.71,3.79,3.79,0,0,0-.91,1c-.15.23-.28.46-.4.68V39.74H77.37v.95a3.25,3.25,0,0,0,.55,0,4.56,4.56,0,0,1,.9.08,1.16,1.16,0,0,1,.73.46v24.6H82V54.23a7.11,7.11,0,0,1,1-3.42,3.7,3.7,0,0,1,.55-.66,7.78,7.78,0,0,1,.76-.53,4.76,4.76,0,0,1,2.29-.52,3.14,3.14,0,0,1,2.9,1.34A6.6,6.6,0,0,1,90.29,54V65.87H95v-1a4.44,4.44,0,0,0-.62,0" transform="translate(0 0)"/><path class="cls-3" d="M41.38,61.1a5.29,5.29,0,0,1-.79,1.76,4.27,4.27,0,0,1-1.46,1.3,4.35,4.35,0,0,1-2.21.52,4.75,4.75,0,0,1-2.3-.49,4.33,4.33,0,0,1-1.45-1.29,5.12,5.12,0,0,1-.75-1.76,9.57,9.57,0,0,1-.2-1.89,9.84,9.84,0,0,1,.2-1.91,5.19,5.19,0,0,1,.75-1.74,4,4,0,0,1,1.45-1.28,4.87,4.87,0,0,1,2.3-.49,4.42,4.42,0,0,1,2.24.52,4.29,4.29,0,0,1,1.46,1.3,5.45,5.45,0,0,1,.78,1.76,8.7,8.7,0,0,1,.22,1.84,7.52,7.52,0,0,1-.24,1.85m4.16,3.78a4.56,4.56,0,0,1-.9-.08,1.25,1.25,0,0,1-.73-.42V53.07c.08-5.73-5.44-5.59-5.44-5.59A10.65,10.65,0,0,0,31,50.2l1,1.21a8.4,8.4,0,0,1,3.63-2.06c3.55-1,5.05.77,5.64,2a4.67,4.67,0,0,1,.36,1.52v.71a.4.4,0,0,0,0,.11v1.38a2,2,0,0,0-.12-.21,2.82,2.82,0,0,0-.19-.29l0,0a1.74,1.74,0,0,0-.18-.22,4.67,4.67,0,0,0-1-.85,6.9,6.9,0,0,0-1.49-.72,6.28,6.28,0,0,0-2-.3,8.13,8.13,0,0,0-3,.51,5.78,5.78,0,0,0-2.09,1.42,5.5,5.5,0,0,0-1.17,2.14,8.62,8.62,0,0,0-.39,2.71,8.05,8.05,0,0,0,.43,2.68,6.12,6.12,0,0,0,1.28,2.15,5.93,5.93,0,0,0,2.08,1.45,7.66,7.66,0,0,0,2.88.52,7,7,0,0,0,2.95-.57,5,5,0,0,0,2-1.82l.06-.11v2.33h4.47v-1a3.16,3.16,0,0,0-.55,0" transform="translate(0 0)"/><path class="cls-3" d="M67,61.1a5.09,5.09,0,0,1-.79,1.76,4.21,4.21,0,0,1-1.47,1.3,4.29,4.29,0,0,1-2.2.52,4.75,4.75,0,0,1-2.3-.49,4.33,4.33,0,0,1-1.45-1.29A5.12,5.12,0,0,1,58,61.14a8.87,8.87,0,0,1-.2-1.89,9.12,9.12,0,0,1,.2-1.91,5.19,5.19,0,0,1,.75-1.74,4,4,0,0,1,1.45-1.28,4.87,4.87,0,0,1,2.3-.49,4.42,4.42,0,0,1,2.24.52,4.35,4.35,0,0,1,1.45,1.3A5.08,5.08,0,0,1,67,57.41a8.66,8.66,0,0,1,.21,1.84A7.5,7.5,0,0,1,67,61.1m4.16,3.78a4.34,4.34,0,0,1-.89-.08,1.19,1.19,0,0,1-.74-.42V53.07c.08-5.73-5.44-5.59-5.44-5.59A10.65,10.65,0,0,0,56.6,50.2l1,1.21a8.39,8.39,0,0,1,3.62-2.06c3.56-1,5,.77,5.65,2a4.23,4.23,0,0,1,.35,1.52v.71a.4.4,0,0,1,0,.11v1.38a1,1,0,0,0-.11-.21,1.77,1.77,0,0,0-.19-.29l0,0a1.74,1.74,0,0,0-.18-.22,4.86,4.86,0,0,0-1-.85,7.23,7.23,0,0,0-1.5-.72,6.33,6.33,0,0,0-2-.3,8,8,0,0,0-3,.51,5.53,5.53,0,0,0-2.09,1.42,5.83,5.83,0,0,0-1.2,2.14,9.6,9.6,0,0,0-.37,2.71A8.05,8.05,0,0,0,56,61.93a6,6,0,0,0,1.27,2.15,6,6,0,0,0,2.1,1.45,7.57,7.57,0,0,0,2.87.52,6.91,6.91,0,0,0,2.94-.57,4.94,4.94,0,0,0,2-1.82l.06-.11v2.33h4.48v-1a3.35,3.35,0,0,0-.55,0" transform="translate(0 0)"/></g></g></g></g></g></svg>