<svg xmlns="http://www.w3.org/2000/svg" viewBox="0 0 163.99 140.86"><defs><style>.cls-1{fill:#28a8db;}.cls-2{fill:#24a8dc;}.cls-3{fill:#fdfefe;}</style></defs><g id="Layer_2" data-name="Layer 2"><g id="Layer_1-2" data-name="Layer 1"><path class="cls-1" d="M40.52,106.24c-6.23,0-12.46,0-18.69,0a3.55,3.55,0,0,1-3.38-2.91,22,22,0,0,0-.49-3.12,3.1,3.1,0,0,0-2.42-2.51,3.21,3.21,0,0,0-3.87,2.85c0,.35,0,.49.41.49,1.37,0,2.73,0,4.09,0,.34,0,.48.06.47.44a38.67,38.67,0,0,1,0,4.17c-.68,5.08-6.17,8.57-11,5.58A7.57,7.57,0,0,1,2,104.7c0-.6,0-1.19-.05-1.78,0-.93-.32-1.22-1.23-1.32-.24,0-.68.14-.66-.31s.45-.26.71-.27c.88,0,1.76,0,2.65,0,.29,0,.39.06.4.4a40.42,40.42,0,0,0,.15,4.12c.48,3.37,4.28,6.17,7.93,4.12a5.62,5.62,0,0,0,3-4.78c0-.55,0-1.12,0-1.68,0-.32-.12-.4-.42-.39-1.43,0-2.86,0-4.28,0-.41,0-.52-.13-.5-.52a10.25,10.25,0,0,1,.79-3.83,4.37,4.37,0,0,1,3.74-2.63,5.91,5.91,0,0,1,2.47.2,4.6,4.6,0,0,1,2.91,3,16.61,16.61,0,0,1,.73,3.62,1.85,1.85,0,0,0,2,1.79h37a1.67,1.67,0,0,0,1.84-1.85c0-1.22,0-2.43,0-3.65,0-.82,0-1.64,0-2.45,0-.32.09-.42.4-.42,1,0,2,0,3,0,.2,0,.4,0,.42.26s-.18.3-.38.31l-.34,0c-.86.08-1.19.42-1.19,1.3,0,1.52,0,3,.06,4.56a4.15,4.15,0,0,1-.34,1.87,3.35,3.35,0,0,1-3.27,1.87c-2.59,0-5.19,0-7.79,0Z"/><path class="cls-1" d="M155.42,104.45a3.22,3.22,0,0,1-3.2,2.13,3.71,3.71,0,0,1-3.61-1.5,4.19,4.19,0,0,0,0,.65c.08.45-.13.52-.53.52H130c-.38,0-.54.08-.66.47a7.45,7.45,0,0,1-6.34,5.53c-.35.05-.53,0-.65-.36s-.36-.79-.54-1.18c0,0,0-.06,0-.12a7.41,7.41,0,0,0,2.28-.47,6.08,6.08,0,0,0,3.28-3.52c.12-.32,0-.35-.28-.35-.59,0-1.18,0-1.77,0a4.19,4.19,0,0,1-4.45-3.6,6.09,6.09,0,0,1,.68-4.44,4.84,4.84,0,0,1,6.87-1.3,3.92,3.92,0,0,1,1.35,3.21c0,1.3,0,2.59,0,3.89,0,.33.09.45.43.45H146.3c.32,0,.4-.11.4-.41,0-1.75,0-3.49,0-5.24,0-.93-.27-1.2-1.21-1.34a3,3,0,0,0-.42,0c-.21,0-.29-.09-.28-.29s.12-.28.31-.27l3.22.05c.33,0,.29.22.29.43,0,1.45,0,2.91,0,4.37a4.57,4.57,0,0,0,.12,1,2.5,2.5,0,0,0,2,2,4.61,4.61,0,0,0,.9.11c1.42,0,2.09-.61,2.08-2,0-1.79,0-3.59-.05-5.38,0-.4.06-.6.51-.54s1-.2,1.33.12.07.85.08,1.3a36.15,36.15,0,0,0,.09,4,2.77,2.77,0,0,0,2.57,2.45l.19,0c1.74.2,2.62-.65,2.55-2.36-.08-2-.06-3.94-.1-5.9,0-.38.09-.52.47-.49a10.28,10.28,0,0,0,1.11,0c.24,0,.35.07.35.32,0,2.29.08,4.58,0,6.87a3.44,3.44,0,0,1-3.51,3.36,4.06,4.06,0,0,1-2.89-.81,6.34,6.34,0,0,1-1.05-1.37m-27.54-2.73h0c0-.8,0-1.6,0-2.4a1.9,1.9,0,0,0-1.16-1.78,2.38,2.38,0,0,0-2.92.79,4.42,4.42,0,0,0-.71,4.09,2.54,2.54,0,0,0,2.75,2c.54,0,1.09,0,1.63,0,.33,0,.45-.08.44-.42,0-.77,0-1.54,0-2.31"/><path class="cls-1" d="M104.2,104.09a3.83,3.83,0,0,1-2.9,2.09,3.07,3.07,0,0,1-.52.06H74.44c-.38,0-.46-.07-.33-.45.44-1.35.42-1.35,1.81-1.35,1.91,0,3.82,0,5.72,0,.37,0,.51-.08.48-.48A8.47,8.47,0,0,0,80,98.72a2.31,2.31,0,0,0-1.51-.86c-.22,0-.29-.15-.28-.36s0-.67,0-1,.12-.43.45-.38a4.51,4.51,0,0,1,3,1.72,10.73,10.73,0,0,1,2.16,5.31c0,.2.07.41.09.61,0,.76,0,.7.74.7h15.42a2.8,2.8,0,0,0,1.39-.31,1.8,1.8,0,0,0,1-1.66c0-2,0-3.94,0-5.91,0-.37.07-.5.47-.5,1,0,2,.11,3,0,.19,0,.35,0,.37.26s-.12.3-.32.3h-.09c-1.12.07-1.52.22-1.51,1.76,0,1.12,0,2.24.08,3.36a3.1,3.1,0,0,0,1.24,2.29,1.86,1.86,0,0,0,1.21.38c2.11,0,4.23,0,6.34,0a1.72,1.72,0,0,0,1.93-2q0-6.39-.1-12.78c0-.38,0-.77,0-1.15s.09-.34.34-.34l3.31,0c.21,0,.34.06.36.29s-.1.32-.3.34-.42,0-.63,0c-.81.09-1.12.44-1.11,1.26,0,2.44,0,4.87,0,7.31,0,1.74.06,3.49,0,5.23a3.25,3.25,0,0,1-2,3.3,4.48,4.48,0,0,1-1.78.3c-2,0-4,0-6,0a3.11,3.11,0,0,1-3-1.76l-.21-.41"/><path class="cls-1" d="M66.55,119.81a32.61,32.61,0,0,1,7.18.38,8.67,8.67,0,0,1,6.18,4.23A9.36,9.36,0,0,1,80.2,133a9.22,9.22,0,0,1-6.78,5.35,18.69,18.69,0,0,1-5.63.31,44.3,44.3,0,0,0-5.76-.08c-.24,0-.5,0-.53-.31s0-.4.32-.43.73-.11,1.09-.18a1.14,1.14,0,0,0,.91-1.05,9.39,9.39,0,0,0,.09-1.19q0-6.22,0-12.45c0-.16,0-.32,0-.48-.09-1.27-.34-1.56-1.59-1.74-.28,0-.52-.1-.51-.44s.28-.34.52-.35l4.22-.18m-.31,8.56h0c0,1.09,0,2.18,0,3.27a34.21,34.21,0,0,0,.08,3.65,2.49,2.49,0,0,0,2.14,2.42,9.47,9.47,0,0,0,3.44,0,6.51,6.51,0,0,0,4.82-2.9A10.5,10.5,0,0,0,78,127a7.13,7.13,0,0,0-4.25-5.5,11.34,11.34,0,0,0-5.79-.77c-1.62.16-1.7.25-1.72,1.87,0,1.92,0,3.84,0,5.76"/><path class="cls-1" d="M105.91,133.59a23.7,23.7,0,0,0,.06,2.75c.11,1,.41,1.3,1.41,1.45.2,0,.41.07.62.09s.3.2.29.41a.3.3,0,0,1-.34.32c-.32,0-.64-.05-1-.05-1.73,0-3.46-.07-5.19.05h-.33c-.27,0-.38-.13-.39-.37s.08-.36.33-.37.51-.06.76-.1c1-.15,1.31-.52,1.35-1.49,0-.64,0-1.28,0-1.93,0-4,0-8,0-12,0-1.05-.36-1.57-1.42-1.57-.12,0-.25-.06-.37-.06-.27,0-.43-.1-.43-.4s.18-.36.44-.37c1.12-.06,2.23-.17,3.35-.18a27.77,27.77,0,0,1,5.47.18,5,5,0,0,1,3.72,2.35,4.79,4.79,0,0,1-2,6.46,2.82,2.82,0,0,1-.59.32c-.48.15-.5.4-.3.82a28,28,0,0,0,5.24,7.71,10,10,0,0,0,3.47,2.51,2.61,2.61,0,0,0,1.82.22c.08,0,.17,0,.2.05s-.1.19-.2.23a3.91,3.91,0,0,1-1.89.14,10.18,10.18,0,0,1-5.76-3,30.58,30.58,0,0,1-4.05-5.28c-.3-.42-.61-.83-.87-1.27a2.13,2.13,0,0,0-1.84-1.1c-1.53-.13-1.62-.07-1.62,1.42v2.05m0-8.56v3.5c0,.62,0,.67.64.69.75,0,1.51.05,2.25,0a3.33,3.33,0,0,0,3.12-2.16,5.82,5.82,0,0,0,.33-1.69,4.18,4.18,0,0,0-2.87-4.47,6.93,6.93,0,0,0-2.72-.19c-.64.06-.75.21-.75.86V125"/><path class="cls-1" d="M33.82,129.14a9.49,9.49,0,0,1-8.42,9.73c-4,.51-7.47-.63-9.83-4.09A9.85,9.85,0,0,1,22,119.62a10.15,10.15,0,0,1,8,1.58,9.11,9.11,0,0,1,3.73,6.41,6.53,6.53,0,0,1,.08.76c0,.26,0,.52,0,.77M31,130.73c0-3.08-.42-5.29-1.68-7.27a6.38,6.38,0,0,0-6.65-3.07,6.19,6.19,0,0,0-5.28,4.38,11.85,11.85,0,0,0-.3,6.44,9.61,9.61,0,0,0,2.56,5.06c2.46,2.47,7.57,2.72,10-1A8.73,8.73,0,0,0,31,130.73"/><path class="cls-1" d="M90.59,131.26H88.43c-.71,0-.87.11-1.09.77-.53,1.62-1.15,3.19-1.53,4.85-.15.68,0,.82.65.93l.57.06c.28,0,.64,0,.6.41s-.35.34-.62.32c-1.28-.09-2.56-.06-3.84,0-.37,0-.74,0-1.1.05s-.43-.08-.44-.36.18-.37.43-.37l.48,0a2,2,0,0,0,1.8-1.36c1.47-3.56,2.82-7.17,4.18-10.78L90,121.84c.15-.41.11-.88.28-1.25s.68-.41,1-.7c.65-.65.73-.6,1,.26q1.8,5.37,3.62,10.73c.62,1.8,1.2,3.61,1.88,5.39a2.23,2.23,0,0,0,2.25,1.6c.18,0,.39,0,.48.22s0,.55-.48.52c-1.29-.1-2.59-.07-3.89-.06-.68,0-1.37,0-2.06.06-.25,0-.5,0-.53-.32s.21-.4.49-.42a7.46,7.46,0,0,0,.81-.1c.56-.11.71-.32.56-.88-.35-1.41-.84-2.78-1.3-4.16s-.19-1.46-2-1.47H90.59m.15-8.38c-.11.23-.19.35-.24.48-.75,2-1.51,4.1-2.25,6.16-.2.54-.13.61.44.62q1.84,0,3.69,0c.71,0,.81-.14.59-.8-.5-1.55-1-3.09-1.53-4.64a9.92,9.92,0,0,0-.7-1.82"/><path class="cls-1" d="M155.62,129.5c.54-.95,1-1.79,1.5-2.64,1-1.75,1.93-3.5,2.79-5.31.28-.6.21-.74-.45-.88-.26-.06-.53-.09-.8-.13a.36.36,0,0,1-.37-.41c0-.29.19-.34.42-.32,1.62.07,3.23.09,4.85,0,.25,0,.4,0,.42.33a.34.34,0,0,1-.35.41,3.28,3.28,0,0,0-2.66,1.83c-1.46,2.34-2.8,4.77-4.17,7.17a5.5,5.5,0,0,0-.57,2.7c0,1.28,0,2.56.06,3.84s.38,1.58,1.64,1.72c.26,0,.51.06.77.07s.4.07.4.35-.14.4-.42.38c-1.54-.06-3.07-.1-4.61-.07-.79,0-1.57,0-2.35.08-.29,0-.48-.06-.49-.37s.18-.36.44-.38.63-.05,1-.1a1.22,1.22,0,0,0,1.2-1.21,6.2,6.2,0,0,0,.07-1c0-1,0-1.92,0-2.88a6.12,6.12,0,0,0-.76-3.13c-1.27-2.42-2.51-4.86-3.75-7.3a2.7,2.7,0,0,0-2.43-1.73.38.38,0,0,1-.43-.45c0-.33.25-.31.48-.3,1.9.09,3.81.1,5.71,0,.25,0,.45,0,.48.32s-.14.39-.4.43-.47.06-.71.11c-.54.13-.63.29-.44.82a25.15,25.15,0,0,0,1.28,2.79q1.14,2.28,2.29,4.54c.1.2.22.39.39.68"/><path class="cls-1" d="M7,119.42a18.1,18.1,0,0,1,3.26.54c.14,0,.2.12.24.26a13.81,13.81,0,0,1,.42,2.93c0,.21,0,.38-.29.41s-.43,0-.5-.29a5.39,5.39,0,0,0-.72-1.56C8.28,120,5.45,120,4.16,120.9a3.24,3.24,0,0,0-.48,4.48A6.44,6.44,0,0,0,5.59,127a29.19,29.19,0,0,1,3.54,2.38,5.52,5.52,0,0,1,1.38,7,4.89,4.89,0,0,1-3.23,2.32,9.17,9.17,0,0,1-6.1-.55,1,1,0,0,1-.61-.67A16.6,16.6,0,0,1,0,134.28c0-.23,0-.42.28-.47s.39.09.48.34A6.27,6.27,0,0,0,2.49,137a4.63,4.63,0,0,0,4.82.75A3.33,3.33,0,0,0,9,133.92a4.84,4.84,0,0,0-2.5-3.18c-1-.67-2.07-1.28-3-2a6,6,0,0,1-2.25-3,4.67,4.67,0,0,1,3.07-5.86,8.08,8.08,0,0,1,2.7-.4"/><path class="cls-2" d="M138.14,128.53c0,2.19,0,4.38,0,6.58,0,.48,0,1,.09,1.43a1.2,1.2,0,0,0,1.18,1.23c.3,0,.6.07.9.1s.53,0,.52.38-.27.37-.53.36c-1.84-.1-3.68-.08-5.52-.05l-1.3.05c-.25,0-.54.07-.56-.33s.29-.39.56-.41.7-.05,1.05-.11a1.25,1.25,0,0,0,1.19-1.18,9.39,9.39,0,0,0,.09-1.19q0-7,0-14c0-.56-.08-.65-.64-.65-1.13,0-2.27,0-3.41.06a3.25,3.25,0,0,0-2.88,2.12c-.06.13-.11.27-.18.39s-.34.15-.52.09-.25-.21-.18-.43a28.89,28.89,0,0,0,.94-3.66c0-.17,0-.36.29-.39s.31.09.39.28a1,1,0,0,0,.87.59,10.9,10.9,0,0,0,1.14.07c4,0,8,0,12.06,0,.7,0,1.44.05,1.86-.71.08-.14.25-.13.4-.08s.12.2.09.33a17.45,17.45,0,0,0-.36,3.81c0,.26-.09.4-.35.41s-.4-.08-.42-.35a2.23,2.23,0,0,0,0-.23c-.26-1.5-.49-1.89-2.36-2.2a25.9,25.9,0,0,0-3.84-.1c-.48,0-.55.27-.54.65v7.12Z"/><path class="cls-1" d="M38.73,129.22v-6a8.05,8.05,0,0,0-.09-1.39,1.19,1.19,0,0,0-1.07-1.12c-.33-.06-.66-.08-1-.12s-.49,0-.47-.39.24-.36.5-.35c.94,0,1.89.08,2.83.07,1.2,0,2.4,0,3.6-.06.22,0,.49-.1.53.3s-.21.42-.47.43c-1.89.08-1.9.66-2,2q0,.56,0,1.11,0,5.47,0,10.95A10.75,10.75,0,0,0,41.2,136a1.63,1.63,0,0,0,1.43,1.47,14.45,14.45,0,0,0,3.15.17c.42,0,.84-.05,1.25-.07a2.33,2.33,0,0,0,1.91-1,8.35,8.35,0,0,0,1-1.8.41.41,0,0,1,.55-.3c.31.08.28.32.22.54-.29,1.1-.58,2.19-1,3.26a.48.48,0,0,1-.57.37c-3.76-.14-7.52-.08-11.28-.06-.45,0-.9,0-1.35.06-.27,0-.42-.09-.43-.38s.14-.35.39-.37a7.5,7.5,0,0,0,1-.12,1.16,1.16,0,0,0,1.09-1.14,7.3,7.3,0,0,0,.09-1.14c0-2.09,0-4.17,0-6.25"/><path class="cls-1" d="M55.51,119.81c1,0,2.08,0,3.12,0,.27,0,.58-.08.59.35s-.33.35-.58.39-.54,0-.81.1a1.16,1.16,0,0,0-1,1.1,11.6,11.6,0,0,0-.1,1.77c0,4,0,7.94,0,11.91a7.42,7.42,0,0,0,.08,1A1.25,1.25,0,0,0,58,137.77a7,7,0,0,0,.8.1c.29,0,.4.14.38.43s-.19.33-.43.31c-1.61-.1-3.23-.08-4.84-.06-.55,0-1.09,0-1.63.07-.26,0-.45-.05-.47-.35s.14-.39.41-.4a6.76,6.76,0,0,0,.77-.1,1.3,1.3,0,0,0,1.28-1.45c.05-.8.08-1.6.08-2.4q0-4.72,0-9.46c0-.78,0-1.57-.07-2.35-.05-1-.45-1.43-1.47-1.53l-.63,0c-.24,0-.39-.11-.37-.38s.15-.35.41-.35c1.09,0,2.18,0,3.26,0h0"/><path class="cls-1" d="M120.35,119.8a50.3,50.3,0,0,0,5.49,0,3.85,3.85,0,0,0,.48,0c.28,0,.32.16.34.36a.29.29,0,0,1-.29.36c-.38,0-.77.07-1.14.14a1.11,1.11,0,0,0-1,1,9.15,9.15,0,0,0-.15,1.81c0,3.78,0,7.56,0,11.33a9.67,9.67,0,0,0,.15,2,1.13,1.13,0,0,0,.91.94,7.86,7.86,0,0,0,1,.16c.27,0,.51,0,.49.42s-.3.35-.55.33c-1.73-.11-3.46-.07-5.19-.05-.37,0-.73,0-1.1.05s-.52,0-.54-.35.23-.36.47-.39.64-.1,1-.15a1.2,1.2,0,0,0,1-1.13,9.18,9.18,0,0,0,.08-1.48V122.67c0-.14,0-.29,0-.43-.09-1.21-.49-1.6-1.71-1.68l-.52-.06c-.25,0-.26-.18-.25-.37s.08-.33.32-.33.54,0,.74,0"/><path class="cls-1" d="M68.66,100.62c0-1.35,0-2.69,0-4,0-.31,0-.45.41-.45,1,0,2,0,3-.08.2,0,.43,0,.44.28s-.24.27-.44.29a5.54,5.54,0,0,0-.57.07.92.92,0,0,0-.85,1c0,1.46,0,2.91,0,4.37a21,21,0,0,1-.22,3.88,7.35,7.35,0,0,1-3,4.66,9.82,9.82,0,0,1-5.14,2.2,3.35,3.35,0,0,1-1.6-.2c-.09,0-.19-.09-.16-.2s.11-.09.19-.06a2.35,2.35,0,0,0,1.94-.28,12,12,0,0,0,5.07-4.49,6.79,6.79,0,0,0,.92-3.58v-3.41Z"/><path class="cls-1" d="M103,109.26c0,1.11,0,1.11-1.13,1.11s-1,0-1-1,0-1.15,1.09-1.15,1,0,1,1.05"/><path class="cls-1" d="M63.05,92.81c0,1,0,1-1,1S61,93.85,61,92.77s0-1.11,1.09-1.11,1,0,1,1.15"/><path class="cls-1" d="M10.19,115.43c0-1.08,0-1.08,1.06-1.08s1,0,1,1,0,1.16-1.14,1.16c-.94,0-.94,0-.94-1.11"/><path class="cls-1" d="M8.84,115.51c0,1,0,1-1,1s-1,0-1-1.05,0-1.14,1.1-1.14,1,0,1,1Z"/><path class="cls-1" d="M59.64,92.78c0,1.07,0,1.07-1.06,1.07s-1,0-1-1c0-1.2,0-1.2,1.19-1.2.89,0,.89,0,.88.88Z"/><path class="cls-1" d="M106.39,109.29c0,1.08,0,1.08-1.07,1.08s-1,0-1-1,0-1.16,1.14-1.15c1,0,1,0,1,1.08"/><path class="cls-2" d="M77.24,74.72q-10.83,0-21.67,0A15.4,15.4,0,0,1,40.1,62a12.19,12.19,0,0,1-.24-2.42q0-22.11,0-44.21A15.43,15.43,0,0,1,53.52.13,20.14,20.14,0,0,1,55.72,0h43a15.49,15.49,0,0,1,11,4.18,14.64,14.64,0,0,1,4.91,11q.09,22.35,0,44.69a15.42,15.42,0,0,1-13.13,14.72,21.14,21.14,0,0,1-2.75.16q-10.73,0-21.44,0ZM62.69,11.26a6.32,6.32,0,0,1,3.26.31,8.44,8.44,0,0,1,4.3,3.88c1.7,2.78,3,5.74,4.48,8.66C77,28.71,79.16,33.33,81.38,38c.18.37.28.75.89.44q6-3,12-5.88c.58-.27.68-.53.4-1.13A108.26,108.26,0,0,0,89.05,21a64.33,64.33,0,0,0-6-8.47C79.19,8.07,72.82,6.75,66.9,9a16.86,16.86,0,0,0-4.21,2.24m41.1,12.19c.43,3-1,5.14-3.23,6.84A19.33,19.33,0,0,1,97.82,32C91,35.5,84,38.83,77,42.11c-.5.23-.6.43-.36.92,2,4,3.92,7.95,5.86,11.94.27.56.5.7,1.12.41a99.45,99.45,0,0,0,15-8.66,27.29,27.29,0,0,0,4.62-3.65,14,14,0,0,0,3.6-12.59,18,18,0,0,0-3-7m-12,41c-.45,0-.68,0-.91,0a6.17,6.17,0,0,1-5.1-2,17.71,17.71,0,0,1-3.16-4.76c-3.36-6.62-6.58-13.3-9.72-20-.23-.5-.44-.59-1-.34Q66,40.32,60,43.21c-.58.28-.63.57-.36,1.14A96,96,0,0,0,70.5,62.29a13.62,13.62,0,0,0,11,5.49c3.73.08,7-1.26,10.31-3.3M50.49,52.2a6.86,6.86,0,0,1,2.7-6.31,15.71,15.71,0,0,1,3-2c6.94-3.6,14-7,21.08-10.29.46-.21.73-.35.43-.95-2-3.92-3.86-7.87-5.79-11.8-.44-.9-.46-.89-1.4-.44a105.19,105.19,0,0,0-10,5.4,75.37,75.37,0,0,0-7.77,5.35c-4.82,3.89-6.37,8.93-5,14.9a16.77,16.77,0,0,0,2.78,6.09m50.17.07a25.56,25.56,0,0,0-.42-4.74c-.1-.6-.27-.63-.74-.29a82.1,82.1,0,0,1-9.72,6.1c-1.07.57-1.06.58-.61,1.75.13.34.26.69.38,1,.75,2.18,1.35,4.38.73,6.7-.15.54.17.5.5.5a7.92,7.92,0,0,0,4.63-1.52,12,12,0,0,0,5.25-9.53M54.26,28.81a1,1,0,0,0,.27-.11,78.37,78.37,0,0,1,10.61-6.61c.38-.2.47-.39.3-.8-1.14-2.82-2.2-5.67-1.32-8.82a7.33,7.33,0,0,0-5.06,1.38A11.94,11.94,0,0,0,53.66,24a16.58,16.58,0,0,0,.6,4.83M91.33,14.35a26.62,26.62,0,0,0-4.6.46c-.33.06-.66.11-.3.58a76.35,76.35,0,0,1,6.51,10.48c.23.42.44.39.8.25.78-.31,1.56-.63,2.36-.88a10.2,10.2,0,0,1,6-.49c.42.12.48-.07.49-.42a7.34,7.34,0,0,0-1.05-3.91,11.83,11.83,0,0,0-10.24-6.07m-27.92,47A21.35,21.35,0,0,0,67.33,61c.89-.16.9-.17.35-.91a78.83,78.83,0,0,1-6.12-9.81c-.35-.66-.59-.83-1.34-.53-2.59,1.06-5.22,2-8.09,1.25-.41-.11-.41.14-.43.43a6.88,6.88,0,0,0,.78,3.42c2.3,4.42,6.09,6.37,10.93,6.54"/><path class="cls-3" d="M62.69,11.26A16.86,16.86,0,0,1,66.9,9c5.92-2.27,12.29-.95,16.17,3.52a64.33,64.33,0,0,1,6,8.47,108.26,108.26,0,0,1,5.64,10.37c.28.6.18.86-.4,1.13q-6,2.91-12,5.88c-.61.31-.71-.07-.89-.44-2.22-4.62-4.41-9.24-6.65-13.84-1.43-2.92-2.78-5.88-4.48-8.66A8.44,8.44,0,0,0,66,11.57a6.32,6.32,0,0,0-3.26-.31"/><path class="cls-3" d="M103.79,23.45a18.07,18.07,0,0,1,3,7,14,14,0,0,1-3.6,12.6,27.29,27.29,0,0,1-4.62,3.65,99.05,99.05,0,0,1-15,8.66c-.61.29-.84.15-1.11-.41Q79.61,49,76.66,43c-.24-.49-.14-.69.36-.92C84,38.83,91,35.5,97.82,32a18.46,18.46,0,0,0,2.74-1.71c2.24-1.7,3.65-3.82,3.23-6.84"/><path class="cls-3" d="M91.81,64.48c-3.29,2-6.58,3.38-10.31,3.3a13.62,13.62,0,0,1-11-5.49A96.34,96.34,0,0,1,59.66,44.35c-.27-.57-.22-.86.36-1.14Q66,40.33,72,37.38c.51-.25.72-.16,1,.34,3.14,6.72,6.36,13.4,9.72,20A17.71,17.71,0,0,0,85.8,62.5a6.17,6.17,0,0,0,5.1,2c.23,0,.47,0,.91,0"/><path class="cls-3" d="M50.49,52.2a16.77,16.77,0,0,1-2.78-6.09c-1.35-6,.2-11,5-14.9a75.37,75.37,0,0,1,7.77-5.35,105.19,105.19,0,0,1,10-5.4c.94-.45,1-.46,1.4.44,1.93,3.93,3.84,7.88,5.79,11.8.3.6,0,.74-.43.95C70.14,37,63.08,40.34,56.14,43.94a15.32,15.32,0,0,0-2.94,2,6.85,6.85,0,0,0-2.71,6.31"/><path class="cls-3" d="M100.66,52.27a12,12,0,0,1-5.25,9.53,7.92,7.92,0,0,1-4.63,1.52c-.33,0-.65,0-.5-.5.62-2.32,0-4.52-.73-6.7-.12-.34-.25-.69-.38-1-.45-1.17-.46-1.18.61-1.75a80.83,80.83,0,0,0,9.72-6.1c.47-.34.64-.31.74.29a25.56,25.56,0,0,1,.42,4.74"/><path class="cls-3" d="M54.26,28.81a16.58,16.58,0,0,1-.6-4.83,11.94,11.94,0,0,1,5.4-10.13,7.33,7.33,0,0,1,5.06-1.38c-.88,3.15.18,6,1.32,8.82.17.41.08.6-.3.8A78.37,78.37,0,0,0,54.53,28.7a1,1,0,0,1-.27.11"/><path class="cls-3" d="M91.33,14.35a11.83,11.83,0,0,1,10.24,6.07,7.34,7.34,0,0,1,1.05,3.91c0,.35-.07.54-.49.42a10.2,10.2,0,0,0-6,.49c-.8.25-1.58.56-2.36.88-.36.15-.57.17-.8-.26a76.85,76.85,0,0,0-6.51-10.47c-.36-.47,0-.52.3-.58a27.65,27.65,0,0,1,4.6-.46"/><path class="cls-3" d="M63.41,61.36c-4.84-.17-8.63-2.12-10.93-6.54a6.88,6.88,0,0,1-.78-3.42c0-.29,0-.54.43-.43,2.87.75,5.5-.19,8.09-1.25.75-.3,1-.13,1.34.53a78.83,78.83,0,0,0,6.12,9.81c.55.74.54.75-.35.91a21.35,21.35,0,0,1-3.92.39"/></g></g></svg>