<svg xmlns="http://www.w3.org/2000/svg" viewBox="0 0 109.66 123.77"><defs><style>.cls-1{fill:#7689a5;}.cls-2{fill:#56575e;}</style></defs><g id="Layer_2" data-name="Layer 2"><g id="Layer_1-2" data-name="Layer 1"><path class="cls-1" d="M32.05,11.56a1.25,1.25,0,0,0,0,1.52c.12.16,2.92,3.75,8.95,3.75,3,0,5.49-1.38,7.88-2.72s4.66-2.59,7.42-2.59,4.92,1.33,7.25,2.74,4.91,3,8,3c6.28,0,8.91-4,9-4.22a1.25,1.25,0,0,0-.08-1.43,31.18,31.18,0,0,0-48.47,0"/><path class="cls-1" d="M27.06,20A31.19,31.19,0,0,0,51.3,62a1.22,1.22,0,0,0,1.32-.75c.08-.17,1.79-4.41-1.24-9.64-1.51-2.6-3.94-4-6.29-5.46s-4.57-2.72-6-5.12-1.32-4.93-1.26-7.64.11-5.74-1.46-8.46c-3.14-5.45-8-5.7-8.16-5.7a1.25,1.25,0,0,0-1.2.79"/><path class="cls-1" d="M84.21,19.26c-.18,0-4.7.67-7.74,5.89-1.5,2.61-1.54,5.45-1.58,8.19s-.08,5.32-1.46,7.71-3.61,3.6-6,4.92-5,2.77-6.58,5.48a11.76,11.76,0,0,0-1.7,6,9.28,9.28,0,0,0,.83,4,1.25,1.25,0,0,0,1.29.63,31.2,31.2,0,0,0,24.23-42,1.21,1.21,0,0,0-1.3-.79"/><path class="cls-2" d="M80,101.26a1.25,1.25,0,0,0,1.29,1.17,1.18,1.18,0,1,0,0-2.35A1.25,1.25,0,0,0,80,101.26"/><path class="cls-2" d="M49.67,104.44H48.54a2.35,2.35,0,0,0-1,.26,1.65,1.65,0,0,0-.56.81s-2.73,7.33-3.28,8.8l-4.15-9.87H37.37l-4.12,9.86-3.62-9.86H27.14l4.92,13.36h2.21s4-9.5,4.18-10c.21.49,4.19,10,4.19,10h2.21l5-13.36h-.16"/><path class="cls-2" d="M61.47,104.76a1.17,1.17,0,0,0-.34.81v7.64c0,1.82-1.9,2.81-3.69,2.81-3.29,0-4-1.57-4-4v-7.63H51.13v7.63c0,4.11,1.94,6,6.31,6a6.53,6.53,0,0,0,3.69-1.1v.88h2.32V104.44H62.24a1.08,1.08,0,0,0-.77.32"/><path class="cls-2" d="M67.88,105.57v-1.13H65.54V117.8h2.34v-8.23a3.46,3.46,0,0,1,3.71-3.33c3.28,0,4,1.53,4,3.83v7.73h2.32v-7.87c0-3.79-2.11-5.71-6.27-5.71a5.74,5.74,0,0,0-3.71,1.35"/><path class="cls-2" d="M80.41,104.73a1.08,1.08,0,0,0-.33.79V117.8h2.39V104.44H81.23a1.17,1.17,0,0,0-.82.29"/><path class="cls-2" d="M95.67,104.66a1.34,1.34,0,0,0-.6.78s-3.39,7.91-4,9.37c-.21-.48-4.38-10.37-4.38-10.37H84.19l5.61,13.24-1.12,2.54a2.22,2.22,0,0,1-2.45,1.53l-.75,0,0,2h1a4.42,4.42,0,0,0,4.4-2.81L98,104.44H96.61a1.88,1.88,0,0,0-.94.22"/><polygon class="cls-2" points="17.35 100.19 1.28 100.19 1.28 102.27 8.15 102.27 8.15 117.82 10.6 117.82 10.6 102.27 17.47 102.27 17.47 100.19 17.35 100.19"/><path class="cls-2" d="M107.54,117.83h2.12v-9.7c0-2.59-2.7-3.94-5.36-3.94-3,0-5,1.14-5.75,3.28l0,.11,2.14.69,0-.11c.59-1.61,2.26-2,3.56-2,1.5,0,3.1.6,3.1,1.92v1.31a2.34,2.34,0,0,1-1.49.42H103.2c-2.71,0-5.23,1.4-5.23,4.08s2.66,4.08,5.23,4.08a9,9,0,0,0,4.35-1s0,.81,0,.85m-.2-3.7a1.45,1.45,0,0,1-.44,1c-1,.78-2.11.86-3.7.86-1.39,0-2.88-.79-2.88-2.07s1.48-2.17,2.85-2.17H106a3.53,3.53,0,0,0,1.3-.25Z"/><path class="cls-2" d="M24.47,117.83h2.12v-9.7c0-2.59-2.7-3.94-5.36-3.94-3,0-5,1.14-5.76,3.28l0,.11,2.14.69,0-.11c.58-1.61,2.25-2,3.55-2,1.5,0,3.11.6,3.11,1.92v1.31a2.38,2.38,0,0,1-1.49.42H20.12c-2.71,0-5.23,1.4-5.23,4.08S17.55,118,20.12,118a9,9,0,0,0,4.36-1s0,.81,0,.85m-.2-3.7a1.42,1.42,0,0,1-.45,1c-1,.78-2.11.86-3.7.86-1.38,0-2.88-.79-2.88-2.07s1.48-2.17,2.85-2.17H23a3.57,3.57,0,0,0,1.3-.25Z"/><path class="cls-2" d="M4.6,76.39A1.18,1.18,0,1,0,4.6,74a1.18,1.18,0,1,0,0,2.35m3.62,0a1.18,1.18,0,1,0,0-2.35,1.18,1.18,0,1,0,0,2.35M22.89,93.66a1.18,1.18,0,1,0,0,2.36,1.19,1.19,0,1,0,0-2.36M90.16,78.3a1.18,1.18,0,1,0,0-2.36,1.18,1.18,0,1,0,0,2.36m11.3-3.82a1.09,1.09,0,0,0-.33.8V87.76A1.92,1.92,0,0,1,99,89.59H91.77a2,2,0,0,1-2.2-2h0v-7.3H88.33a1.26,1.26,0,0,0-.83.29,1.11,1.11,0,0,0-.32.8v6.2c0,1.2-1.15,1.92-2.41,1.95H75a1.2,1.2,0,0,1-.85-.34l5.23-5.38s-1.66-3.62-7.3-3.62c-6,0-6.83,4-5.29,5.48s3.92,3.39,3.94,3.41c-.51.53-1.95.38-4.45.38H59.85c-2.09,0-2-2.23-2-2.23V74.14H56.62a1.22,1.22,0,0,0-.82.29,1.09,1.09,0,0,0-.33.79v13s.08,3.49,3.53,3.49H69.58a4.53,4.53,0,0,0,3-1,4,4,0,0,0,2.92,1h9.22c2.21,0,2.8-.28,3.64-1h0a4.73,4.73,0,0,0,3.26,1.06h7.45c2.85,0,4.41-1.55,4.41-4.11V74.2h-1.23a1.19,1.19,0,0,0-.82.28M72.43,88s-3-2.38-3.56-2.94c-1-.9-1-3.09,3.45-3.09A5.53,5.53,0,0,1,76.6,83.8Zm33.63,3.72h2.49V74.16h-2.49ZM47.94,80.31a5.51,5.51,0,0,0-3.58,1.24,5.73,5.73,0,0,0-2.07,4.59,5.66,5.66,0,0,0,1.37,4,4.73,4.73,0,0,0,3.75,1.63h2.78a5.25,5.25,0,0,1-2.31,2.57,12.91,12.91,0,0,1-4.27,1.45l1,2.05a10.79,10.79,0,0,0,6.23-3C52.48,93.14,53,91.44,53,88.76V85.24c0-3.27-1.61-4.93-5.07-4.93m-.35,9.23c-1.78,0-3-1.46-3-3.54a4.14,4.14,0,0,1,1.06-2.94,2.94,2.94,0,0,1,2.26-1c1.61,0,2.69.76,2.72,2.51,0,0,.06,4.38.07,5ZM38.7,75.94a1.18,1.18,0,1,0,0,2.36,1.18,1.18,0,1,0,0-2.36m-.88,4.67a1.06,1.06,0,0,0-.32.8v6.2c0,1.23-.86,1.93-2.18,1.93h0l-7.25,0c-1.33,0-2.18-.71-2.18-1.93h0V78.38H23.51v9.34a1.93,1.93,0,0,1-2.18,1.84l-7.26,0c-1.74,0-2.14-.68-2.18-1.84V78.38H9.53v1.06c-.23.37-.89.43-1.56.43H5.24C1.44,79.9,0,82,0,84.55s2.2,4.16,5,4.36c3.22.23,4.54-.82,4.54-.82v0s-.13,3.62,3.25,3.62h8.65a4.28,4.28,0,0,0,3.34-1.08,4.44,4.44,0,0,0,3.17,1.07h7.49c2.86,0,4.45-1.54,4.45-4.1V80.32H38.65a1.26,1.26,0,0,0-.83.29M9.51,84.76A2.06,2.06,0,0,1,9.05,86a5.6,5.6,0,0,1-4,.89c-1.42-.13-2.74-.88-2.74-2.19s.41-2.78,2.93-2.83h3c.4,0,1.09,0,1.34-.32Zm17,8.9a1.18,1.18,0,1,0,0,2.36,1.18,1.18,0,1,0,0-2.36"/><path class="cls-2" d="M86.54,78.3a1.18,1.18,0,1,0,0-2.36,1.18,1.18,0,1,0,0,2.36"/></g></g></svg>