<svg xmlns="http://www.w3.org/2000/svg" viewBox="0 0 190.48 122.03"><defs><style>.cls-1{fill:#0073ae;}.cls-2{fill:#4aaa42;}</style></defs><g id="Layer_2" data-name="Layer 2"><g id="Layer_1-2" data-name="Layer 1"><path class="cls-1" d="M0,110.31v7.33a4.63,4.63,0,0,0,1,2.92,5.08,5.08,0,0,0,3.17,1.23,4,4,0,0,0,2.93-1.23,5,5,0,0,0,1.21-2.92v-7.33H6.59v6.84a3.8,3.8,0,0,1-.49,1.95,2.23,2.23,0,0,1-1.95,1,2,2,0,0,1-1.95-1,3.71,3.71,0,0,1-.49-1.95v-6.84Zm11.71,11.23v-5.61l5.85,6.1v-8.3H16.35v5.37l-5.86-5.86v8.3Zm7.55,0h1.23v-7.81H19.26Zm7.09-6.83v-1H21.71v1h1.7v6.83h1.22v-6.83Zm5.36-1H27.56v7.81h4.15v-1.22H28.54v-2.44h3.17v-1.22H28.54v-2h3.17Zm3.17,7.81a4.24,4.24,0,0,0,1.95-.24,5.41,5.41,0,0,0,1.22-.74,3.48,3.48,0,0,0,1.47-2.92,4.09,4.09,0,0,0-1.22-2.93,2.13,2.13,0,0,0-1.47-.73,3.54,3.54,0,0,0-1.71-.25h-1.7v7.81Zm-.25-6.83h.49a3,3,0,0,1,2.2.73,2.39,2.39,0,0,1,1,2.2,2.23,2.23,0,0,1-1,2,3.53,3.53,0,0,1-1,.73H34.63Zm16.59-4.64a6.12,6.12,0,0,0-4.39,2,6,6,0,0,0-1.46,3.91,5.38,5.38,0,0,0,1.7,4.15,6.42,6.42,0,0,0,4.15,1.71,4.69,4.69,0,0,0,2.92-1v-2c-.24.24-.48.49-.72.49-.25.24-.49.48-.73.48a3.07,3.07,0,0,1-1.47.25,3.3,3.3,0,0,1-2.93-1.22,4.13,4.13,0,0,1,0-5.86,3.28,3.28,0,0,1,2.93-1.22A3.83,3.83,0,0,1,54.14,113v-2.2a6.44,6.44,0,0,0-2.92-.73m5.61,10.49a3.64,3.64,0,0,0,2.68,1,3.78,3.78,0,0,0,4.15-3.9,3.3,3.3,0,0,0-1.22-2.93,4,4,0,0,0-2.93-1.22,3.93,3.93,0,0,0-2.68,1.22,4.12,4.12,0,0,0,0,5.85m.73-5.12a2.76,2.76,0,0,1,1.95-.73,3,3,0,0,1,2.2.73,3.45,3.45,0,0,1,.73,2.2,2.81,2.81,0,0,1-.73,2,2.66,2.66,0,0,1-2.2,1,2.76,2.76,0,0,1-1.95-.73,4.34,4.34,0,0,1-1-2.19,3.09,3.09,0,0,1,1-2.2m8.54,5.12a3.64,3.64,0,0,0,2.68,1,3.78,3.78,0,0,0,4.15-3.9,3.3,3.3,0,0,0-1.22-2.93A3.93,3.93,0,0,0,69,113.49a4,4,0,0,0-2.93,1.22,3.28,3.28,0,0,0-1.22,2.93,4,4,0,0,0,1.22,2.92m.73-5.12a3,3,0,0,1,2.2-.73,2.76,2.76,0,0,1,2,.73,3.45,3.45,0,0,1,.73,2.2,2.81,2.81,0,0,1-.73,2,2.38,2.38,0,0,1-2.2,1,3.22,3.22,0,0,1-2-.73,3.9,3.9,0,0,1-.73-2.19,3,3,0,0,1,.73-2.2m9.51,2.93a2.73,2.73,0,0,0,2-.73,1.91,1.91,0,0,0,.74-1.71,2.64,2.64,0,0,0-.74-1.71c-.24-.24-.73-.24-1-.49H74.39v7.81h1.22v-3.17Zm-.73-3.66h.49c1.22,0,1.71.49,1.71,1.22,0,1-.49,1.22-1.71,1.22h-.49Zm8.79-1H80.25v7.81H84.4v-1.22H81.22v-2.44H84.4v-1.22H81.22v-2H84.4Zm5.6,3.66a3.36,3.36,0,0,0,.48-1.46,2.18,2.18,0,0,0-.73-1.71,5.22,5.22,0,0,0-2.43-.49H86.1v7.81h1.22v-3.17l2.43,3.17h1.47l-2.44-3.41c.49,0,.73-.25,1.22-.74m-2.68-2.68h.24c1.22,0,1.71.49,1.71,1.22,0,1-.49,1.46-1.71,1.46h-.24Zm10.48,6.83H99l-3.65-8.3-3.9,8.3h1.21l1-2h3.18Zm-3.65-2.93,1.22-2.68,1,2.68Zm9.27-3.9v-1H98.78v1h1.71v6.83h1.22v-6.83Zm1.22,6.83h1.21v-7.81h-1.21Zm2.18-7.81,3.42,8.3,3.42-8.3h-1.22l-2.2,5.37-2.19-5.37Zm12.2,0h-4.38v7.81H119v-1.22h-3.16v-2.44H119v-1.22h-3.16v-2H119Zm14.39,7.81h1.72l-5.37-12-5.37,12h1.71l1.22-2.68h4.88Zm-5.36-4.39,1.71-3.66,1.7,3.66Zm10.48-3.66a2.2,2.2,0,0,0-1.7.73,1.46,1.46,0,0,0-.73,1.46c0,.74.48,1.47,1.7,2l.73.24c.25,0,.25.25.5.25.24.24.24.24.48.24v.49a.84.84,0,0,1,.24.49c0,.24-.24.48-.48.73a1.23,1.23,0,0,1-2,0c-.24-.25-.24-.49-.24-1l-1.23.25a2.23,2.23,0,0,0,.73,1.7,2.08,2.08,0,0,0,1.72.49,2.63,2.63,0,0,0,1.95-.49,4.82,4.82,0,0,0,.48-2,1.8,1.8,0,0,0-.25-1.22,3.12,3.12,0,0,0-1.45-1l-.73-.48c-.74-.25-1-.49-1-.74s.24-.48.48-.73c0-.24.5-.24.73-.24h.74c0,.24.24.49.48.73l1-.49a2.34,2.34,0,0,0-2.2-1.46m6.1,0a2.18,2.18,0,0,0-1.7.73,1.46,1.46,0,0,0-.73,1.46c0,.74.48,1.47,1.7,2l.73.24c.25,0,.25.25.49.25l.25.24c.24.24.24.24.24.49v.49a.91.91,0,0,1-.24.73,1.24,1.24,0,0,1-2,0c-.24-.25-.24-.49-.24-1l-1.22.25a2.23,2.23,0,0,0,.73,1.7,3.23,3.23,0,0,0,3.42,0,2.81,2.81,0,0,0,.73-2,1.8,1.8,0,0,0-.25-1.22,5.06,5.06,0,0,0-1.46-1l-.73-.48c-.73-.25-1-.49-1-.74s.25-.48.25-.73c.24-.24.49-.24,1-.24h.74c0,.24.24.49.48.73l1-.49c-.73-1-1.22-1.46-2.2-1.46m3.67.24v4.88a3,3,0,0,0,.72,2.2,3.93,3.93,0,0,0,2.2.73,2.58,2.58,0,0,0,2.93-2.93v-4.88h-1.23v4.64c0,.73,0,1.22-.23,1.46a1.49,1.49,0,0,1-1.47.73,2.13,2.13,0,0,1-1.47-.73,9,9,0,0,1-.23-1.46v-4.64Zm11.7,3.66a3.51,3.51,0,0,0,.49-1.46,2.25,2.25,0,0,0-.73-1.71,5.3,5.3,0,0,0-2.44-.49H156.1v7.81h1.22v-3.17h.24l2.2,3.17h1.46l-2.44-3.41a1.34,1.34,0,0,0,1.22-.74m-2.68-2.68h.24c1.22,0,1.71.49,1.71,1.22,0,1-.49,1.46-1.71,1.46h-.24Zm10.48,6.83H169l-3.65-8.3-3.9,8.3h1.22l1-2h3.17Zm-3.66-2.93,1.23-2.68,1,2.68Zm7.08,2.93v-5.61l5.61,6.1v-8.3h-1v5.37L170,113.24v8.3Zm11.46-8.05a3.94,3.94,0,0,0-3.17,1.46,3.68,3.68,0,0,0-1,2.69,3.52,3.52,0,0,0,1.22,2.92,3.84,3.84,0,0,0,2.92,1,2.92,2.92,0,0,0,1.95-.49v-1.46c-.24.24-.24.49-.48.49s-.25.24-.49.24a1.5,1.5,0,0,1-1,.24,2.38,2.38,0,0,1-2.19-1,2.76,2.76,0,0,1-.73-2,3.39,3.39,0,0,1,.73-2.2,3,3,0,0,1,2.19-.73,3.22,3.22,0,0,1,1.95.73V114a4.48,4.48,0,0,0-1.95-.49m7.8.24H186.1v7.81h4.38v-1.22h-3.17v-2.44h3.17v-1.22h-3.17v-2h3.17Z"/><rect class="cls-2" y="105.19" width="190.24" height="1.22"/><path class="cls-1" d="M16.1,98.36H14.88a2.45,2.45,0,0,1-2.68-2.69V92H10.25c-1.47,0-2,0-2,.49,0,1.46.25,2,1.47,2h1.46v1.22a3.69,3.69,0,0,1-1,2.69,3.53,3.53,0,0,1-2.69,1.22H4.88A5.12,5.12,0,0,1,1,98.11a6.11,6.11,0,0,1-1-3.9V91H1.71v3.18c0,2.68,1.22,4.15,3.41,4.15h2.2c.49-.25,1.22-.25,1.46-1a1.79,1.79,0,0,0,.49-1.46,3,3,0,0,1-2.2-1c-.48-.49-.48-1.22-.48-2.44s.48-1.71,1.7-1.71h5.62v4.39c0,1,.48,1.47,1.22,1.47h1Z"/><path class="cls-1" d="M21,95.67a2.45,2.45,0,0,1-2.69,2.69H15.61V96.65h2.44c.73,0,1.22-.25,1.22-1.22V93.72L19,91.28,21,90.79Zm-1-7.56a1.05,1.05,0,0,1-1,1,1.11,1.11,0,0,1-1.22-1A1.15,1.15,0,0,1,19,86.88a1.12,1.12,0,0,1,1,1.23"/><path class="cls-1" d="M29.27,97.62c0,2.45-1.22,3.91-3.66,4.64l-.48-.73a3.44,3.44,0,0,0,2.43-3.17,5.77,5.77,0,0,1-1.95.49,3.39,3.39,0,0,1-2.2-1.23,4.16,4.16,0,0,1-.73-2.44,3.88,3.88,0,0,1,1-2.92,3.47,3.47,0,0,1,2.92-1.47h2.69Zm-1.71-.48V92h-1c-1.45,0-2.19,1-2.19,2.93,0,1.71.49,2.68,1.71,2.68a3.49,3.49,0,0,0,1.46-.48"/><path class="cls-1" d="M39,98.36H34.15a2.56,2.56,0,0,1-2.68-2.69V89.81l-.25-2.44,2.2-.48v8.29c0,1,.24,1.47,1.21,1.47H39Z"/><path class="cls-1" d="M50.74,98.36H46.59a7.84,7.84,0,0,1-2-.49s0,.24-1,.49H35.12V96.65h8.05A20.65,20.65,0,0,1,40.25,94a2.57,2.57,0,0,1,1.22-2.19,5.16,5.16,0,0,1,3.41-1,4.92,4.92,0,0,1,3.17,1A2.57,2.57,0,0,1,49.27,94c-.25.25-1.22,1-2.93,2.69h4.4Zm-3.42-4.64c0-.49-.25-.73-.73-1a2.09,2.09,0,0,0-1.71-.48c-1,0-1.46,0-2,.48-.49.25-.73.49-.73,1,.49.49,1.46,1.22,2.68,2.44Z"/><path class="cls-1" d="M56.59,98.36H55.37a4.66,4.66,0,0,1-1.95-.49,2.68,2.68,0,0,1-1.47.49h-2.2V96.65h1.72c.72,0,1.22-.25,1.22-1.22V93.72l-.5-2.44,2.2-.49v4.64c0,1,.49,1.22,1.22,1.22h1ZM52,88.11a1,1,0,0,1-1,1,1.12,1.12,0,0,1-1.22-1A1.16,1.16,0,0,1,51,86.88a1.12,1.12,0,0,1,1,1.23m2.93,0a1.12,1.12,0,0,1-1.22,1,1,1,0,0,1-1-1,1.12,1.12,0,0,1,1-1.23,1.16,1.16,0,0,1,1.22,1.23"/><path class="cls-1" d="M62,95.67a2.45,2.45,0,0,1-2.68,2.69H56.1V96.65H59c.74,0,1.22-.49,1.22-1.47V89.81L60,87.37l2-.48Z"/><polygon class="cls-1" points="66.1 86.89 65.86 89.33 65.86 98.36 64.14 98.36 64.14 89.33 63.91 87.13 66.1 86.89"/><path class="cls-1" d="M83.9,98.36H82c-.49,0-.73,0-1-.25-.49,2.69-2.45,4.15-5.37,4.15A3.85,3.85,0,0,1,72,100.55c-1-.73-1.22-2.19-1.22-3.9V93.48h1.71v3.17c0,2.68,1.22,4.39,3.42,4.39a3.12,3.12,0,0,0,2.43-1,5.15,5.15,0,0,0,1-3.42V93.72L79,91.28l2-.49v4.15c0,1.22.48,1.71,1.22,1.71h1.7Zm-7.07-4.88a1.12,1.12,0,0,1-1,1.22,1.16,1.16,0,0,1-1.23-1.22,1.12,1.12,0,0,1,1.23-1,1.05,1.05,0,0,1,1,1"/><path class="cls-1" d="M85.12,101.29a1.05,1.05,0,0,1-1,1A1.15,1.15,0,0,1,82.93,101a1.1,1.1,0,1,1,2.19.25M90,98.36H88.54a3.56,3.56,0,0,1-1.71-.49,3.56,3.56,0,0,1-1.71.49H82.93V96.65h1.7c1,0,1.22-.25,1.22-1.22v-2l-.24-2.2,2.19-.49v4.64c0,1,.25,1.22,1.23,1.22h1Zm-2.2,2.93a.89.89,0,0,1-1,1,1.13,1.13,0,0,1-1-1.22,1.06,1.06,0,0,1,1-1,1.12,1.12,0,0,1,1,1.23"/><path class="cls-1" d="M98.29,91v4.15c0,2.2-1.46,3.18-3.9,3.18H89.27V96.65H92a4.41,4.41,0,0,1-.48-1.71,4.22,4.22,0,0,1,1.21-3.17,4.63,4.63,0,0,1,3.17-1.22,7.24,7.24,0,0,1,2.44.48m-1.7,2-.25-1.22h-.72c-1.72,0-2.45,1-2.45,2.68,0,1.47.73,2.2,1.71,2.2,1.22,0,1.71-.73,1.71-2.2V93"/><path class="cls-1" d="M102.92,86.15H99.27v-.73H100c0-1,.49-1.71,1.47-1.71a1.9,1.9,0,0,1,1,.49.76.76,0,0,1-.24.49.79.79,0,0,0-.5-.24c-.48,0-.72.24-.72,1h1.46Zm1.72,12.21h-1.47a2.38,2.38,0,0,1-2.44-2.69V89.81l-.49-2.44,2.2-.48v8.54a1.15,1.15,0,0,0,1.22,1.22h1Z"/><rect class="cls-1" x="104.15" y="96.65" width="6.58" height="1.71"/><path class="cls-1" d="M117.07,98.36h-1.46a3.52,3.52,0,0,1-1.7-.49,3.63,3.63,0,0,1-1.72.49h-2V96.65h1.47c1,0,1.46-.25,1.46-1.22V93.72l-.48-2.44,2.19-.49v4.64c0,1,.24,1.22,1.21,1.22h1Zm-4.63-10.25a1.12,1.12,0,0,1-1.22,1,1.06,1.06,0,0,1-1-1,1.13,1.13,0,0,1,1-1.23,1.16,1.16,0,0,1,1.22,1.23m2.68,0a1,1,0,0,1-1,1,.89.89,0,0,1-1-1c0-.74.24-1.23,1-1.23a1.12,1.12,0,0,1,1,1.23"/><path class="cls-1" d="M123.17,98.36H122a3.6,3.6,0,0,1-1.72-.49,3.52,3.52,0,0,1-1.7.49h-2V96.65H118a1.3,1.3,0,0,0,1.47-1.47V89.81L119,87.37l2.2-.48v8.29c0,1,.49,1.47,1.22,1.47h.73Z"/><path class="cls-1" d="M128.54,95.67a2.39,2.39,0,0,1-2.44,2.69h-3.42V96.65h2.93c.73,0,1.22-.49,1.22-1.47V89.81l-.25-2.44,2-.48Z"/><path class="cls-1" d="M140.73,94.21a4,4,0,0,1-1.22,2.93,3.49,3.49,0,0,1-2.68,1.22,4.41,4.41,0,0,1-2.68-1,4.87,4.87,0,0,1,0-5.86,4,4,0,0,1,2.93-1.22c2.19,0,3.65,1.47,3.65,3.91m-4.15-6.1a1,1,0,0,1-1,1,1.12,1.12,0,0,1-1.22-1,1.16,1.16,0,0,1,1.22-1.23,1.12,1.12,0,0,1,1,1.23m2.2,6.1c0-1.71-.73-2.69-1.95-2.69s-1.7,1-1.7,2.69c0,2,.48,2.93,1.7,2.93s1.95-1,1.95-2.93m.73-6.1a1.11,1.11,0,0,1-1.21,1,1,1,0,0,1-1-1,1.12,1.12,0,0,1,1-1.23,1.15,1.15,0,0,1,1.21,1.23"/><path class="cls-1" d="M150.25,98.36H142.2l.48-1.71h4.64v-2.2a4.66,4.66,0,0,0-.49-2c-.49-.49-.73-.73-1.22-.73a.9.9,0,0,0-.73.24V91a.78.78,0,0,0,.49-.24A3.49,3.49,0,0,1,148.05,92a3.9,3.9,0,0,1,1,2.93v1.71h1.23Z"/><rect class="cls-1" x="149.75" y="96.65" width="3.17" height="1.71"/><path class="cls-1" d="M169.76,98.36h-1.47a4.56,4.56,0,0,1-1.7-.49,3.63,3.63,0,0,1-1.71.49h-2V96.65h1.72c.73,0,1.22-.25,1.22-1.22V93.72l-.49-2.44,2.19-.49v4.64c0,1,.49,1.22,1.22,1.22h1Zm-4.64-10.25a1,1,0,0,1-1,1,1.13,1.13,0,0,1-1.22-1,1.16,1.16,0,0,1,1.22-1.23,1.12,1.12,0,0,1,1,1.23m2.93,0a1.12,1.12,0,0,1-1.22,1,1,1,0,0,1-1-1,1.12,1.12,0,0,1,1-1.23,1.16,1.16,0,0,1,1.22,1.23"/><path class="cls-1" d="M180.73,98.36h-1.22a3.52,3.52,0,0,1-1.7-.49,4.28,4.28,0,0,1-3.17,1.46,2.55,2.55,0,0,1-2.2-1.22c-.49,0-1,.25-1.47.25h-1.7V96.65h1.22c1,0,1.22-.25,1.22-1,.24-2.68,1.7-4.15,4.39-4.15a10.44,10.44,0,0,1,2.68.49l-.24,1.71v1.71c0,1,.49,1.22,1.22,1.22h1Zm-3.9-1.22V94l-.24-1a.89.89,0,0,0-.73-.25c-1.47,0-2.2,1-2.2,2.69,0,1.46.48,2.44,1.46,2.44a2.24,2.24,0,0,0,1.71-.73"/><path class="cls-1" d="M186.1,95.67a2.45,2.45,0,0,1-2.69,2.69h-3.17V96.65h2.93c.73,0,1.22-.49,1.22-1.47V89.81l-.25-2.44,2-.48Z"/><polygon class="cls-1" points="190.25 86.89 190 89.33 190 98.36 188.29 98.36 188.29 89.33 188.05 87.13 190.25 86.89"/><path class="cls-1" d="M5.61,101.29a1.05,1.05,0,0,1-1,1,1.11,1.11,0,0,1-1.22-1,1.15,1.15,0,0,1,1.22-1.23,1.12,1.12,0,0,1,1,1.23"/><path class="cls-1" d="M8.54,101.29a1.12,1.12,0,0,1-1.22,1,1.05,1.05,0,0,1-1-1,1.12,1.12,0,0,1,1-1.23,1.16,1.16,0,0,1,1.22,1.23"/><path class="cls-1" d="M162.92,98.36V96.65h-2.18V94.94a3.87,3.87,0,0,0-1-2.93,4.62,4.62,0,0,0-2.43-1.22h-4.15V92h4.15a1.37,1.37,0,0,1,1.22.73,2.09,2.09,0,0,1,.48,1.71v2.2h-6.58L152,98.36h8.79v-.49a3.52,3.52,0,0,0,1.7.49Z"/><path class="cls-1" d="M80.54,57.35H83v8.79a7.61,7.61,0,0,1-.48,2.68A3.55,3.55,0,0,1,82,70.29c-.25.49-.73.73-1,1A6.62,6.62,0,0,1,76.15,73,6.88,6.88,0,0,1,71,71.27c-.24-.25-.73-.49-1-1a3.41,3.41,0,0,1-.49-1.47,7.37,7.37,0,0,1-.25-2.68V57.35h2.2v8.79A7.1,7.1,0,0,0,72,69.07c.24.49,1,1,1.46,1.46a8.6,8.6,0,0,0,2.69.49,6.22,6.22,0,0,0,3.17-1,5.18,5.18,0,0,0,1-1.47,6,6,0,0,0,.25-2.44Z"/><path class="cls-1" d="M104.92,69.07v2.44A10,10,0,0,1,99.32,73a13,13,0,0,1-4.64-1,8.47,8.47,0,0,1-2.93-2.93,7.18,7.18,0,0,1-1-3.91,7.07,7.07,0,0,1,2.44-5.61,8.07,8.07,0,0,1,6.1-2.44,18,18,0,0,1,5.6,1.22v2.44a11.94,11.94,0,0,0-5.6-1.46A5.86,5.86,0,0,0,94.92,61a5,5,0,0,0-1.7,4.14,5.38,5.38,0,0,0,1.7,4.15A7,7,0,0,0,99.32,71a9.72,9.72,0,0,0,5.6-2"/><path class="cls-1" d="M118.1,57.35h1.7l7.07,15.38h-2.19l-2.2-4.64h-6.82l-2,4.64h-2.19Zm3.41,8.79-2.44-5.37-2.44,5.37Z"/><path class="cls-2" d="M101.26,27.58h0a8.44,8.44,0,0,1-2.92-2.93c0-.24,0-.24-.24-.24l-.25.24a6.2,6.2,0,0,1-2.68,2.93,6.3,6.3,0,0,0-3.42,5.86,6,6,0,0,0,3.42,5.61A6.2,6.2,0,0,1,97.85,42l.25.24c.24,0,.24,0,.24-.24a8.44,8.44,0,0,1,2.92-2.93,6.37,6.37,0,0,0,3.42-5.61,6.76,6.76,0,0,0-3.42-5.86"/><path class="cls-1" d="M78.83,39.78h0a6.79,6.79,0,0,1-2.93-2.93h-.24a6.84,6.84,0,0,1-2.93,2.93,7.1,7.1,0,0,0-3.41,5.86,6.36,6.36,0,0,0,3.41,5.61,7.44,7.44,0,0,1,2.93,3.18h.24a7.38,7.38,0,0,1,2.93-3.18,6.36,6.36,0,0,0,3.41-5.61,7.1,7.1,0,0,0-3.41-5.86"/><path class="cls-1" d="M93.71,39.78h0A5.31,5.31,0,0,1,91,36.85h-.49a6.77,6.77,0,0,1-2.92,2.93,7.11,7.11,0,0,0-3.42,5.86,6.37,6.37,0,0,0,3.42,5.61,7.36,7.36,0,0,1,2.92,3.18H91a5.78,5.78,0,0,1,2.69-3.18,6,6,0,0,0,3.41-5.61,6.58,6.58,0,0,0-3.41-5.86"/><path class="cls-1" d="M108.58,39.78h0a5.29,5.29,0,0,1-2.68-2.93h-.49a5.76,5.76,0,0,1-2.92,2.93,7.08,7.08,0,0,0-3.42,5.86,6.35,6.35,0,0,0,3.42,5.61,6.22,6.22,0,0,1,2.92,3.18h.49a5.76,5.76,0,0,1,2.68-3.18A5.94,5.94,0,0,0,112,45.64a6.57,6.57,0,0,0-3.42-5.86"/><path class="cls-1" d="M123.46,39.78h0a5.29,5.29,0,0,1-2.68-2.93h-.49a5.29,5.29,0,0,1-2.68,2.93A6.8,6.8,0,0,0,114,45.64a6.15,6.15,0,0,0,3.66,5.61,5.76,5.76,0,0,1,2.68,3.18h.49a5.76,5.76,0,0,1,2.68-3.18,6.15,6.15,0,0,0,3.66-5.61,6.8,6.8,0,0,0-3.66-5.86"/><path class="cls-1" d="M86.39,27.58h0a8.39,8.39,0,0,1-2.93-2.93c0-.24,0-.24-.24-.24a.24.24,0,0,0-.25.24,6.2,6.2,0,0,1-2.68,2.93,6.31,6.31,0,0,0-3.41,5.86,6,6,0,0,0,3.41,5.61A6.2,6.2,0,0,1,83,42a.24.24,0,0,0,.25.24c.24,0,.24,0,.24-.24a8.39,8.39,0,0,1,2.93-2.93,6.38,6.38,0,0,0,3.41-5.61,6.77,6.77,0,0,0-3.41-5.86"/><path class="cls-1" d="M116.14,27.58h0a8.44,8.44,0,0,1-2.92-2.93c0-.24,0-.24-.25-.24v.24a8.36,8.36,0,0,1-2.92,2.93,6.76,6.76,0,0,0-3.42,5.86,6.37,6.37,0,0,0,3.42,5.61A8.36,8.36,0,0,1,113,42v.24c.25,0,.25,0,.25-.24a8.44,8.44,0,0,1,2.92-2.93,6.37,6.37,0,0,0,3.42-5.61,6.76,6.76,0,0,0-3.42-5.86"/><path class="cls-1" d="M93.71,15.38h0A5.81,5.81,0,0,1,91,12.2h-.49a7.42,7.42,0,0,1-2.92,3.18A6.37,6.37,0,0,0,84.19,21a7.11,7.11,0,0,0,3.42,5.86,6.77,6.77,0,0,1,2.92,2.93H91a5.31,5.31,0,0,1,2.69-2.93A6.58,6.58,0,0,0,97.12,21a6,6,0,0,0-3.41-5.61"/><path class="cls-1" d="M108.58,15.38h0a5.8,5.8,0,0,1-2.68-3.18h-.49a6.26,6.26,0,0,1-2.92,3.18A6.35,6.35,0,0,0,99.07,21a7.08,7.08,0,0,0,3.42,5.86,5.76,5.76,0,0,1,2.92,2.93h.49a5.29,5.29,0,0,1,2.68-2.93A6.57,6.57,0,0,0,112,21a5.94,5.94,0,0,0-3.42-5.61"/><path class="cls-1" d="M101.26,2.93h0A6.82,6.82,0,0,1,98.34,0h-.49a5.29,5.29,0,0,1-2.68,2.93,6.57,6.57,0,0,0-3.42,5.86,6,6,0,0,0,3.42,5.61,5.77,5.77,0,0,1,2.68,3.17h.49a7.45,7.45,0,0,1,2.92-3.17,6.37,6.37,0,0,0,3.42-5.61,7.08,7.08,0,0,0-3.42-5.86"/></g></g></svg>