<svg xmlns="http://www.w3.org/2000/svg" viewBox="0 0 214.56 123.63"><defs><style>.cls-1{fill:#005791;}.cls-2{fill:#1ba7e0;}.cls-3{fill:#6b81b5;}.cls-4{fill:#05599c;}.cls-5{fill:#0a84bc;}</style></defs><g id="Layer_2" data-name="Layer 2"><g id="Layer_1-2" data-name="Layer 1"><path class="cls-1" d="M85.3,0H98.72a3,3,0,0,1,2.71,1.72l26.23,56.47,0,.56a3.41,3.41,0,0,1-1,.18h-15a3.08,3.08,0,0,1-2.79-1.77L83.56,2.71a1.72,1.72,0,0,1-.19-.8A1.93,1.93,0,0,1,85.3,0"/><path class="cls-2" d="M124.05,0H110.64a3,3,0,0,0-2.73,1.72L81.68,58.19l0,.56a3.3,3.3,0,0,0,1,.18h15a3.06,3.06,0,0,0,2.78-1.77L125.78,2.71a1.85,1.85,0,0,0,.18-.8A1.92,1.92,0,0,0,124.05,0"/><polygon class="cls-3" points="104.67 8.69 104.67 8.7 104.69 8.65 104.69 8.63 104.67 8.69"/><rect class="cls-4" x="89.25" y="18.53" width="21.7" height="0.01"/><polygon class="cls-5" points="104.69 48.1 95.52 28.38 104.67 8.7 104.69 8.64 113.86 28.37 104.69 48.1"/><path class="cls-1" d="M153,0H139.59a3,3,0,0,0-2.71,1.72h0L110.64,58.19l0,.56a3.36,3.36,0,0,0,1,.18h15a3,3,0,0,0,2.77-1.77l25.3-54.45a1.85,1.85,0,0,0,.18-.8A1.92,1.92,0,0,0,153,0"/><path class="cls-2" d="M56.34,0H69.76a3,3,0,0,1,2.7,1.72L98.71,58.19l0,.56a3.42,3.42,0,0,1-1,.18h-15a3.09,3.09,0,0,1-2.79-1.77L54.6,2.71a1.71,1.71,0,0,1-.18-.8A1.91,1.91,0,0,1,56.34,0"/><path class="cls-1" d="M12.44,80.34V91.47A3.19,3.19,0,0,1,9,94.58H6.81a3.2,3.2,0,0,1-3.45-3.11V80.34H0V91.47A6.4,6.4,0,0,0,.3,93.2c.91,2.44,2.66,4.1,6.34,4.1H9.16c3.68,0,5.44-1.66,6.34-4.1a6.4,6.4,0,0,0,.3-1.73V80.34Z"/><path class="cls-1" d="M40.49,82.82H43.4a3.34,3.34,0,0,1,0,6.63H40.49ZM37.11,92h6.71a5.71,5.71,0,0,0,5.85-5.83,5.81,5.81,0,0,0-5.62-6.07H37.11Z"/><polygon class="cls-1" points="95.04 91.96 104.64 91.96 104.64 75.62 101.28 75.62 101.27 89.03 95.04 89.03 95.04 91.96"/><polygon class="cls-1" points="84.49 91.96 98.09 91.96 98.09 75.62 94.71 75.62 94.72 89.03 84.49 89.03 84.49 91.96"/><polyline class="cls-1" points="77.08 89.02 55.06 89.03 55.07 78.01 51.69 78.01 51.69 91.96 77.08 91.96"/><path class="cls-1" d="M12.46,92H25.65a4.94,4.94,0,0,0,3.89-1.38l.14,0V92l3.36,0V80.29H29.68V88A3.45,3.45,0,0,1,27,89H15.81V80.79H12.46Z"/><path class="cls-1" d="M78.82,92a4.94,4.94,0,0,0,3.9-1.38l.14,0V92h9.61V89H86.22V80.3H82.85V88a3.43,3.43,0,0,1-2.63,1H75.06V92Z"/><path class="cls-1" d="M29.59,95.61a1.69,1.69,0,1,0,3.37,0,1.69,1.69,0,0,0-3.37,0"/><path class="cls-1" d="M28.54,95.61a1.69,1.69,0,1,0-1.68,1.69,1.68,1.68,0,0,0,1.68-1.69"/><path class="cls-1" d="M79.93,79.07a1.69,1.69,0,1,0-1.68-1.68,1.68,1.68,0,0,0,1.68,1.68"/><path class="cls-1" d="M75.4,79.07a1.69,1.69,0,1,0-1.68-1.68,1.68,1.68,0,0,0,1.68,1.68"/><path class="cls-1" d="M7.9,79.07a1.69,1.69,0,1,0-1.68-1.68A1.69,1.69,0,0,0,7.9,79.07"/><rect class="cls-1" x="29.59" y="89.02" width="8.24" height="2.94"/><path class="cls-1" d="M53.36,75.59a.65.65,0,0,1,.21-.5.68.68,0,0,1,.52-.19h.11l.08,0a.94.94,0,0,1,.55.36l.43-.91-.41-.33a1.58,1.58,0,0,0-.77-.2H54a1.87,1.87,0,0,0-1.31.46,1.65,1.65,0,0,0-.49,1.29v.54H51.7v1h3.35v-1H53.36Z"/><path class="cls-1" d="M194.15,96.15,194,93.43a3.19,3.19,0,0,0,3.44-3.11V89.19l-.13,0a4.54,4.54,0,0,1-3.44,1.41,5.81,5.81,0,0,1-5.62-6.08,5.72,5.72,0,0,1,5.86-5.84h6.7v8.74h3.76V74h3.38V90.32H200.8a6.28,6.28,0,0,1-.3,1.72c-.9,2.46-2.66,4.11-6.35,4.11m.37-15a3.34,3.34,0,0,0,0,6.63,3,3,0,0,0,2.91-1.58v-5Z"/><rect class="cls-1" x="211.11" y="73.98" width="3.37" height="16.34"/><path class="cls-1" d="M117.4,90.56a5.82,5.82,0,0,1-5.63-6.08,5.72,5.72,0,0,1,5.86-5.84h6.7v8.74h19.52a3.5,3.5,0,0,0,2.64-1V78.64h3.36v8.74h6.46a3.45,3.45,0,0,0,2.64-1V78.64h3.36v8.74h6.58V74h3.36v7.31A7.07,7.07,0,0,1,178,78.36c4.78,0,8.38,3.2,8.38,8a9.74,9.74,0,0,1-.66,3.93H159V89l-.14,0a4.94,4.94,0,0,1-3.9,1.39h-8.42V89l-.14,0a5,5,0,0,1-3.9,1.39H121V89.19l-.14,0a4.55,4.55,0,0,1-3.43,1.41m.65-9.4a3.32,3.32,0,1,0,2.92,5v-5Zm59.91.11c-3,0-5.37,3.38-5.71,6v.12h11.3a8.17,8.17,0,0,0,0-1A5.35,5.35,0,0,0,178,81.27"/><path class="cls-1" d="M160.63,77.23a1.69,1.69,0,1,1,1.68-1.69,1.68,1.68,0,0,1-1.68,1.69"/><path class="cls-1" d="M122.64,77.23a1.69,1.69,0,1,1,1.69-1.69,1.68,1.68,0,0,1-1.69,1.69"/><path class="cls-1" d="M118.23,77.23a1.69,1.69,0,1,1,1.68-1.69,1.68,1.68,0,0,1-1.68,1.69"/><path class="cls-1" d="M148.17,95.75a1.69,1.69,0,1,1,1.68-1.68,1.67,1.67,0,0,1-1.68,1.68"/><path class="cls-1" d="M143.74,95.75a1.69,1.69,0,1,1,1.69-1.68,1.68,1.68,0,0,1-1.69,1.68"/><polygon class="cls-1" points="17.63 101.59 15.5 112.32 15.37 113.5 15.22 113.5 15.03 112.32 11.81 101.59 9.34 101.59 6.09 112.5 5.93 113.43 5.79 113.43 5.7 112.5 3.51 101.59 0 101.59 3.9 117.86 7.18 117.86 10.34 107.65 10.48 106.7 10.62 106.7 10.76 107.65 13.97 117.86 17.24 117.86 21.15 101.59 17.63 101.59"/><path class="cls-1" d="M30.3,113.75a3.19,3.19,0,1,1-2.91-5,5.16,5.16,0,0,1,2.91.79Zm0-6.8-.12.07a4.85,4.85,0,0,0-3.2-1,5.88,5.88,0,0,0-5.83,6,5.78,5.78,0,0,0,5.59,6,4.5,4.5,0,0,0,3.42-1.4l.14,0v1.12h3.34V106.23H30.3Z"/><path class="cls-1" d="M41.89,115a1.4,1.4,0,0,1-1.53-1.59v-4.66h2.88v-2.56H40.36v-3.72H37v3.72h-1.7v2.56H37v4.85A4.05,4.05,0,0,0,41.34,118a6.28,6.28,0,0,0,2.49-.5l-.46-2.67a4.73,4.73,0,0,1-1.48.24"/><path class="cls-1" d="M53.75,113.75a3.2,3.2,0,1,1-2.91-5,5.19,5.19,0,0,1,2.91.79Zm0-6.8-.12.07a4.87,4.87,0,0,0-3.2-1,5.88,5.88,0,0,0-5.84,6,5.78,5.78,0,0,0,5.6,6,4.52,4.52,0,0,0,3.42-1.4l.14,0v1.12H57.1V106.23H53.75Z"/><path class="cls-1" d="M67.39,106a5.05,5.05,0,0,0-3.89,1.6l-.14,0v-1.32H60v11.63h3.35v-8.1a3.51,3.51,0,0,1,2.63-1,2.1,2.1,0,0,1,2.25,2.32v6.8h3.35v-7c0-3.23-1.91-4.88-4.2-4.88"/><rect class="cls-1" x="74.46" y="106.23" width="3.35" height="11.62"/><path class="cls-1" d="M85.9,114.18l-.14,0-.19-1-2.36-6.9H79.54l4.59,11.6-.41,1.29a2.82,2.82,0,0,1-3,1.8l.15,2.71c3.67,0,5.12-1.64,6-4.08l5.18-13.32h-3.7Z"/><path class="cls-1" d="M101.33,113.75a3.19,3.19,0,1,1-2.9-5,5.13,5.13,0,0,1,2.9.79Zm0-6.8-.11.07A4.9,4.9,0,0,0,98,106a5.89,5.89,0,0,0-5.84,6,5.78,5.78,0,0,0,5.6,6,4.5,4.5,0,0,0,3.42-1.4l.14,0v1.12h3.34V106.23h-3.34V107Z"/><path class="cls-1" d="M76.15,101.46a1.68,1.68,0,1,0,0,3.35,1.68,1.68,0,0,0,0-3.35"/><rect class="cls-1" x="112.36" y="101.59" width="3.34" height="16.26"/><path class="cls-1" d="M118.56,106.23h3.35v1.32l.14,0a5,5,0,0,1,3.87-1.6c2.31,0,4.21,1.65,4.21,4.88v7h-3.35v-6.78a2.09,2.09,0,0,0-2.25-2.32,3.42,3.42,0,0,0-2.62,1v8.08h-3.35V106.23Z"/><path class="cls-1" d="M132.78,114.64a10.07,10.07,0,0,0,3.18.61c1,0,1.74-.29,1.74-1s-.32-.9-1.81-1.2c-2.23-.47-3.65-1.56-3.65-3.42,0-2.44,2.18-3.67,4.6-3.67a9.79,9.79,0,0,1,3.72.8l-.49,2.59a9.28,9.28,0,0,0-3-.6c-.79,0-1.48.32-1.48.88s.24.86,1.81,1.16c2.27.47,3.66,1.4,3.66,3.37,0,2.63-2.35,3.83-4.85,3.83a11.27,11.27,0,0,1-3.9-.75Z"/><path class="cls-1" d="M154.5,112.56c0,3.34-2.51,5.52-5.81,5.52s-5.81-2.18-5.81-5.52v-6.33h3.35v6.33c0,1.88,1,2.78,2.46,2.78s2.46-.9,2.46-2.78v-6.33h3.35Z"/><path class="cls-1" d="M156.87,106.23h3.34v1.3l.15,0a4.11,4.11,0,0,1,3.17-1.58h.33v3.11h-.56a4.83,4.83,0,0,0-3.09,1.07v7.69h-3.34Z"/><path class="cls-1" d="M173.29,113.75v-4.22a5.16,5.16,0,0,0-2.91-.78,3.3,3.3,0,1,0,2.91,5m-.12-6.73.12-.07v-.72h3.35v11.62h-3.35v-1.11l-.14,0a4.51,4.51,0,0,1-3.41,1.39,5.78,5.78,0,0,1-5.6-6,5.88,5.88,0,0,1,5.83-6,4.9,4.9,0,0,1,3.2,1"/><path class="cls-1" d="M179.49,106.23h3.34v1.32l.15,0a5,5,0,0,1,3.87-1.6c2.31,0,4.21,1.65,4.21,4.88v7h-3.35v-6.78a2.09,2.09,0,0,0-2.25-2.32,3.46,3.46,0,0,0-2.63,1v8.08h-3.34V106.23Z"/><path class="cls-1" d="M199.12,115.35a4.44,4.44,0,0,0,2.35-.54l.65,2.63a6.35,6.35,0,0,1-3,.64,6,6,0,1,1,3-11.47l-.65,2.6a5.79,5.79,0,0,0-2.35-.46,3.3,3.3,0,0,0,0,6.6"/><path class="cls-1" d="M206.42,110.83h4.78a2,2,0,0,0-2.21-2.08,2.38,2.38,0,0,0-2.57,2.08m8.14.8V113h-8.24c.23,1.61,1.26,2.3,3.44,2.33a8.14,8.14,0,0,0,3.42-.71l.57,2.44a8.37,8.37,0,0,1-4,1c-4.19,0-6.83-2.28-6.83-6a5.84,5.84,0,0,1,5.95-6.07c3.32,0,5.62,2,5.68,5.63"/></g></g></svg>